<svg width="24" height="24" viewBox="0 0 24 24" fill="none" xmlns="http://www.w3.org/2000/svg">
<path fill-rule="evenodd" clip-rule="evenodd" d="M11.9443 1.25H12.0557H12.0558C13.6583 1.24998 14.9373 1.24997 15.9404 1.38483C16.9767 1.52415 17.8301 1.81966 18.5052 2.4948C19.1803 3.16994 19.4759 4.02335 19.6152 5.05961C19.75 6.0627 19.75 7.34166 19.75 8.94426V15.0557C19.75 16.6583 19.75 17.9373 19.6152 18.9404C19.4759 19.9767 19.1803 20.8301 18.5052 21.5052C17.8301 22.1803 16.9767 22.4759 15.9404 22.6152C14.9373 22.75 13.6583 22.75 12.0557 22.75H11.9443C10.3417 22.75 9.0627 22.75 8.05961 22.6152C7.02335 22.4759 6.16994 22.1803 5.4948 21.5052C4.81966 20.8301 4.52415 19.9767 4.38483 18.9404C4.24997 17.9373 4.24998 16.6583 4.25 15.0558V15.0557V8.94426V8.94425C4.24998 7.34166 4.24997 6.0627 4.38483 5.05961C4.52415 4.02335 4.81966 3.16994 5.4948 2.4948C6.16994 1.81966 7.02335 1.52415 8.05961 1.38483C9.0627 1.24997 10.3417 1.24998 11.9442 1.25H11.9443ZM8.25949 2.87145C7.38955 2.98841 6.90544 3.20547 6.55546 3.55546C6.20547 3.90544 5.98841 4.38955 5.87145 5.25949C5.75159 6.15099 5.75 7.32888 5.75 9V15C5.75 16.6711 5.75159 17.849 5.87145 18.7405C5.98841 19.6105 6.20547 20.0946 6.55546 20.4445C6.90544 20.7945 7.38955 21.0116 8.25949 21.1285C9.15099 21.2484 10.3289 21.25 12 21.25C13.6711 21.25 14.849 21.2484 15.7405 21.1285C16.6104 21.0116 17.0946 20.7945 17.4445 20.4445C17.7945 20.0946 18.0116 19.6105 18.1285 18.7405C18.2484 17.849 18.25 16.6711 18.25 15V9C18.25 7.32888 18.2484 6.15099 18.1285 5.25949C18.0116 4.38955 17.7945 3.90544 17.4445 3.55546C17.0946 3.20547 16.6104 2.98841 15.7405 2.87145C15.7005 2.86608 15.66 2.86094 15.6189 2.85604C15.5391 3.33241 15.4653 3.74946 15.3656 4.08947C15.2465 4.49529 15.0679 4.87636 14.7241 5.18136C14.3685 5.49684 13.959 5.62937 13.5203 5.69C13.1067 5.74716 12.5963 5.7483 12.0015 5.7483C11.4067 5.7483 10.8963 5.74716 10.4827 5.69C10.0441 5.62937 9.63453 5.49684 9.27895 5.18136C8.93518 4.87636 8.75657 4.49529 8.63747 4.08947C8.53766 3.74938 8.46391 3.3322 8.3841 2.85568C8.34195 2.8607 8.30041 2.86595 8.25949 2.87145ZM9.89007 2.7645C9.95842 3.16488 10.0123 3.4473 10.0768 3.66706C10.1533 3.9279 10.2214 4.01221 10.2745 4.05932C10.3329 4.11115 10.4238 4.16759 10.6881 4.20412C10.9774 4.24411 11.3725 4.2483 12.0015 4.2483C12.6306 4.2483 13.0256 4.24411 13.3149 4.20412C13.5792 4.16759 13.6702 4.11115 13.7286 4.05932C13.7817 4.01221 13.8497 3.9279 13.9263 3.66706C13.9908 3.44731 14.0446 3.16492 14.113 2.76458C13.5095 2.75038 12.8132 2.75 12 2.75C11.1882 2.75 10.4928 2.75038 9.89007 2.7645ZM10.25 19C10.25 18.5858 10.5858 18.25 11 18.25H13C13.4142 18.25 13.75 18.5858 13.75 19C13.75 19.4142 13.4142 19.75 13 19.75H11C10.5858 19.75 10.25 19.4142 10.25 19Z" fill="#0F172A"/>
</svg>
