<svg width="24" height="24" viewBox="0 0 24 24" fill="none" xmlns="http://www.w3.org/2000/svg">
<path fill-rule="evenodd" clip-rule="evenodd" d="M15.8503 1.75094C15.4366 1.73043 15.0846 2.04919 15.0641 2.46289C15.0436 2.8766 15.3624 3.22859 15.7761 3.2491C17.8549 3.35212 18.906 3.65992 19.6231 4.37696C20.3401 5.09404 20.6479 6.14501 20.7509 8.22393C20.7714 8.63763 21.1234 8.95638 21.5372 8.93587C21.9509 8.91536 22.2696 8.56335 22.2491 8.14965C22.144 6.02913 21.8291 4.4618 20.6837 3.31632C19.5382 2.17084 17.9709 1.85603 15.8503 1.75094ZM8.22391 3.2491C8.63762 3.22859 8.95637 2.8766 8.93587 2.46289C8.91536 2.04919 8.56337 1.73043 8.14966 1.75094C6.02913 1.85603 4.46181 2.17085 3.31632 3.31633C2.17085 4.46182 1.85603 6.02913 1.75094 8.14966C1.73043 8.56337 2.04919 8.91536 2.46289 8.93587C2.8766 8.95637 3.22859 8.63762 3.2491 8.22391C3.35213 6.14501 3.65993 5.09405 4.37699 4.37698C4.89979 3.85419 5.60007 3.54894 6.74681 3.38199C7.17293 3.31995 7.6607 3.27701 8.22391 3.2491ZM3.2491 15.7761C3.22859 15.3624 2.8766 15.0436 2.46289 15.0641C2.04919 15.0846 1.73043 15.4366 1.75094 15.8503C1.85603 17.9709 2.17088 19.5383 3.31635 20.6838C4.46183 21.8292 6.02912 22.144 8.14964 22.2491C8.56334 22.2696 8.91535 21.9509 8.93586 21.5372C8.95637 21.1234 8.63762 20.7714 8.22391 20.7509C6.14501 20.6479 5.09404 20.3401 4.37696 19.6231C3.65992 18.906 3.35212 17.8549 3.2491 15.7761ZM22.2491 15.8504C22.2696 15.4367 21.9509 15.0846 21.5372 15.0641C21.1234 15.0436 20.7714 15.3624 20.7509 15.7761C20.723 16.3394 20.68 16.8272 20.618 17.2534C20.451 18.4 20.1458 19.1003 19.6231 19.6231C18.906 20.3401 17.8549 20.6479 15.7761 20.7509C15.3624 20.7714 15.0436 21.1234 15.0641 21.5372C15.0846 21.9509 15.4367 22.2696 15.8504 22.2491C17.9709 22.144 19.5383 21.8291 20.6838 20.6837C21.8292 19.5382 22.144 17.9709 22.2491 15.8504ZM10.4998 8.07149C11.3018 6.87585 12.9733 7.04964 13.554 8.17898C13.683 8.42977 13.7428 8.77544 13.7568 9.22073C13.7625 9.40318 13.7605 9.58847 13.7564 9.77939C12.7984 9.76147 11.3412 9.75972 10.2371 9.78151C10.2335 9.5646 10.2337 9.34572 10.2471 9.11509C10.2757 8.62317 10.3616 8.27763 10.4998 8.07149ZM15.256 9.1736C15.264 9.42623 15.2594 9.6747 15.2542 9.89691C15.4362 9.94604 15.6261 10.0193 15.8149 10.1275C16.3149 10.4141 16.7275 10.9002 16.9815 11.6317L16.9911 11.6593L16.9985 11.6876C17.3398 12.9904 17.2786 14.9297 17.0832 16.0177L17.0762 16.0566L17.0651 16.0947C16.8359 16.882 16.4402 17.4698 15.8134 17.8267C15.2246 18.1619 14.5326 18.2317 13.8501 18.2317C13.714 18.2317 13.5156 18.2324 13.2764 18.2332H13.2759H13.2758C12.1071 18.2371 9.96554 18.2443 9.36055 18.193C8.37152 18.1091 7.21029 17.4353 6.92093 15.9562L6.9189 15.9459L6.91717 15.9355C6.6143 14.1173 6.80469 12.4414 7.01866 11.6758L7.02429 11.6557L7.03103 11.6359L7.03917 11.612C7.13397 11.333 7.29555 10.8575 7.67291 10.472C7.94969 10.1893 8.30235 9.98982 8.73872 9.88576C8.73408 9.61131 8.7333 9.30963 8.74965 9.02812C8.78204 8.47049 8.88417 7.78747 9.25411 7.23593C10.6971 5.08453 13.7887 5.35535 14.888 7.49301C15.1713 8.04394 15.2399 8.65956 15.256 9.1736ZM9.53067 11.3019C10.8876 11.2481 13.6999 11.2593 14.4553 11.3013L14.4761 11.3025H14.497C14.7092 11.3025 14.904 11.3344 15.0689 11.4289C15.2137 11.5118 15.4057 11.6828 15.5549 12.0967C15.8123 13.1125 15.7771 14.7637 15.6138 15.7126C15.4628 16.2088 15.2664 16.412 15.0713 16.5231C14.8333 16.6586 14.4686 16.7317 13.8501 16.7317C13.6918 16.7317 13.4698 16.7324 13.2083 16.7332L13.2078 16.7332C12.0188 16.7369 10.0157 16.7432 9.48731 16.6984C9.04202 16.6606 8.53565 16.3762 8.39493 15.6778C8.13234 14.0898 8.3072 12.6566 8.45806 12.0986C8.55896 11.8043 8.62987 11.6387 8.74484 11.5213C8.828 11.4363 9.00874 11.3025 9.50096 11.3025H9.51582L9.53067 11.3019Z" fill="#0F172A"/>
</svg>
