<svg width="26" height="25" viewBox="0 0 26 25" fill="none" xmlns="http://www.w3.org/2000/svg">
<g clip-path="url(#clip0_11134_20369)">
<path d="M17.4755 15.8589V4H13V18H25V15.8589H17.4755Z" fill="url(#paint0_linear_11134_20369)"/>
<path d="M0.647719 0.977051H8.47509C8.83316 0.977051 9.12281 1.27063 9.12281 1.63531V12.2248C9.12281 12.5871 8.83316 12.883 8.47509 12.883H5.82491V13.1491C5.82491 13.4358 5.59684 13.6674 5.3186 13.6674H3.80649C3.52596 13.6674 3.30018 13.4358 3.30018 13.1491V12.883H0.647719C0.289649 12.883 0 12.5871 0 12.2225V1.63531C0 1.27063 0.289649 0.977051 0.647719 0.977051ZM6.47035 1.79815C4.9993 1.79815 3.53509 1.80503 2.06632 1.79586H2.04807C1.36386 1.79586 0.798246 2.2087 0.850702 2.74311C1.01947 2.76375 1.19053 2.7821 1.38667 2.80503C1.28632 3.05274 1.01491 2.88301 0.850702 2.99311V3.71788C1.02632 3.73852 1.19509 3.75916 1.40263 3.78439C1.26579 4.00457 1.01491 3.86696 0.84386 3.95641V4.76834C1.00351 4.79356 1.18368 4.81879 1.40719 4.8509C1.25667 5.0665 0.998947 4.91742 0.841579 5.03668V5.73623C1.01035 5.76375 1.18825 5.79356 1.43456 5.83485C1.27491 5.961 0.823333 5.99999 0.823333 5.99999C0.81421 6.08256 0.823333 6.16283 0.823333 6.25916C0.823333 7.51146 0.823333 8.76146 0.823333 10.0137C0.823333 10.2225 0.791404 10.3853 1.0514 10.5596C1.02175 10.328 1.04228 9.99081 1.04228 9.99081C1.16088 9.9587 1.25667 9.92889 1.39807 9.8876C1.27491 9.8509 1.18368 9.82338 1.07421 9.78898V9.00916C1.18368 8.97476 1.28632 8.93806 1.48474 8.87155C1.2886 8.80733 1.18596 8.77292 1.07421 8.73623V7.95412C1.17228 7.92659 1.26123 7.87843 1.42088 7.83944C1.42088 7.83944 1.19053 7.74999 1.08105 7.72246V6.97934C1.16544 6.95182 1.32965 6.88531 1.46421 6.84173C1.42088 6.80274 1.07877 6.69035 1.07877 6.69035L1.07193 6.4954C3.44614 6.49311 5.85684 6.4954 8.31544 6.49311V3.61696C8.31544 3.32109 8.31544 3.02522 8.31544 2.73393C8.30632 2.20641 7.85474 1.82797 7.19333 1.80045C7.09754 1.79586 7.00175 1.79586 6.90596 1.79586C6.76 1.79586 6.6186 1.79815 6.47491 1.79815H6.47035ZM4.31053 13.3234H4.81228C4.96053 13.3234 5.07684 13.2018 5.07684 13.0504C5.07684 12.8991 4.95825 12.7775 4.81228 12.7775H4.31053C4.16228 12.7775 4.04596 12.8991 4.04596 13.0504C4.04596 13.2018 4.16228 13.3234 4.31053 13.3234Z" fill="url(#paint1_linear_11134_20369)"/>
<path d="M6.47044 1.79819C6.61185 1.79819 6.75553 1.7959 6.89921 1.7959H2.06641C3.53518 1.80737 5.00167 1.79819 6.47044 1.79819Z" fill="white"/>
<path d="M0.647628 2.46792V10.0138C0.647628 10.3876 1.02166 10.8441 1.35693 10.8441L7.87061 10.6881C8.20359 10.6881 8.475 10.3876 8.475 10.0161V2.47021C8.475 2.09865 8.20359 1.79819 7.87061 1.79819H6.89903C6.99482 1.79819 7.09061 1.79819 7.1864 1.80278C7.8478 1.8303 8.29938 2.20874 8.30851 2.73627C8.30851 3.02755 8.30851 3.32342 8.30851 3.61929V6.49085C5.84991 6.49315 3.43921 6.49085 1.065 6.49315L1.07184 6.6881C1.07184 6.6881 1.41394 6.80049 1.45728 6.83948C1.32272 6.88305 1.15851 6.94957 1.07412 6.97709V7.72021C1.18587 7.75003 1.41394 7.83718 1.41394 7.83718C1.25201 7.87617 1.16535 7.92663 1.06728 7.95186V8.73397C1.17903 8.77067 1.28166 8.80507 1.4778 8.86929C1.27938 8.93581 1.17675 8.9725 1.06728 9.00691V9.78672C1.17675 9.82113 1.26798 9.84865 1.39114 9.88535C1.25201 9.92663 1.15394 9.95645 1.03535 9.98856C1.03535 9.98856 1.0171 10.328 1.04447 10.5574C0.786751 10.3831 0.8164 10.2202 0.8164 10.0115C0.8164 8.7592 0.8164 7.5092 0.8164 6.25691C0.8164 6.15828 0.809558 6.0803 0.8164 5.99773C0.8164 5.99773 1.26798 5.95874 1.42763 5.8326C1.18131 5.79131 1.00342 5.76149 0.834645 5.73397V5.03443C0.992014 4.91516 1.24973 5.06425 1.40026 4.84865C1.18131 4.81883 0.998856 4.79361 0.841487 4.76838V3.95645C1.01026 3.867 1.26114 4.00461 1.40026 3.78443C1.19272 3.7592 1.02394 3.73856 0.84833 3.71792V2.99315C1.01254 2.88305 1.28394 3.05278 1.38429 2.80507C1.18815 2.78214 1.0171 2.76379 0.84833 2.74315C0.791312 2.20874 1.35921 1.7959 2.04342 1.7959H1.24517C0.912189 1.7959 0.643066 2.09865 0.643066 2.46792H0.647628Z" fill="white"/>
<path d="M3.79751 12.7615C3.79751 12.7615 3.79295 12.7615 3.79067 12.7661L3.79751 12.7615ZM0.294355 2.86475C0.294355 2.55053 0.34225 2.22255 0.595408 1.9542C0.96032 1.57346 1.43471 1.36704 2.05278 1.36933C3.72225 1.37392 5.38944 1.38998 7.05664 1.36245C8.03734 1.35099 8.86523 2.00236 8.85839 2.79135C8.8333 5.22025 8.84471 7.64915 8.85839 10.0803C8.85839 10.3923 8.74664 10.656 8.49576 10.8808C7.74085 11.5666 6.88102 12.1514 5.8912 12.6102C5.81365 12.6446 5.74979 12.6606 5.68593 12.6675C5.4533 12.5666 5.03365 12.4244 4.52506 12.4244C4.01646 12.4244 3.64471 12.5712 3.45769 12.6721C3.37102 12.6469 3.28207 12.6147 3.20225 12.5781C2.30593 12.1469 1.49629 11.6239 0.789268 11.0024C0.50418 10.7501 0.292075 10.4703 0.292075 10.1056C0.292075 7.69273 0.285233 5.27759 0.296636 2.86475H0.294355ZM6.4705 1.79823C4.99944 1.79823 3.53523 1.80511 2.06646 1.79594H2.04821C1.364 1.79594 0.798391 2.20878 0.850847 2.74319C1.01962 2.76383 1.19067 2.78218 1.38681 2.80511C1.28646 3.05282 1.01506 2.8831 0.850847 2.99319V3.71796C1.02646 3.7386 1.19523 3.75924 1.40278 3.78447C1.26593 4.00466 1.01506 3.86704 0.844005 3.95649V4.76842C1.00365 4.79365 1.18383 4.81888 1.40734 4.85099C1.25681 5.06658 0.999092 4.9175 0.841724 5.03677V5.73631C1.0105 5.76383 1.18839 5.79365 1.43471 5.83493C1.27506 5.96108 0.823478 6.00007 0.823478 6.00007C0.814355 6.08264 0.823478 6.16291 0.823478 6.25924C0.823478 7.51154 0.823478 8.76154 0.823478 10.0138C0.823478 10.2225 0.791548 10.3854 1.05155 10.5597C1.0219 10.3281 1.04243 9.9909 1.04243 9.9909C1.16102 9.95879 1.25681 9.92897 1.39822 9.88768C1.27506 9.85099 1.18383 9.82346 1.07436 9.78906V9.00924C1.18383 8.97484 1.28646 8.93814 1.48488 8.87163C1.28874 8.80741 1.18611 8.773 1.07436 8.73631V7.9542C1.17243 7.92667 1.26137 7.87851 1.42102 7.83952C1.42102 7.83952 1.19067 7.75007 1.0812 7.72255V6.97943C1.16558 6.9519 1.32979 6.88539 1.46436 6.84181C1.42102 6.80282 1.07892 6.69044 1.07892 6.69044L1.07207 6.49548C3.44629 6.49319 5.85699 6.49548 8.31558 6.49319V3.61704C8.31558 3.32117 8.31558 3.0253 8.31558 2.73401C8.30646 2.20649 7.85488 1.82805 7.19348 1.80053C7.09769 1.79594 7.0019 1.79594 6.90611 1.79594C6.76014 1.79594 6.61874 1.79823 6.47506 1.79823H6.4705Z" fill="url(#paint2_linear_11134_20369)"/>
<path d="M16.7541 25.016C21.8469 25.016 25.9362 22.7798 25.991 22.7477V21.8646C25.918 21.9059 18.134 26.2454 11.0113 23.1903C4.88993 20.5665 4.92186 13.7385 4.92414 13.6697L4.19887 13.6582C4.19659 13.7316 4.15326 21.0045 10.7126 23.8188C12.7606 24.6949 14.8292 25.016 16.7541 25.016Z" fill="url(#paint3_linear_11134_20369)"/>
</g>
<defs>
<linearGradient id="paint0_linear_11134_20369" x1="18.9982" y1="4.00018" x2="18.9982" y2="18" gradientUnits="userSpaceOnUse">
<stop offset="0.03" stop-color="#39D3F9"/>
<stop offset="0.54" stop-color="#7647EE"/>
<stop offset="1" stop-color="#BB00C4"/>
</linearGradient>
<linearGradient id="paint1_linear_11134_20369" x1="4.5614" y1="0.977051" x2="4.5614" y2="13.6674" gradientUnits="userSpaceOnUse">
<stop offset="0.03" stop-color="#39D3F9"/>
<stop offset="0.54" stop-color="#7647EE"/>
<stop offset="1" stop-color="#BB00C4"/>
</linearGradient>
<linearGradient id="paint2_linear_11134_20369" x1="4.57295" y1="1.36245" x2="4.57295" y2="12.7661" gradientUnits="userSpaceOnUse">
<stop offset="0.03" stop-color="#39D3F9"/>
<stop offset="0.54" stop-color="#7647EE"/>
<stop offset="1" stop-color="#BB00C4"/>
</linearGradient>
<linearGradient id="paint3_linear_11134_20369" x1="15.0938" y1="13.6582" x2="15.0938" y2="25.016" gradientUnits="userSpaceOnUse">
<stop offset="0.03" stop-color="#39D3F9"/>
<stop offset="0.54" stop-color="#7647EE"/>
<stop offset="1" stop-color="#BB00C4"/>
</linearGradient>
<clipPath id="clip0_11134_20369">
<rect width="26" height="25" fill="white"/>
</clipPath>
</defs>
</svg>
