<svg width="110" height="44" viewBox="0 0 110 44" fill="none" xmlns="http://www.w3.org/2000/svg">
<g clip-path="url(#clip0_500_35560)">
<path d="M24.819 30.8086V16.4885H19.7761V33.3941H33.2976V30.8086H24.819Z" fill="white"/>
<path d="M36.3015 22.6023V33.3942H41.3444V22.6023H36.3015Z" fill="white"/>
<path d="M62.2705 16.4885V28.0767L50.9694 16.4885H45.9229V33.3941H50.9694V21.8987L62.2705 33.3941H67.317V16.4885H62.2705Z" fill="white"/>
<path d="M86.9552 19.1704V16.4885H71.8955V33.3941H86.9552V30.6872H76.9384V26.1376H85.8813V23.5522H76.9384V19.1704H86.9552Z" fill="white"/>
<path d="M106.953 26.1376C106.234 25.4663 105.371 24.9663 104.359 24.6306C103.343 24.295 102.026 23.9343 100.404 23.5522C99.236 23.2986 98.3109 23.0665 97.6324 22.8594C96.954 22.6523 96.3917 22.3844 95.9527 22.0559C95.5101 21.7273 95.2888 21.3167 95.2888 20.8238C95.2888 20.1989 95.5754 19.7239 96.1486 19.399C96.7218 19.0704 97.4728 18.9062 98.4016 18.9062C99.4754 18.9062 100.321 19.1026 100.941 19.4954C101.562 19.8846 101.942 20.3846 102.088 20.9917H107.522C107.308 19.5525 106.408 18.4026 104.823 17.542C103.238 16.6814 101.108 16.2493 98.4378 16.2493C95.7677 16.2493 93.794 16.6671 92.2304 17.5063C90.6667 18.3455 89.8867 19.4918 89.8867 20.9417C89.8867 21.9952 90.2386 22.8487 90.9425 23.5057C91.6463 24.1593 92.4989 24.6592 93.5002 25.002C94.5015 25.3449 95.7894 25.6913 97.364 26.0412C98.5793 26.3126 99.5335 26.5555 100.226 26.7626C100.916 26.9697 101.489 27.2447 101.942 27.5875C102.396 27.9303 102.621 28.366 102.621 28.891C102.621 29.4838 102.342 29.9659 101.783 30.3408C101.22 30.7158 100.415 30.9051 99.3666 30.9051C98.1984 30.9051 97.2624 30.6765 96.5586 30.2194C95.8547 29.7659 95.4448 29.1945 95.325 28.5089H89.9593C90.079 29.5302 90.5615 30.423 91.4068 31.1908C92.2558 31.9585 93.3805 32.5442 94.7881 32.9513C96.1958 33.3584 97.7921 33.562 99.5807 33.562C101.369 33.562 102.933 33.3406 104.195 32.9013C105.462 32.4656 106.416 31.88 107.058 31.155C107.704 30.4301 108.023 29.6338 108.023 28.7731C108.023 27.6875 107.667 26.809 106.953 26.1376Z" fill="white"/>
<path d="M36.3015 16.4885V21.3488H41.3444V16.4885H36.3015Z" fill="white"/>
<path d="M1.03045 4.90747H13.4816C14.0512 4.90747 14.512 5.36457 14.512 5.93238V22.4202C14.512 22.9844 14.0512 23.4451 13.4816 23.4451H9.26594V23.8593C9.26594 24.3057 8.90314 24.6664 8.46053 24.6664H6.05519C5.60895 24.6664 5.24978 24.3057 5.24978 23.8593V23.4451H1.03045C0.460859 23.4451 0.000106812 22.9844 0.000106812 22.4166V5.93238C0.000106812 5.36457 0.460859 4.90747 1.03045 4.90747ZM10.2927 6.18593C7.95261 6.18593 5.62346 6.19664 3.28705 6.18235H3.25802C2.16963 6.18235 1.3098 6.37749 1.35334 7.65722C1.3098 11.8749 1.3098 12.4508 1.3098 13.4995C1.70525 13.4995 1.3098 13.4995 1.70525 13.4995C5.48197 13.496 9.31673 13.4995 13.2277 13.496V9.01781C13.2277 8.55714 13.2277 8.09646 13.2277 7.64293C13.2132 6.82158 12.4948 6.23235 11.4427 6.1895C11.2903 6.18235 11.138 6.18235 10.9856 6.18235C10.7534 6.18235 10.5285 6.18593 10.2999 6.18593H10.2927ZM6.85697 24.1307H7.65512C7.89094 24.1307 8.07597 23.9414 8.07597 23.7057C8.07597 23.4701 7.88731 23.2808 7.65512 23.2808H6.85697C6.62115 23.2808 6.43612 23.4701 6.43612 23.7057C6.43612 23.9414 6.62115 24.1307 6.85697 24.1307Z" fill="white"/>
<path d="M10.2927 6.18594C10.5176 6.18594 10.7462 6.18237 10.9748 6.18237H3.28711C5.62352 6.20023 7.9563 6.18594 10.2927 6.18594Z" fill="white"/>
<path d="M108.386 14.7138H110C109.931 14.6066 102.599 3.3898 88.4535 3.38623H88.4463C73.0238 3.38623 65.9637 14.5066 65.8984 14.6138L67.5419 14.7138C67.6072 14.6102 73.6659 4.45756 88.4499 4.45756H88.4571C101.989 4.45756 108.32 14.6102 108.386 14.7138Z" fill="white"/>
<path d="M26.6512 42.3362C34.7524 42.3362 41.2574 38.8544 41.3444 38.8044V37.4295C41.2283 37.4938 28.8461 44.2503 17.5159 39.4936C7.77846 35.4083 7.82925 24.7771 7.83288 24.67L6.67918 24.6521C6.67556 24.7664 6.60663 36.0903 17.0407 40.4721C20.2986 41.8362 23.5891 42.3362 26.6512 42.3362Z" fill="white"/>
</g>
<defs>
<clipPath id="clip0_500_35560">
<rect width="110" height="43" fill="white" transform="translate(0 0.5)"/>
</clipPath>
</defs>
</svg>
