<svg width="480" height="332" viewBox="0 0 480 332" fill="none" xmlns="http://www.w3.org/2000/svg">
<mask id="mask0_5045_64888" style="mask-type:alpha" maskUnits="userSpaceOnUse" x="0" y="-148" width="480" height="480">
<rect width="480" height="480" transform="translate(0 -148)" fill="url(#paint0_radial_5045_64888)"/>
</mask>
<g mask="url(#mask0_5045_64888)">
<path d="M11.5 -138C11.5 -137.172 10.8284 -136.5 10 -136.5C9.17157 -136.5 8.5 -137.172 8.5 -138C8.5 -138.828 9.17157 -139.5 10 -139.5C10.8284 -139.5 11.5 -138.828 11.5 -138Z" fill="#CFD4F6"/>
<path d="M34.5 -138C34.5 -137.172 33.8284 -136.5 33 -136.5C32.1716 -136.5 31.5 -137.172 31.5 -138C31.5 -138.828 32.1716 -139.5 33 -139.5C33.8284 -139.5 34.5 -138.828 34.5 -138Z" fill="#CFD4F6"/>
<path d="M57.5 -138C57.5 -137.172 56.8284 -136.5 56 -136.5C55.1716 -136.5 54.5 -137.172 54.5 -138C54.5 -138.828 55.1716 -139.5 56 -139.5C56.8284 -139.5 57.5 -138.828 57.5 -138Z" fill="#CFD4F6"/>
<path d="M80.5 -138C80.5 -137.172 79.8284 -136.5 79 -136.5C78.1716 -136.5 77.5 -137.172 77.5 -138C77.5 -138.828 78.1716 -139.5 79 -139.5C79.8284 -139.5 80.5 -138.828 80.5 -138Z" fill="#CFD4F6"/>
<path d="M103.5 -138C103.5 -137.172 102.828 -136.5 102 -136.5C101.172 -136.5 100.5 -137.172 100.5 -138C100.5 -138.828 101.172 -139.5 102 -139.5C102.828 -139.5 103.5 -138.828 103.5 -138Z" fill="#CFD4F6"/>
<path d="M126.5 -138C126.5 -137.172 125.828 -136.5 125 -136.5C124.172 -136.5 123.5 -137.172 123.5 -138C123.5 -138.828 124.172 -139.5 125 -139.5C125.828 -139.5 126.5 -138.828 126.5 -138Z" fill="#CFD4F6"/>
<path d="M149.5 -138C149.5 -137.172 148.828 -136.5 148 -136.5C147.172 -136.5 146.5 -137.172 146.5 -138C146.5 -138.828 147.172 -139.5 148 -139.5C148.828 -139.5 149.5 -138.828 149.5 -138Z" fill="#CFD4F6"/>
<path d="M172.5 -138C172.5 -137.172 171.828 -136.5 171 -136.5C170.172 -136.5 169.5 -137.172 169.5 -138C169.5 -138.828 170.172 -139.5 171 -139.5C171.828 -139.5 172.5 -138.828 172.5 -138Z" fill="#CFD4F6"/>
<path d="M195.5 -138C195.5 -137.172 194.828 -136.5 194 -136.5C193.172 -136.5 192.5 -137.172 192.5 -138C192.5 -138.828 193.172 -139.5 194 -139.5C194.828 -139.5 195.5 -138.828 195.5 -138Z" fill="#CFD4F6"/>
<path d="M218.5 -138C218.5 -137.172 217.828 -136.5 217 -136.5C216.172 -136.5 215.5 -137.172 215.5 -138C215.5 -138.828 216.172 -139.5 217 -139.5C217.828 -139.5 218.5 -138.828 218.5 -138Z" fill="#CFD4F6"/>
<path d="M241.5 -138C241.5 -137.172 240.828 -136.5 240 -136.5C239.172 -136.5 238.5 -137.172 238.5 -138C238.5 -138.828 239.172 -139.5 240 -139.5C240.828 -139.5 241.5 -138.828 241.5 -138Z" fill="#CFD4F6"/>
<path d="M264.5 -138C264.5 -137.172 263.828 -136.5 263 -136.5C262.172 -136.5 261.5 -137.172 261.5 -138C261.5 -138.828 262.172 -139.5 263 -139.5C263.828 -139.5 264.5 -138.828 264.5 -138Z" fill="#CFD4F6"/>
<path d="M287.5 -138C287.5 -137.172 286.828 -136.5 286 -136.5C285.172 -136.5 284.5 -137.172 284.5 -138C284.5 -138.828 285.172 -139.5 286 -139.5C286.828 -139.5 287.5 -138.828 287.5 -138Z" fill="#CFD4F6"/>
<path d="M310.5 -138C310.5 -137.172 309.828 -136.5 309 -136.5C308.172 -136.5 307.5 -137.172 307.5 -138C307.5 -138.828 308.172 -139.5 309 -139.5C309.828 -139.5 310.5 -138.828 310.5 -138Z" fill="#CFD4F6"/>
<path d="M333.5 -138C333.5 -137.172 332.828 -136.5 332 -136.5C331.172 -136.5 330.5 -137.172 330.5 -138C330.5 -138.828 331.172 -139.5 332 -139.5C332.828 -139.5 333.5 -138.828 333.5 -138Z" fill="#CFD4F6"/>
<path d="M356.5 -138C356.5 -137.172 355.828 -136.5 355 -136.5C354.172 -136.5 353.5 -137.172 353.5 -138C353.5 -138.828 354.172 -139.5 355 -139.5C355.828 -139.5 356.5 -138.828 356.5 -138Z" fill="#CFD4F6"/>
<path d="M379.5 -138C379.5 -137.172 378.828 -136.5 378 -136.5C377.172 -136.5 376.5 -137.172 376.5 -138C376.5 -138.828 377.172 -139.5 378 -139.5C378.828 -139.5 379.5 -138.828 379.5 -138Z" fill="#CFD4F6"/>
<path d="M402.5 -138C402.5 -137.172 401.828 -136.5 401 -136.5C400.172 -136.5 399.5 -137.172 399.5 -138C399.5 -138.828 400.172 -139.5 401 -139.5C401.828 -139.5 402.5 -138.828 402.5 -138Z" fill="#CFD4F6"/>
<path d="M425.5 -138C425.5 -137.172 424.828 -136.5 424 -136.5C423.172 -136.5 422.5 -137.172 422.5 -138C422.5 -138.828 423.172 -139.5 424 -139.5C424.828 -139.5 425.5 -138.828 425.5 -138Z" fill="#CFD4F6"/>
<path d="M448.5 -138C448.5 -137.172 447.828 -136.5 447 -136.5C446.172 -136.5 445.5 -137.172 445.5 -138C445.5 -138.828 446.172 -139.5 447 -139.5C447.828 -139.5 448.5 -138.828 448.5 -138Z" fill="#CFD4F6"/>
<path d="M471.5 -138C471.5 -137.172 470.828 -136.5 470 -136.5C469.172 -136.5 468.5 -137.172 468.5 -138C468.5 -138.828 469.172 -139.5 470 -139.5C470.828 -139.5 471.5 -138.828 471.5 -138Z" fill="#CFD4F6"/>
<path d="M11.5 -115C11.5 -114.172 10.8284 -113.5 10 -113.5C9.17157 -113.5 8.5 -114.172 8.5 -115C8.5 -115.828 9.17157 -116.5 10 -116.5C10.8284 -116.5 11.5 -115.828 11.5 -115Z" fill="#CFD4F6"/>
<path d="M34.5 -115C34.5 -114.172 33.8284 -113.5 33 -113.5C32.1716 -113.5 31.5 -114.172 31.5 -115C31.5 -115.828 32.1716 -116.5 33 -116.5C33.8284 -116.5 34.5 -115.828 34.5 -115Z" fill="#CFD4F6"/>
<path d="M57.5 -115C57.5 -114.172 56.8284 -113.5 56 -113.5C55.1716 -113.5 54.5 -114.172 54.5 -115C54.5 -115.828 55.1716 -116.5 56 -116.5C56.8284 -116.5 57.5 -115.828 57.5 -115Z" fill="#CFD4F6"/>
<path d="M80.5 -115C80.5 -114.172 79.8284 -113.5 79 -113.5C78.1716 -113.5 77.5 -114.172 77.5 -115C77.5 -115.828 78.1716 -116.5 79 -116.5C79.8284 -116.5 80.5 -115.828 80.5 -115Z" fill="#CFD4F6"/>
<path d="M103.5 -115C103.5 -114.172 102.828 -113.5 102 -113.5C101.172 -113.5 100.5 -114.172 100.5 -115C100.5 -115.828 101.172 -116.5 102 -116.5C102.828 -116.5 103.5 -115.828 103.5 -115Z" fill="#CFD4F6"/>
<path d="M126.5 -115C126.5 -114.172 125.828 -113.5 125 -113.5C124.172 -113.5 123.5 -114.172 123.5 -115C123.5 -115.828 124.172 -116.5 125 -116.5C125.828 -116.5 126.5 -115.828 126.5 -115Z" fill="#CFD4F6"/>
<path d="M149.5 -115C149.5 -114.172 148.828 -113.5 148 -113.5C147.172 -113.5 146.5 -114.172 146.5 -115C146.5 -115.828 147.172 -116.5 148 -116.5C148.828 -116.5 149.5 -115.828 149.5 -115Z" fill="#CFD4F6"/>
<path d="M172.5 -115C172.5 -114.172 171.828 -113.5 171 -113.5C170.172 -113.5 169.5 -114.172 169.5 -115C169.5 -115.828 170.172 -116.5 171 -116.5C171.828 -116.5 172.5 -115.828 172.5 -115Z" fill="#CFD4F6"/>
<path d="M195.5 -115C195.5 -114.172 194.828 -113.5 194 -113.5C193.172 -113.5 192.5 -114.172 192.5 -115C192.5 -115.828 193.172 -116.5 194 -116.5C194.828 -116.5 195.5 -115.828 195.5 -115Z" fill="#CFD4F6"/>
<path d="M218.5 -115C218.5 -114.172 217.828 -113.5 217 -113.5C216.172 -113.5 215.5 -114.172 215.5 -115C215.5 -115.828 216.172 -116.5 217 -116.5C217.828 -116.5 218.5 -115.828 218.5 -115Z" fill="#CFD4F6"/>
<path d="M241.5 -115C241.5 -114.172 240.828 -113.5 240 -113.5C239.172 -113.5 238.5 -114.172 238.5 -115C238.5 -115.828 239.172 -116.5 240 -116.5C240.828 -116.5 241.5 -115.828 241.5 -115Z" fill="#CFD4F6"/>
<path d="M264.5 -115C264.5 -114.172 263.828 -113.5 263 -113.5C262.172 -113.5 261.5 -114.172 261.5 -115C261.5 -115.828 262.172 -116.5 263 -116.5C263.828 -116.5 264.5 -115.828 264.5 -115Z" fill="#CFD4F6"/>
<path d="M287.5 -115C287.5 -114.172 286.828 -113.5 286 -113.5C285.172 -113.5 284.5 -114.172 284.5 -115C284.5 -115.828 285.172 -116.5 286 -116.5C286.828 -116.5 287.5 -115.828 287.5 -115Z" fill="#CFD4F6"/>
<path d="M310.5 -115C310.5 -114.172 309.828 -113.5 309 -113.5C308.172 -113.5 307.5 -114.172 307.5 -115C307.5 -115.828 308.172 -116.5 309 -116.5C309.828 -116.5 310.5 -115.828 310.5 -115Z" fill="#CFD4F6"/>
<path d="M333.5 -115C333.5 -114.172 332.828 -113.5 332 -113.5C331.172 -113.5 330.5 -114.172 330.5 -115C330.5 -115.828 331.172 -116.5 332 -116.5C332.828 -116.5 333.5 -115.828 333.5 -115Z" fill="#CFD4F6"/>
<path d="M356.5 -115C356.5 -114.172 355.828 -113.5 355 -113.5C354.172 -113.5 353.5 -114.172 353.5 -115C353.5 -115.828 354.172 -116.5 355 -116.5C355.828 -116.5 356.5 -115.828 356.5 -115Z" fill="#CFD4F6"/>
<path d="M379.5 -115C379.5 -114.172 378.828 -113.5 378 -113.5C377.172 -113.5 376.5 -114.172 376.5 -115C376.5 -115.828 377.172 -116.5 378 -116.5C378.828 -116.5 379.5 -115.828 379.5 -115Z" fill="#CFD4F6"/>
<path d="M402.5 -115C402.5 -114.172 401.828 -113.5 401 -113.5C400.172 -113.5 399.5 -114.172 399.5 -115C399.5 -115.828 400.172 -116.5 401 -116.5C401.828 -116.5 402.5 -115.828 402.5 -115Z" fill="#CFD4F6"/>
<path d="M425.5 -115C425.5 -114.172 424.828 -113.5 424 -113.5C423.172 -113.5 422.5 -114.172 422.5 -115C422.5 -115.828 423.172 -116.5 424 -116.5C424.828 -116.5 425.5 -115.828 425.5 -115Z" fill="#CFD4F6"/>
<path d="M448.5 -115C448.5 -114.172 447.828 -113.5 447 -113.5C446.172 -113.5 445.5 -114.172 445.5 -115C445.5 -115.828 446.172 -116.5 447 -116.5C447.828 -116.5 448.5 -115.828 448.5 -115Z" fill="#CFD4F6"/>
<path d="M471.5 -115C471.5 -114.172 470.828 -113.5 470 -113.5C469.172 -113.5 468.5 -114.172 468.5 -115C468.5 -115.828 469.172 -116.5 470 -116.5C470.828 -116.5 471.5 -115.828 471.5 -115Z" fill="#CFD4F6"/>
<path d="M11.5 -92C11.5 -91.1716 10.8284 -90.5 10 -90.5C9.17157 -90.5 8.5 -91.1716 8.5 -92C8.5 -92.8284 9.17157 -93.5 10 -93.5C10.8284 -93.5 11.5 -92.8284 11.5 -92Z" fill="#CFD4F6"/>
<path d="M34.5 -92C34.5 -91.1716 33.8284 -90.5 33 -90.5C32.1716 -90.5 31.5 -91.1716 31.5 -92C31.5 -92.8284 32.1716 -93.5 33 -93.5C33.8284 -93.5 34.5 -92.8284 34.5 -92Z" fill="#CFD4F6"/>
<path d="M57.5 -92C57.5 -91.1716 56.8284 -90.5 56 -90.5C55.1716 -90.5 54.5 -91.1716 54.5 -92C54.5 -92.8284 55.1716 -93.5 56 -93.5C56.8284 -93.5 57.5 -92.8284 57.5 -92Z" fill="#CFD4F6"/>
<path d="M80.5 -92C80.5 -91.1716 79.8284 -90.5 79 -90.5C78.1716 -90.5 77.5 -91.1716 77.5 -92C77.5 -92.8284 78.1716 -93.5 79 -93.5C79.8284 -93.5 80.5 -92.8284 80.5 -92Z" fill="#CFD4F6"/>
<path d="M103.5 -92C103.5 -91.1716 102.828 -90.5 102 -90.5C101.172 -90.5 100.5 -91.1716 100.5 -92C100.5 -92.8284 101.172 -93.5 102 -93.5C102.828 -93.5 103.5 -92.8284 103.5 -92Z" fill="#CFD4F6"/>
<path d="M126.5 -92C126.5 -91.1716 125.828 -90.5 125 -90.5C124.172 -90.5 123.5 -91.1716 123.5 -92C123.5 -92.8284 124.172 -93.5 125 -93.5C125.828 -93.5 126.5 -92.8284 126.5 -92Z" fill="#CFD4F6"/>
<path d="M149.5 -92C149.5 -91.1716 148.828 -90.5 148 -90.5C147.172 -90.5 146.5 -91.1716 146.5 -92C146.5 -92.8284 147.172 -93.5 148 -93.5C148.828 -93.5 149.5 -92.8284 149.5 -92Z" fill="#CFD4F6"/>
<path d="M172.5 -92C172.5 -91.1716 171.828 -90.5 171 -90.5C170.172 -90.5 169.5 -91.1716 169.5 -92C169.5 -92.8284 170.172 -93.5 171 -93.5C171.828 -93.5 172.5 -92.8284 172.5 -92Z" fill="#CFD4F6"/>
<path d="M195.5 -92C195.5 -91.1716 194.828 -90.5 194 -90.5C193.172 -90.5 192.5 -91.1716 192.5 -92C192.5 -92.8284 193.172 -93.5 194 -93.5C194.828 -93.5 195.5 -92.8284 195.5 -92Z" fill="#CFD4F6"/>
<path d="M218.5 -92C218.5 -91.1716 217.828 -90.5 217 -90.5C216.172 -90.5 215.5 -91.1716 215.5 -92C215.5 -92.8284 216.172 -93.5 217 -93.5C217.828 -93.5 218.5 -92.8284 218.5 -92Z" fill="#CFD4F6"/>
<path d="M241.5 -92C241.5 -91.1716 240.828 -90.5 240 -90.5C239.172 -90.5 238.5 -91.1716 238.5 -92C238.5 -92.8284 239.172 -93.5 240 -93.5C240.828 -93.5 241.5 -92.8284 241.5 -92Z" fill="#CFD4F6"/>
<path d="M264.5 -92C264.5 -91.1716 263.828 -90.5 263 -90.5C262.172 -90.5 261.5 -91.1716 261.5 -92C261.5 -92.8284 262.172 -93.5 263 -93.5C263.828 -93.5 264.5 -92.8284 264.5 -92Z" fill="#CFD4F6"/>
<path d="M287.5 -92C287.5 -91.1716 286.828 -90.5 286 -90.5C285.172 -90.5 284.5 -91.1716 284.5 -92C284.5 -92.8284 285.172 -93.5 286 -93.5C286.828 -93.5 287.5 -92.8284 287.5 -92Z" fill="#CFD4F6"/>
<path d="M310.5 -92C310.5 -91.1716 309.828 -90.5 309 -90.5C308.172 -90.5 307.5 -91.1716 307.5 -92C307.5 -92.8284 308.172 -93.5 309 -93.5C309.828 -93.5 310.5 -92.8284 310.5 -92Z" fill="#CFD4F6"/>
<path d="M333.5 -92C333.5 -91.1716 332.828 -90.5 332 -90.5C331.172 -90.5 330.5 -91.1716 330.5 -92C330.5 -92.8284 331.172 -93.5 332 -93.5C332.828 -93.5 333.5 -92.8284 333.5 -92Z" fill="#CFD4F6"/>
<path d="M356.5 -92C356.5 -91.1716 355.828 -90.5 355 -90.5C354.172 -90.5 353.5 -91.1716 353.5 -92C353.5 -92.8284 354.172 -93.5 355 -93.5C355.828 -93.5 356.5 -92.8284 356.5 -92Z" fill="#CFD4F6"/>
<path d="M379.5 -92C379.5 -91.1716 378.828 -90.5 378 -90.5C377.172 -90.5 376.5 -91.1716 376.5 -92C376.5 -92.8284 377.172 -93.5 378 -93.5C378.828 -93.5 379.5 -92.8284 379.5 -92Z" fill="#CFD4F6"/>
<path d="M402.5 -92C402.5 -91.1716 401.828 -90.5 401 -90.5C400.172 -90.5 399.5 -91.1716 399.5 -92C399.5 -92.8284 400.172 -93.5 401 -93.5C401.828 -93.5 402.5 -92.8284 402.5 -92Z" fill="#CFD4F6"/>
<path d="M425.5 -92C425.5 -91.1716 424.828 -90.5 424 -90.5C423.172 -90.5 422.5 -91.1716 422.5 -92C422.5 -92.8284 423.172 -93.5 424 -93.5C424.828 -93.5 425.5 -92.8284 425.5 -92Z" fill="#CFD4F6"/>
<path d="M448.5 -92C448.5 -91.1716 447.828 -90.5 447 -90.5C446.172 -90.5 445.5 -91.1716 445.5 -92C445.5 -92.8284 446.172 -93.5 447 -93.5C447.828 -93.5 448.5 -92.8284 448.5 -92Z" fill="#CFD4F6"/>
<path d="M471.5 -92C471.5 -91.1716 470.828 -90.5 470 -90.5C469.172 -90.5 468.5 -91.1716 468.5 -92C468.5 -92.8284 469.172 -93.5 470 -93.5C470.828 -93.5 471.5 -92.8284 471.5 -92Z" fill="#CFD4F6"/>
<path d="M11.5 -69C11.5 -68.1716 10.8284 -67.5 10 -67.5C9.17157 -67.5 8.5 -68.1716 8.5 -69C8.5 -69.8284 9.17157 -70.5 10 -70.5C10.8284 -70.5 11.5 -69.8284 11.5 -69Z" fill="#CFD4F6"/>
<path d="M34.5 -69C34.5 -68.1716 33.8284 -67.5 33 -67.5C32.1716 -67.5 31.5 -68.1716 31.5 -69C31.5 -69.8284 32.1716 -70.5 33 -70.5C33.8284 -70.5 34.5 -69.8284 34.5 -69Z" fill="#CFD4F6"/>
<path d="M57.5 -69C57.5 -68.1716 56.8284 -67.5 56 -67.5C55.1716 -67.5 54.5 -68.1716 54.5 -69C54.5 -69.8284 55.1716 -70.5 56 -70.5C56.8284 -70.5 57.5 -69.8284 57.5 -69Z" fill="#CFD4F6"/>
<path d="M80.5 -69C80.5 -68.1716 79.8284 -67.5 79 -67.5C78.1716 -67.5 77.5 -68.1716 77.5 -69C77.5 -69.8284 78.1716 -70.5 79 -70.5C79.8284 -70.5 80.5 -69.8284 80.5 -69Z" fill="#CFD4F6"/>
<path d="M103.5 -69C103.5 -68.1716 102.828 -67.5 102 -67.5C101.172 -67.5 100.5 -68.1716 100.5 -69C100.5 -69.8284 101.172 -70.5 102 -70.5C102.828 -70.5 103.5 -69.8284 103.5 -69Z" fill="#CFD4F6"/>
<path d="M126.5 -69C126.5 -68.1716 125.828 -67.5 125 -67.5C124.172 -67.5 123.5 -68.1716 123.5 -69C123.5 -69.8284 124.172 -70.5 125 -70.5C125.828 -70.5 126.5 -69.8284 126.5 -69Z" fill="#CFD4F6"/>
<path d="M149.5 -69C149.5 -68.1716 148.828 -67.5 148 -67.5C147.172 -67.5 146.5 -68.1716 146.5 -69C146.5 -69.8284 147.172 -70.5 148 -70.5C148.828 -70.5 149.5 -69.8284 149.5 -69Z" fill="#CFD4F6"/>
<path d="M172.5 -69C172.5 -68.1716 171.828 -67.5 171 -67.5C170.172 -67.5 169.5 -68.1716 169.5 -69C169.5 -69.8284 170.172 -70.5 171 -70.5C171.828 -70.5 172.5 -69.8284 172.5 -69Z" fill="#CFD4F6"/>
<path d="M195.5 -69C195.5 -68.1716 194.828 -67.5 194 -67.5C193.172 -67.5 192.5 -68.1716 192.5 -69C192.5 -69.8284 193.172 -70.5 194 -70.5C194.828 -70.5 195.5 -69.8284 195.5 -69Z" fill="#CFD4F6"/>
<path d="M218.5 -69C218.5 -68.1716 217.828 -67.5 217 -67.5C216.172 -67.5 215.5 -68.1716 215.5 -69C215.5 -69.8284 216.172 -70.5 217 -70.5C217.828 -70.5 218.5 -69.8284 218.5 -69Z" fill="#CFD4F6"/>
<path d="M241.5 -69C241.5 -68.1716 240.828 -67.5 240 -67.5C239.172 -67.5 238.5 -68.1716 238.5 -69C238.5 -69.8284 239.172 -70.5 240 -70.5C240.828 -70.5 241.5 -69.8284 241.5 -69Z" fill="#CFD4F6"/>
<path d="M264.5 -69C264.5 -68.1716 263.828 -67.5 263 -67.5C262.172 -67.5 261.5 -68.1716 261.5 -69C261.5 -69.8284 262.172 -70.5 263 -70.5C263.828 -70.5 264.5 -69.8284 264.5 -69Z" fill="#CFD4F6"/>
<path d="M287.5 -69C287.5 -68.1716 286.828 -67.5 286 -67.5C285.172 -67.5 284.5 -68.1716 284.5 -69C284.5 -69.8284 285.172 -70.5 286 -70.5C286.828 -70.5 287.5 -69.8284 287.5 -69Z" fill="#CFD4F6"/>
<path d="M310.5 -69C310.5 -68.1716 309.828 -67.5 309 -67.5C308.172 -67.5 307.5 -68.1716 307.5 -69C307.5 -69.8284 308.172 -70.5 309 -70.5C309.828 -70.5 310.5 -69.8284 310.5 -69Z" fill="#CFD4F6"/>
<path d="M333.5 -69C333.5 -68.1716 332.828 -67.5 332 -67.5C331.172 -67.5 330.5 -68.1716 330.5 -69C330.5 -69.8284 331.172 -70.5 332 -70.5C332.828 -70.5 333.5 -69.8284 333.5 -69Z" fill="#CFD4F6"/>
<path d="M356.5 -69C356.5 -68.1716 355.828 -67.5 355 -67.5C354.172 -67.5 353.5 -68.1716 353.5 -69C353.5 -69.8284 354.172 -70.5 355 -70.5C355.828 -70.5 356.5 -69.8284 356.5 -69Z" fill="#CFD4F6"/>
<path d="M379.5 -69C379.5 -68.1716 378.828 -67.5 378 -67.5C377.172 -67.5 376.5 -68.1716 376.5 -69C376.5 -69.8284 377.172 -70.5 378 -70.5C378.828 -70.5 379.5 -69.8284 379.5 -69Z" fill="#CFD4F6"/>
<path d="M402.5 -69C402.5 -68.1716 401.828 -67.5 401 -67.5C400.172 -67.5 399.5 -68.1716 399.5 -69C399.5 -69.8284 400.172 -70.5 401 -70.5C401.828 -70.5 402.5 -69.8284 402.5 -69Z" fill="#CFD4F6"/>
<path d="M425.5 -69C425.5 -68.1716 424.828 -67.5 424 -67.5C423.172 -67.5 422.5 -68.1716 422.5 -69C422.5 -69.8284 423.172 -70.5 424 -70.5C424.828 -70.5 425.5 -69.8284 425.5 -69Z" fill="#CFD4F6"/>
<path d="M448.5 -69C448.5 -68.1716 447.828 -67.5 447 -67.5C446.172 -67.5 445.5 -68.1716 445.5 -69C445.5 -69.8284 446.172 -70.5 447 -70.5C447.828 -70.5 448.5 -69.8284 448.5 -69Z" fill="#CFD4F6"/>
<path d="M471.5 -69C471.5 -68.1716 470.828 -67.5 470 -67.5C469.172 -67.5 468.5 -68.1716 468.5 -69C468.5 -69.8284 469.172 -70.5 470 -70.5C470.828 -70.5 471.5 -69.8284 471.5 -69Z" fill="#CFD4F6"/>
<path d="M11.5 -46C11.5 -45.1716 10.8284 -44.5 10 -44.5C9.17157 -44.5 8.5 -45.1716 8.5 -46C8.5 -46.8284 9.17157 -47.5 10 -47.5C10.8284 -47.5 11.5 -46.8284 11.5 -46Z" fill="#CFD4F6"/>
<path d="M34.5 -46C34.5 -45.1716 33.8284 -44.5 33 -44.5C32.1716 -44.5 31.5 -45.1716 31.5 -46C31.5 -46.8284 32.1716 -47.5 33 -47.5C33.8284 -47.5 34.5 -46.8284 34.5 -46Z" fill="#CFD4F6"/>
<path d="M57.5 -46C57.5 -45.1716 56.8284 -44.5 56 -44.5C55.1716 -44.5 54.5 -45.1716 54.5 -46C54.5 -46.8284 55.1716 -47.5 56 -47.5C56.8284 -47.5 57.5 -46.8284 57.5 -46Z" fill="#CFD4F6"/>
<path d="M80.5 -46C80.5 -45.1716 79.8284 -44.5 79 -44.5C78.1716 -44.5 77.5 -45.1716 77.5 -46C77.5 -46.8284 78.1716 -47.5 79 -47.5C79.8284 -47.5 80.5 -46.8284 80.5 -46Z" fill="#CFD4F6"/>
<path d="M103.5 -46C103.5 -45.1716 102.828 -44.5 102 -44.5C101.172 -44.5 100.5 -45.1716 100.5 -46C100.5 -46.8284 101.172 -47.5 102 -47.5C102.828 -47.5 103.5 -46.8284 103.5 -46Z" fill="#CFD4F6"/>
<path d="M126.5 -46C126.5 -45.1716 125.828 -44.5 125 -44.5C124.172 -44.5 123.5 -45.1716 123.5 -46C123.5 -46.8284 124.172 -47.5 125 -47.5C125.828 -47.5 126.5 -46.8284 126.5 -46Z" fill="#CFD4F6"/>
<path d="M149.5 -46C149.5 -45.1716 148.828 -44.5 148 -44.5C147.172 -44.5 146.5 -45.1716 146.5 -46C146.5 -46.8284 147.172 -47.5 148 -47.5C148.828 -47.5 149.5 -46.8284 149.5 -46Z" fill="#CFD4F6"/>
<path d="M172.5 -46C172.5 -45.1716 171.828 -44.5 171 -44.5C170.172 -44.5 169.5 -45.1716 169.5 -46C169.5 -46.8284 170.172 -47.5 171 -47.5C171.828 -47.5 172.5 -46.8284 172.5 -46Z" fill="#CFD4F6"/>
<path d="M195.5 -46C195.5 -45.1716 194.828 -44.5 194 -44.5C193.172 -44.5 192.5 -45.1716 192.5 -46C192.5 -46.8284 193.172 -47.5 194 -47.5C194.828 -47.5 195.5 -46.8284 195.5 -46Z" fill="#CFD4F6"/>
<path d="M218.5 -46C218.5 -45.1716 217.828 -44.5 217 -44.5C216.172 -44.5 215.5 -45.1716 215.5 -46C215.5 -46.8284 216.172 -47.5 217 -47.5C217.828 -47.5 218.5 -46.8284 218.5 -46Z" fill="#CFD4F6"/>
<path d="M241.5 -46C241.5 -45.1716 240.828 -44.5 240 -44.5C239.172 -44.5 238.5 -45.1716 238.5 -46C238.5 -46.8284 239.172 -47.5 240 -47.5C240.828 -47.5 241.5 -46.8284 241.5 -46Z" fill="#CFD4F6"/>
<path d="M264.5 -46C264.5 -45.1716 263.828 -44.5 263 -44.5C262.172 -44.5 261.5 -45.1716 261.5 -46C261.5 -46.8284 262.172 -47.5 263 -47.5C263.828 -47.5 264.5 -46.8284 264.5 -46Z" fill="#CFD4F6"/>
<path d="M287.5 -46C287.5 -45.1716 286.828 -44.5 286 -44.5C285.172 -44.5 284.5 -45.1716 284.5 -46C284.5 -46.8284 285.172 -47.5 286 -47.5C286.828 -47.5 287.5 -46.8284 287.5 -46Z" fill="#CFD4F6"/>
<path d="M310.5 -46C310.5 -45.1716 309.828 -44.5 309 -44.5C308.172 -44.5 307.5 -45.1716 307.5 -46C307.5 -46.8284 308.172 -47.5 309 -47.5C309.828 -47.5 310.5 -46.8284 310.5 -46Z" fill="#CFD4F6"/>
<path d="M333.5 -46C333.5 -45.1716 332.828 -44.5 332 -44.5C331.172 -44.5 330.5 -45.1716 330.5 -46C330.5 -46.8284 331.172 -47.5 332 -47.5C332.828 -47.5 333.5 -46.8284 333.5 -46Z" fill="#CFD4F6"/>
<path d="M356.5 -46C356.5 -45.1716 355.828 -44.5 355 -44.5C354.172 -44.5 353.5 -45.1716 353.5 -46C353.5 -46.8284 354.172 -47.5 355 -47.5C355.828 -47.5 356.5 -46.8284 356.5 -46Z" fill="#CFD4F6"/>
<path d="M379.5 -46C379.5 -45.1716 378.828 -44.5 378 -44.5C377.172 -44.5 376.5 -45.1716 376.5 -46C376.5 -46.8284 377.172 -47.5 378 -47.5C378.828 -47.5 379.5 -46.8284 379.5 -46Z" fill="#CFD4F6"/>
<path d="M402.5 -46C402.5 -45.1716 401.828 -44.5 401 -44.5C400.172 -44.5 399.5 -45.1716 399.5 -46C399.5 -46.8284 400.172 -47.5 401 -47.5C401.828 -47.5 402.5 -46.8284 402.5 -46Z" fill="#CFD4F6"/>
<path d="M425.5 -46C425.5 -45.1716 424.828 -44.5 424 -44.5C423.172 -44.5 422.5 -45.1716 422.5 -46C422.5 -46.8284 423.172 -47.5 424 -47.5C424.828 -47.5 425.5 -46.8284 425.5 -46Z" fill="#CFD4F6"/>
<path d="M448.5 -46C448.5 -45.1716 447.828 -44.5 447 -44.5C446.172 -44.5 445.5 -45.1716 445.5 -46C445.5 -46.8284 446.172 -47.5 447 -47.5C447.828 -47.5 448.5 -46.8284 448.5 -46Z" fill="#CFD4F6"/>
<path d="M471.5 -46C471.5 -45.1716 470.828 -44.5 470 -44.5C469.172 -44.5 468.5 -45.1716 468.5 -46C468.5 -46.8284 469.172 -47.5 470 -47.5C470.828 -47.5 471.5 -46.8284 471.5 -46Z" fill="#CFD4F6"/>
<path d="M11.5 -23C11.5 -22.1716 10.8284 -21.5 10 -21.5C9.17157 -21.5 8.5 -22.1716 8.5 -23C8.5 -23.8284 9.17157 -24.5 10 -24.5C10.8284 -24.5 11.5 -23.8284 11.5 -23Z" fill="#CFD4F6"/>
<path d="M34.5 -23C34.5 -22.1716 33.8284 -21.5 33 -21.5C32.1716 -21.5 31.5 -22.1716 31.5 -23C31.5 -23.8284 32.1716 -24.5 33 -24.5C33.8284 -24.5 34.5 -23.8284 34.5 -23Z" fill="#CFD4F6"/>
<path d="M57.5 -23C57.5 -22.1716 56.8284 -21.5 56 -21.5C55.1716 -21.5 54.5 -22.1716 54.5 -23C54.5 -23.8284 55.1716 -24.5 56 -24.5C56.8284 -24.5 57.5 -23.8284 57.5 -23Z" fill="#CFD4F6"/>
<path d="M80.5 -23C80.5 -22.1716 79.8284 -21.5 79 -21.5C78.1716 -21.5 77.5 -22.1716 77.5 -23C77.5 -23.8284 78.1716 -24.5 79 -24.5C79.8284 -24.5 80.5 -23.8284 80.5 -23Z" fill="#CFD4F6"/>
<path d="M103.5 -23C103.5 -22.1716 102.828 -21.5 102 -21.5C101.172 -21.5 100.5 -22.1716 100.5 -23C100.5 -23.8284 101.172 -24.5 102 -24.5C102.828 -24.5 103.5 -23.8284 103.5 -23Z" fill="#CFD4F6"/>
<path d="M126.5 -23C126.5 -22.1716 125.828 -21.5 125 -21.5C124.172 -21.5 123.5 -22.1716 123.5 -23C123.5 -23.8284 124.172 -24.5 125 -24.5C125.828 -24.5 126.5 -23.8284 126.5 -23Z" fill="#CFD4F6"/>
<path d="M149.5 -23C149.5 -22.1716 148.828 -21.5 148 -21.5C147.172 -21.5 146.5 -22.1716 146.5 -23C146.5 -23.8284 147.172 -24.5 148 -24.5C148.828 -24.5 149.5 -23.8284 149.5 -23Z" fill="#CFD4F6"/>
<path d="M172.5 -23C172.5 -22.1716 171.828 -21.5 171 -21.5C170.172 -21.5 169.5 -22.1716 169.5 -23C169.5 -23.8284 170.172 -24.5 171 -24.5C171.828 -24.5 172.5 -23.8284 172.5 -23Z" fill="#CFD4F6"/>
<path d="M195.5 -23C195.5 -22.1716 194.828 -21.5 194 -21.5C193.172 -21.5 192.5 -22.1716 192.5 -23C192.5 -23.8284 193.172 -24.5 194 -24.5C194.828 -24.5 195.5 -23.8284 195.5 -23Z" fill="#CFD4F6"/>
<path d="M218.5 -23C218.5 -22.1716 217.828 -21.5 217 -21.5C216.172 -21.5 215.5 -22.1716 215.5 -23C215.5 -23.8284 216.172 -24.5 217 -24.5C217.828 -24.5 218.5 -23.8284 218.5 -23Z" fill="#CFD4F6"/>
<path d="M241.5 -23C241.5 -22.1716 240.828 -21.5 240 -21.5C239.172 -21.5 238.5 -22.1716 238.5 -23C238.5 -23.8284 239.172 -24.5 240 -24.5C240.828 -24.5 241.5 -23.8284 241.5 -23Z" fill="#CFD4F6"/>
<path d="M264.5 -23C264.5 -22.1716 263.828 -21.5 263 -21.5C262.172 -21.5 261.5 -22.1716 261.5 -23C261.5 -23.8284 262.172 -24.5 263 -24.5C263.828 -24.5 264.5 -23.8284 264.5 -23Z" fill="#CFD4F6"/>
<path d="M287.5 -23C287.5 -22.1716 286.828 -21.5 286 -21.5C285.172 -21.5 284.5 -22.1716 284.5 -23C284.5 -23.8284 285.172 -24.5 286 -24.5C286.828 -24.5 287.5 -23.8284 287.5 -23Z" fill="#CFD4F6"/>
<path d="M310.5 -23C310.5 -22.1716 309.828 -21.5 309 -21.5C308.172 -21.5 307.5 -22.1716 307.5 -23C307.5 -23.8284 308.172 -24.5 309 -24.5C309.828 -24.5 310.5 -23.8284 310.5 -23Z" fill="#CFD4F6"/>
<path d="M333.5 -23C333.5 -22.1716 332.828 -21.5 332 -21.5C331.172 -21.5 330.5 -22.1716 330.5 -23C330.5 -23.8284 331.172 -24.5 332 -24.5C332.828 -24.5 333.5 -23.8284 333.5 -23Z" fill="#CFD4F6"/>
<path d="M356.5 -23C356.5 -22.1716 355.828 -21.5 355 -21.5C354.172 -21.5 353.5 -22.1716 353.5 -23C353.5 -23.8284 354.172 -24.5 355 -24.5C355.828 -24.5 356.5 -23.8284 356.5 -23Z" fill="#CFD4F6"/>
<path d="M379.5 -23C379.5 -22.1716 378.828 -21.5 378 -21.5C377.172 -21.5 376.5 -22.1716 376.5 -23C376.5 -23.8284 377.172 -24.5 378 -24.5C378.828 -24.5 379.5 -23.8284 379.5 -23Z" fill="#CFD4F6"/>
<path d="M402.5 -23C402.5 -22.1716 401.828 -21.5 401 -21.5C400.172 -21.5 399.5 -22.1716 399.5 -23C399.5 -23.8284 400.172 -24.5 401 -24.5C401.828 -24.5 402.5 -23.8284 402.5 -23Z" fill="#CFD4F6"/>
<path d="M425.5 -23C425.5 -22.1716 424.828 -21.5 424 -21.5C423.172 -21.5 422.5 -22.1716 422.5 -23C422.5 -23.8284 423.172 -24.5 424 -24.5C424.828 -24.5 425.5 -23.8284 425.5 -23Z" fill="#CFD4F6"/>
<path d="M448.5 -23C448.5 -22.1716 447.828 -21.5 447 -21.5C446.172 -21.5 445.5 -22.1716 445.5 -23C445.5 -23.8284 446.172 -24.5 447 -24.5C447.828 -24.5 448.5 -23.8284 448.5 -23Z" fill="#CFD4F6"/>
<path d="M471.5 -23C471.5 -22.1716 470.828 -21.5 470 -21.5C469.172 -21.5 468.5 -22.1716 468.5 -23C468.5 -23.8284 469.172 -24.5 470 -24.5C470.828 -24.5 471.5 -23.8284 471.5 -23Z" fill="#CFD4F6"/>
<path d="M11.5 0C11.5 0.82843 10.8284 1.5 10 1.5C9.17157 1.5 8.5 0.82843 8.5 0C8.5 -0.82843 9.17157 -1.5 10 -1.5C10.8284 -1.5 11.5 -0.82843 11.5 0Z" fill="#CFD4F6"/>
<path d="M34.5 0C34.5 0.82843 33.8284 1.5 33 1.5C32.1716 1.5 31.5 0.82843 31.5 0C31.5 -0.82843 32.1716 -1.5 33 -1.5C33.8284 -1.5 34.5 -0.82843 34.5 0Z" fill="#CFD4F6"/>
<path d="M57.5 0C57.5 0.82843 56.8284 1.5 56 1.5C55.1716 1.5 54.5 0.82843 54.5 0C54.5 -0.82843 55.1716 -1.5 56 -1.5C56.8284 -1.5 57.5 -0.82843 57.5 0Z" fill="#CFD4F6"/>
<path d="M80.5 0C80.5 0.82843 79.8284 1.5 79 1.5C78.1716 1.5 77.5 0.82843 77.5 0C77.5 -0.82843 78.1716 -1.5 79 -1.5C79.8284 -1.5 80.5 -0.82843 80.5 0Z" fill="#CFD4F6"/>
<path d="M103.5 0C103.5 0.82843 102.828 1.5 102 1.5C101.172 1.5 100.5 0.82843 100.5 0C100.5 -0.82843 101.172 -1.5 102 -1.5C102.828 -1.5 103.5 -0.82843 103.5 0Z" fill="#CFD4F6"/>
<path d="M126.5 0C126.5 0.82843 125.828 1.5 125 1.5C124.172 1.5 123.5 0.82843 123.5 0C123.5 -0.82843 124.172 -1.5 125 -1.5C125.828 -1.5 126.5 -0.82843 126.5 0Z" fill="#CFD4F6"/>
<path d="M149.5 0C149.5 0.82843 148.828 1.5 148 1.5C147.172 1.5 146.5 0.82843 146.5 0C146.5 -0.82843 147.172 -1.5 148 -1.5C148.828 -1.5 149.5 -0.82843 149.5 0Z" fill="#CFD4F6"/>
<path d="M172.5 0C172.5 0.82843 171.828 1.5 171 1.5C170.172 1.5 169.5 0.82843 169.5 0C169.5 -0.82843 170.172 -1.5 171 -1.5C171.828 -1.5 172.5 -0.82843 172.5 0Z" fill="#CFD4F6"/>
<path d="M195.5 0C195.5 0.82843 194.828 1.5 194 1.5C193.172 1.5 192.5 0.82843 192.5 0C192.5 -0.82843 193.172 -1.5 194 -1.5C194.828 -1.5 195.5 -0.82843 195.5 0Z" fill="#CFD4F6"/>
<path d="M218.5 0C218.5 0.82843 217.828 1.5 217 1.5C216.172 1.5 215.5 0.82843 215.5 0C215.5 -0.82843 216.172 -1.5 217 -1.5C217.828 -1.5 218.5 -0.82843 218.5 0Z" fill="#CFD4F6"/>
<path d="M241.5 0C241.5 0.82843 240.828 1.5 240 1.5C239.172 1.5 238.5 0.82843 238.5 0C238.5 -0.82843 239.172 -1.5 240 -1.5C240.828 -1.5 241.5 -0.82843 241.5 0Z" fill="#CFD4F6"/>
<path d="M264.5 0C264.5 0.82843 263.828 1.5 263 1.5C262.172 1.5 261.5 0.82843 261.5 0C261.5 -0.82843 262.172 -1.5 263 -1.5C263.828 -1.5 264.5 -0.82843 264.5 0Z" fill="#CFD4F6"/>
<path d="M287.5 0C287.5 0.82843 286.828 1.5 286 1.5C285.172 1.5 284.5 0.82843 284.5 0C284.5 -0.82843 285.172 -1.5 286 -1.5C286.828 -1.5 287.5 -0.82843 287.5 0Z" fill="#CFD4F6"/>
<path d="M310.5 0C310.5 0.82843 309.828 1.5 309 1.5C308.172 1.5 307.5 0.82843 307.5 0C307.5 -0.82843 308.172 -1.5 309 -1.5C309.828 -1.5 310.5 -0.82843 310.5 0Z" fill="#CFD4F6"/>
<path d="M333.5 0C333.5 0.82843 332.828 1.5 332 1.5C331.172 1.5 330.5 0.82843 330.5 0C330.5 -0.82843 331.172 -1.5 332 -1.5C332.828 -1.5 333.5 -0.82843 333.5 0Z" fill="#CFD4F6"/>
<path d="M356.5 0C356.5 0.82843 355.828 1.5 355 1.5C354.172 1.5 353.5 0.82843 353.5 0C353.5 -0.82843 354.172 -1.5 355 -1.5C355.828 -1.5 356.5 -0.82843 356.5 0Z" fill="#CFD4F6"/>
<path d="M379.5 0C379.5 0.82843 378.828 1.5 378 1.5C377.172 1.5 376.5 0.82843 376.5 0C376.5 -0.82843 377.172 -1.5 378 -1.5C378.828 -1.5 379.5 -0.82843 379.5 0Z" fill="#CFD4F6"/>
<path d="M402.5 0C402.5 0.82843 401.828 1.5 401 1.5C400.172 1.5 399.5 0.82843 399.5 0C399.5 -0.82843 400.172 -1.5 401 -1.5C401.828 -1.5 402.5 -0.82843 402.5 0Z" fill="#CFD4F6"/>
<path d="M425.5 0C425.5 0.82843 424.828 1.5 424 1.5C423.172 1.5 422.5 0.82843 422.5 0C422.5 -0.82843 423.172 -1.5 424 -1.5C424.828 -1.5 425.5 -0.82843 425.5 0Z" fill="#CFD4F6"/>
<path d="M448.5 0C448.5 0.82843 447.828 1.5 447 1.5C446.172 1.5 445.5 0.82843 445.5 0C445.5 -0.82843 446.172 -1.5 447 -1.5C447.828 -1.5 448.5 -0.82843 448.5 0Z" fill="#CFD4F6"/>
<path d="M471.5 0C471.5 0.82843 470.828 1.5 470 1.5C469.172 1.5 468.5 0.82843 468.5 0C468.5 -0.82843 469.172 -1.5 470 -1.5C470.828 -1.5 471.5 -0.82843 471.5 0Z" fill="#CFD4F6"/>
<path d="M11.5 23C11.5 23.8284 10.8284 24.5 10 24.5C9.17157 24.5 8.5 23.8284 8.5 23C8.5 22.1716 9.17157 21.5 10 21.5C10.8284 21.5 11.5 22.1716 11.5 23Z" fill="#CFD4F6"/>
<path d="M34.5 23C34.5 23.8284 33.8284 24.5 33 24.5C32.1716 24.5 31.5 23.8284 31.5 23C31.5 22.1716 32.1716 21.5 33 21.5C33.8284 21.5 34.5 22.1716 34.5 23Z" fill="#CFD4F6"/>
<path d="M57.5 23C57.5 23.8284 56.8284 24.5 56 24.5C55.1716 24.5 54.5 23.8284 54.5 23C54.5 22.1716 55.1716 21.5 56 21.5C56.8284 21.5 57.5 22.1716 57.5 23Z" fill="#CFD4F6"/>
<path d="M80.5 23C80.5 23.8284 79.8284 24.5 79 24.5C78.1716 24.5 77.5 23.8284 77.5 23C77.5 22.1716 78.1716 21.5 79 21.5C79.8284 21.5 80.5 22.1716 80.5 23Z" fill="#CFD4F6"/>
<path d="M103.5 23C103.5 23.8284 102.828 24.5 102 24.5C101.172 24.5 100.5 23.8284 100.5 23C100.5 22.1716 101.172 21.5 102 21.5C102.828 21.5 103.5 22.1716 103.5 23Z" fill="#CFD4F6"/>
<path d="M126.5 23C126.5 23.8284 125.828 24.5 125 24.5C124.172 24.5 123.5 23.8284 123.5 23C123.5 22.1716 124.172 21.5 125 21.5C125.828 21.5 126.5 22.1716 126.5 23Z" fill="#CFD4F6"/>
<path d="M149.5 23C149.5 23.8284 148.828 24.5 148 24.5C147.172 24.5 146.5 23.8284 146.5 23C146.5 22.1716 147.172 21.5 148 21.5C148.828 21.5 149.5 22.1716 149.5 23Z" fill="#CFD4F6"/>
<path d="M172.5 23C172.5 23.8284 171.828 24.5 171 24.5C170.172 24.5 169.5 23.8284 169.5 23C169.5 22.1716 170.172 21.5 171 21.5C171.828 21.5 172.5 22.1716 172.5 23Z" fill="#CFD4F6"/>
<path d="M195.5 23C195.5 23.8284 194.828 24.5 194 24.5C193.172 24.5 192.5 23.8284 192.5 23C192.5 22.1716 193.172 21.5 194 21.5C194.828 21.5 195.5 22.1716 195.5 23Z" fill="#CFD4F6"/>
<path d="M218.5 23C218.5 23.8284 217.828 24.5 217 24.5C216.172 24.5 215.5 23.8284 215.5 23C215.5 22.1716 216.172 21.5 217 21.5C217.828 21.5 218.5 22.1716 218.5 23Z" fill="#CFD4F6"/>
<path d="M241.5 23C241.5 23.8284 240.828 24.5 240 24.5C239.172 24.5 238.5 23.8284 238.5 23C238.5 22.1716 239.172 21.5 240 21.5C240.828 21.5 241.5 22.1716 241.5 23Z" fill="#CFD4F6"/>
<path d="M264.5 23C264.5 23.8284 263.828 24.5 263 24.5C262.172 24.5 261.5 23.8284 261.5 23C261.5 22.1716 262.172 21.5 263 21.5C263.828 21.5 264.5 22.1716 264.5 23Z" fill="#CFD4F6"/>
<path d="M287.5 23C287.5 23.8284 286.828 24.5 286 24.5C285.172 24.5 284.5 23.8284 284.5 23C284.5 22.1716 285.172 21.5 286 21.5C286.828 21.5 287.5 22.1716 287.5 23Z" fill="#CFD4F6"/>
<path d="M310.5 23C310.5 23.8284 309.828 24.5 309 24.5C308.172 24.5 307.5 23.8284 307.5 23C307.5 22.1716 308.172 21.5 309 21.5C309.828 21.5 310.5 22.1716 310.5 23Z" fill="#CFD4F6"/>
<path d="M333.5 23C333.5 23.8284 332.828 24.5 332 24.5C331.172 24.5 330.5 23.8284 330.5 23C330.5 22.1716 331.172 21.5 332 21.5C332.828 21.5 333.5 22.1716 333.5 23Z" fill="#CFD4F6"/>
<path d="M356.5 23C356.5 23.8284 355.828 24.5 355 24.5C354.172 24.5 353.5 23.8284 353.5 23C353.5 22.1716 354.172 21.5 355 21.5C355.828 21.5 356.5 22.1716 356.5 23Z" fill="#CFD4F6"/>
<path d="M379.5 23C379.5 23.8284 378.828 24.5 378 24.5C377.172 24.5 376.5 23.8284 376.5 23C376.5 22.1716 377.172 21.5 378 21.5C378.828 21.5 379.5 22.1716 379.5 23Z" fill="#CFD4F6"/>
<path d="M402.5 23C402.5 23.8284 401.828 24.5 401 24.5C400.172 24.5 399.5 23.8284 399.5 23C399.5 22.1716 400.172 21.5 401 21.5C401.828 21.5 402.5 22.1716 402.5 23Z" fill="#CFD4F6"/>
<path d="M425.5 23C425.5 23.8284 424.828 24.5 424 24.5C423.172 24.5 422.5 23.8284 422.5 23C422.5 22.1716 423.172 21.5 424 21.5C424.828 21.5 425.5 22.1716 425.5 23Z" fill="#CFD4F6"/>
<path d="M448.5 23C448.5 23.8284 447.828 24.5 447 24.5C446.172 24.5 445.5 23.8284 445.5 23C445.5 22.1716 446.172 21.5 447 21.5C447.828 21.5 448.5 22.1716 448.5 23Z" fill="#CFD4F6"/>
<path d="M471.5 23C471.5 23.8284 470.828 24.5 470 24.5C469.172 24.5 468.5 23.8284 468.5 23C468.5 22.1716 469.172 21.5 470 21.5C470.828 21.5 471.5 22.1716 471.5 23Z" fill="#CFD4F6"/>
<path d="M11.5 46C11.5 46.8284 10.8284 47.5 10 47.5C9.17157 47.5 8.5 46.8284 8.5 46C8.5 45.1716 9.17157 44.5 10 44.5C10.8284 44.5 11.5 45.1716 11.5 46Z" fill="#CFD4F6"/>
<path d="M34.5 46C34.5 46.8284 33.8284 47.5 33 47.5C32.1716 47.5 31.5 46.8284 31.5 46C31.5 45.1716 32.1716 44.5 33 44.5C33.8284 44.5 34.5 45.1716 34.5 46Z" fill="#CFD4F6"/>
<path d="M57.5 46C57.5 46.8284 56.8284 47.5 56 47.5C55.1716 47.5 54.5 46.8284 54.5 46C54.5 45.1716 55.1716 44.5 56 44.5C56.8284 44.5 57.5 45.1716 57.5 46Z" fill="#CFD4F6"/>
<path d="M80.5 46C80.5 46.8284 79.8284 47.5 79 47.5C78.1716 47.5 77.5 46.8284 77.5 46C77.5 45.1716 78.1716 44.5 79 44.5C79.8284 44.5 80.5 45.1716 80.5 46Z" fill="#CFD4F6"/>
<path d="M103.5 46C103.5 46.8284 102.828 47.5 102 47.5C101.172 47.5 100.5 46.8284 100.5 46C100.5 45.1716 101.172 44.5 102 44.5C102.828 44.5 103.5 45.1716 103.5 46Z" fill="#CFD4F6"/>
<path d="M126.5 46C126.5 46.8284 125.828 47.5 125 47.5C124.172 47.5 123.5 46.8284 123.5 46C123.5 45.1716 124.172 44.5 125 44.5C125.828 44.5 126.5 45.1716 126.5 46Z" fill="#CFD4F6"/>
<path d="M149.5 46C149.5 46.8284 148.828 47.5 148 47.5C147.172 47.5 146.5 46.8284 146.5 46C146.5 45.1716 147.172 44.5 148 44.5C148.828 44.5 149.5 45.1716 149.5 46Z" fill="#CFD4F6"/>
<path d="M172.5 46C172.5 46.8284 171.828 47.5 171 47.5C170.172 47.5 169.5 46.8284 169.5 46C169.5 45.1716 170.172 44.5 171 44.5C171.828 44.5 172.5 45.1716 172.5 46Z" fill="#CFD4F6"/>
<path d="M195.5 46C195.5 46.8284 194.828 47.5 194 47.5C193.172 47.5 192.5 46.8284 192.5 46C192.5 45.1716 193.172 44.5 194 44.5C194.828 44.5 195.5 45.1716 195.5 46Z" fill="#CFD4F6"/>
<path d="M218.5 46C218.5 46.8284 217.828 47.5 217 47.5C216.172 47.5 215.5 46.8284 215.5 46C215.5 45.1716 216.172 44.5 217 44.5C217.828 44.5 218.5 45.1716 218.5 46Z" fill="#CFD4F6"/>
<path d="M241.5 46C241.5 46.8284 240.828 47.5 240 47.5C239.172 47.5 238.5 46.8284 238.5 46C238.5 45.1716 239.172 44.5 240 44.5C240.828 44.5 241.5 45.1716 241.5 46Z" fill="#CFD4F6"/>
<path d="M264.5 46C264.5 46.8284 263.828 47.5 263 47.5C262.172 47.5 261.5 46.8284 261.5 46C261.5 45.1716 262.172 44.5 263 44.5C263.828 44.5 264.5 45.1716 264.5 46Z" fill="#CFD4F6"/>
<path d="M287.5 46C287.5 46.8284 286.828 47.5 286 47.5C285.172 47.5 284.5 46.8284 284.5 46C284.5 45.1716 285.172 44.5 286 44.5C286.828 44.5 287.5 45.1716 287.5 46Z" fill="#CFD4F6"/>
<path d="M310.5 46C310.5 46.8284 309.828 47.5 309 47.5C308.172 47.5 307.5 46.8284 307.5 46C307.5 45.1716 308.172 44.5 309 44.5C309.828 44.5 310.5 45.1716 310.5 46Z" fill="#CFD4F6"/>
<path d="M333.5 46C333.5 46.8284 332.828 47.5 332 47.5C331.172 47.5 330.5 46.8284 330.5 46C330.5 45.1716 331.172 44.5 332 44.5C332.828 44.5 333.5 45.1716 333.5 46Z" fill="#CFD4F6"/>
<path d="M356.5 46C356.5 46.8284 355.828 47.5 355 47.5C354.172 47.5 353.5 46.8284 353.5 46C353.5 45.1716 354.172 44.5 355 44.5C355.828 44.5 356.5 45.1716 356.5 46Z" fill="#CFD4F6"/>
<path d="M379.5 46C379.5 46.8284 378.828 47.5 378 47.5C377.172 47.5 376.5 46.8284 376.5 46C376.5 45.1716 377.172 44.5 378 44.5C378.828 44.5 379.5 45.1716 379.5 46Z" fill="#CFD4F6"/>
<path d="M402.5 46C402.5 46.8284 401.828 47.5 401 47.5C400.172 47.5 399.5 46.8284 399.5 46C399.5 45.1716 400.172 44.5 401 44.5C401.828 44.5 402.5 45.1716 402.5 46Z" fill="#CFD4F6"/>
<path d="M425.5 46C425.5 46.8284 424.828 47.5 424 47.5C423.172 47.5 422.5 46.8284 422.5 46C422.5 45.1716 423.172 44.5 424 44.5C424.828 44.5 425.5 45.1716 425.5 46Z" fill="#CFD4F6"/>
<path d="M448.5 46C448.5 46.8284 447.828 47.5 447 47.5C446.172 47.5 445.5 46.8284 445.5 46C445.5 45.1716 446.172 44.5 447 44.5C447.828 44.5 448.5 45.1716 448.5 46Z" fill="#CFD4F6"/>
<path d="M471.5 46C471.5 46.8284 470.828 47.5 470 47.5C469.172 47.5 468.5 46.8284 468.5 46C468.5 45.1716 469.172 44.5 470 44.5C470.828 44.5 471.5 45.1716 471.5 46Z" fill="#CFD4F6"/>
<path d="M11.5 69C11.5 69.8284 10.8284 70.5 10 70.5C9.17157 70.5 8.5 69.8284 8.5 69C8.5 68.1716 9.17157 67.5 10 67.5C10.8284 67.5 11.5 68.1716 11.5 69Z" fill="#CFD4F6"/>
<path d="M34.5 69C34.5 69.8284 33.8284 70.5 33 70.5C32.1716 70.5 31.5 69.8284 31.5 69C31.5 68.1716 32.1716 67.5 33 67.5C33.8284 67.5 34.5 68.1716 34.5 69Z" fill="#CFD4F6"/>
<path d="M57.5 69C57.5 69.8284 56.8284 70.5 56 70.5C55.1716 70.5 54.5 69.8284 54.5 69C54.5 68.1716 55.1716 67.5 56 67.5C56.8284 67.5 57.5 68.1716 57.5 69Z" fill="#CFD4F6"/>
<path d="M80.5 69C80.5 69.8284 79.8284 70.5 79 70.5C78.1716 70.5 77.5 69.8284 77.5 69C77.5 68.1716 78.1716 67.5 79 67.5C79.8284 67.5 80.5 68.1716 80.5 69Z" fill="#CFD4F6"/>
<path d="M103.5 69C103.5 69.8284 102.828 70.5 102 70.5C101.172 70.5 100.5 69.8284 100.5 69C100.5 68.1716 101.172 67.5 102 67.5C102.828 67.5 103.5 68.1716 103.5 69Z" fill="#CFD4F6"/>
<path d="M126.5 69C126.5 69.8284 125.828 70.5 125 70.5C124.172 70.5 123.5 69.8284 123.5 69C123.5 68.1716 124.172 67.5 125 67.5C125.828 67.5 126.5 68.1716 126.5 69Z" fill="#CFD4F6"/>
<path d="M149.5 69C149.5 69.8284 148.828 70.5 148 70.5C147.172 70.5 146.5 69.8284 146.5 69C146.5 68.1716 147.172 67.5 148 67.5C148.828 67.5 149.5 68.1716 149.5 69Z" fill="#CFD4F6"/>
<path d="M172.5 69C172.5 69.8284 171.828 70.5 171 70.5C170.172 70.5 169.5 69.8284 169.5 69C169.5 68.1716 170.172 67.5 171 67.5C171.828 67.5 172.5 68.1716 172.5 69Z" fill="#CFD4F6"/>
<path d="M195.5 69C195.5 69.8284 194.828 70.5 194 70.5C193.172 70.5 192.5 69.8284 192.5 69C192.5 68.1716 193.172 67.5 194 67.5C194.828 67.5 195.5 68.1716 195.5 69Z" fill="#CFD4F6"/>
<path d="M218.5 69C218.5 69.8284 217.828 70.5 217 70.5C216.172 70.5 215.5 69.8284 215.5 69C215.5 68.1716 216.172 67.5 217 67.5C217.828 67.5 218.5 68.1716 218.5 69Z" fill="#CFD4F6"/>
<path d="M241.5 69C241.5 69.8284 240.828 70.5 240 70.5C239.172 70.5 238.5 69.8284 238.5 69C238.5 68.1716 239.172 67.5 240 67.5C240.828 67.5 241.5 68.1716 241.5 69Z" fill="#CFD4F6"/>
<path d="M264.5 69C264.5 69.8284 263.828 70.5 263 70.5C262.172 70.5 261.5 69.8284 261.5 69C261.5 68.1716 262.172 67.5 263 67.5C263.828 67.5 264.5 68.1716 264.5 69Z" fill="#CFD4F6"/>
<path d="M287.5 69C287.5 69.8284 286.828 70.5 286 70.5C285.172 70.5 284.5 69.8284 284.5 69C284.5 68.1716 285.172 67.5 286 67.5C286.828 67.5 287.5 68.1716 287.5 69Z" fill="#CFD4F6"/>
<path d="M310.5 69C310.5 69.8284 309.828 70.5 309 70.5C308.172 70.5 307.5 69.8284 307.5 69C307.5 68.1716 308.172 67.5 309 67.5C309.828 67.5 310.5 68.1716 310.5 69Z" fill="#CFD4F6"/>
<path d="M333.5 69C333.5 69.8284 332.828 70.5 332 70.5C331.172 70.5 330.5 69.8284 330.5 69C330.5 68.1716 331.172 67.5 332 67.5C332.828 67.5 333.5 68.1716 333.5 69Z" fill="#CFD4F6"/>
<path d="M356.5 69C356.5 69.8284 355.828 70.5 355 70.5C354.172 70.5 353.5 69.8284 353.5 69C353.5 68.1716 354.172 67.5 355 67.5C355.828 67.5 356.5 68.1716 356.5 69Z" fill="#CFD4F6"/>
<path d="M379.5 69C379.5 69.8284 378.828 70.5 378 70.5C377.172 70.5 376.5 69.8284 376.5 69C376.5 68.1716 377.172 67.5 378 67.5C378.828 67.5 379.5 68.1716 379.5 69Z" fill="#CFD4F6"/>
<path d="M402.5 69C402.5 69.8284 401.828 70.5 401 70.5C400.172 70.5 399.5 69.8284 399.5 69C399.5 68.1716 400.172 67.5 401 67.5C401.828 67.5 402.5 68.1716 402.5 69Z" fill="#CFD4F6"/>
<path d="M425.5 69C425.5 69.8284 424.828 70.5 424 70.5C423.172 70.5 422.5 69.8284 422.5 69C422.5 68.1716 423.172 67.5 424 67.5C424.828 67.5 425.5 68.1716 425.5 69Z" fill="#CFD4F6"/>
<path d="M448.5 69C448.5 69.8284 447.828 70.5 447 70.5C446.172 70.5 445.5 69.8284 445.5 69C445.5 68.1716 446.172 67.5 447 67.5C447.828 67.5 448.5 68.1716 448.5 69Z" fill="#CFD4F6"/>
<path d="M471.5 69C471.5 69.8284 470.828 70.5 470 70.5C469.172 70.5 468.5 69.8284 468.5 69C468.5 68.1716 469.172 67.5 470 67.5C470.828 67.5 471.5 68.1716 471.5 69Z" fill="#CFD4F6"/>
<path d="M11.5 92C11.5 92.8284 10.8284 93.5 10 93.5C9.17157 93.5 8.5 92.8284 8.5 92C8.5 91.1716 9.17157 90.5 10 90.5C10.8284 90.5 11.5 91.1716 11.5 92Z" fill="#CFD4F6"/>
<path d="M34.5 92C34.5 92.8284 33.8284 93.5 33 93.5C32.1716 93.5 31.5 92.8284 31.5 92C31.5 91.1716 32.1716 90.5 33 90.5C33.8284 90.5 34.5 91.1716 34.5 92Z" fill="#CFD4F6"/>
<path d="M57.5 92C57.5 92.8284 56.8284 93.5 56 93.5C55.1716 93.5 54.5 92.8284 54.5 92C54.5 91.1716 55.1716 90.5 56 90.5C56.8284 90.5 57.5 91.1716 57.5 92Z" fill="#CFD4F6"/>
<path d="M80.5 92C80.5 92.8284 79.8284 93.5 79 93.5C78.1716 93.5 77.5 92.8284 77.5 92C77.5 91.1716 78.1716 90.5 79 90.5C79.8284 90.5 80.5 91.1716 80.5 92Z" fill="#CFD4F6"/>
<path d="M103.5 92C103.5 92.8284 102.828 93.5 102 93.5C101.172 93.5 100.5 92.8284 100.5 92C100.5 91.1716 101.172 90.5 102 90.5C102.828 90.5 103.5 91.1716 103.5 92Z" fill="#CFD4F6"/>
<path d="M126.5 92C126.5 92.8284 125.828 93.5 125 93.5C124.172 93.5 123.5 92.8284 123.5 92C123.5 91.1716 124.172 90.5 125 90.5C125.828 90.5 126.5 91.1716 126.5 92Z" fill="#CFD4F6"/>
<path d="M149.5 92C149.5 92.8284 148.828 93.5 148 93.5C147.172 93.5 146.5 92.8284 146.5 92C146.5 91.1716 147.172 90.5 148 90.5C148.828 90.5 149.5 91.1716 149.5 92Z" fill="#CFD4F6"/>
<path d="M172.5 92C172.5 92.8284 171.828 93.5 171 93.5C170.172 93.5 169.5 92.8284 169.5 92C169.5 91.1716 170.172 90.5 171 90.5C171.828 90.5 172.5 91.1716 172.5 92Z" fill="#CFD4F6"/>
<path d="M195.5 92C195.5 92.8284 194.828 93.5 194 93.5C193.172 93.5 192.5 92.8284 192.5 92C192.5 91.1716 193.172 90.5 194 90.5C194.828 90.5 195.5 91.1716 195.5 92Z" fill="#CFD4F6"/>
<path d="M218.5 92C218.5 92.8284 217.828 93.5 217 93.5C216.172 93.5 215.5 92.8284 215.5 92C215.5 91.1716 216.172 90.5 217 90.5C217.828 90.5 218.5 91.1716 218.5 92Z" fill="#CFD4F6"/>
<path d="M241.5 92C241.5 92.8284 240.828 93.5 240 93.5C239.172 93.5 238.5 92.8284 238.5 92C238.5 91.1716 239.172 90.5 240 90.5C240.828 90.5 241.5 91.1716 241.5 92Z" fill="#CFD4F6"/>
<path d="M264.5 92C264.5 92.8284 263.828 93.5 263 93.5C262.172 93.5 261.5 92.8284 261.5 92C261.5 91.1716 262.172 90.5 263 90.5C263.828 90.5 264.5 91.1716 264.5 92Z" fill="#CFD4F6"/>
<path d="M287.5 92C287.5 92.8284 286.828 93.5 286 93.5C285.172 93.5 284.5 92.8284 284.5 92C284.5 91.1716 285.172 90.5 286 90.5C286.828 90.5 287.5 91.1716 287.5 92Z" fill="#CFD4F6"/>
<path d="M310.5 92C310.5 92.8284 309.828 93.5 309 93.5C308.172 93.5 307.5 92.8284 307.5 92C307.5 91.1716 308.172 90.5 309 90.5C309.828 90.5 310.5 91.1716 310.5 92Z" fill="#CFD4F6"/>
<path d="M333.5 92C333.5 92.8284 332.828 93.5 332 93.5C331.172 93.5 330.5 92.8284 330.5 92C330.5 91.1716 331.172 90.5 332 90.5C332.828 90.5 333.5 91.1716 333.5 92Z" fill="#CFD4F6"/>
<path d="M356.5 92C356.5 92.8284 355.828 93.5 355 93.5C354.172 93.5 353.5 92.8284 353.5 92C353.5 91.1716 354.172 90.5 355 90.5C355.828 90.5 356.5 91.1716 356.5 92Z" fill="#CFD4F6"/>
<path d="M379.5 92C379.5 92.8284 378.828 93.5 378 93.5C377.172 93.5 376.5 92.8284 376.5 92C376.5 91.1716 377.172 90.5 378 90.5C378.828 90.5 379.5 91.1716 379.5 92Z" fill="#CFD4F6"/>
<path d="M402.5 92C402.5 92.8284 401.828 93.5 401 93.5C400.172 93.5 399.5 92.8284 399.5 92C399.5 91.1716 400.172 90.5 401 90.5C401.828 90.5 402.5 91.1716 402.5 92Z" fill="#CFD4F6"/>
<path d="M425.5 92C425.5 92.8284 424.828 93.5 424 93.5C423.172 93.5 422.5 92.8284 422.5 92C422.5 91.1716 423.172 90.5 424 90.5C424.828 90.5 425.5 91.1716 425.5 92Z" fill="#CFD4F6"/>
<path d="M448.5 92C448.5 92.8284 447.828 93.5 447 93.5C446.172 93.5 445.5 92.8284 445.5 92C445.5 91.1716 446.172 90.5 447 90.5C447.828 90.5 448.5 91.1716 448.5 92Z" fill="#CFD4F6"/>
<path d="M471.5 92C471.5 92.8284 470.828 93.5 470 93.5C469.172 93.5 468.5 92.8284 468.5 92C468.5 91.1716 469.172 90.5 470 90.5C470.828 90.5 471.5 91.1716 471.5 92Z" fill="#CFD4F6"/>
<path d="M11.5 115C11.5 115.828 10.8284 116.5 10 116.5C9.17157 116.5 8.5 115.828 8.5 115C8.5 114.172 9.17157 113.5 10 113.5C10.8284 113.5 11.5 114.172 11.5 115Z" fill="#CFD4F6"/>
<path d="M34.5 115C34.5 115.828 33.8284 116.5 33 116.5C32.1716 116.5 31.5 115.828 31.5 115C31.5 114.172 32.1716 113.5 33 113.5C33.8284 113.5 34.5 114.172 34.5 115Z" fill="#CFD4F6"/>
<path d="M57.5 115C57.5 115.828 56.8284 116.5 56 116.5C55.1716 116.5 54.5 115.828 54.5 115C54.5 114.172 55.1716 113.5 56 113.5C56.8284 113.5 57.5 114.172 57.5 115Z" fill="#CFD4F6"/>
<path d="M80.5 115C80.5 115.828 79.8284 116.5 79 116.5C78.1716 116.5 77.5 115.828 77.5 115C77.5 114.172 78.1716 113.5 79 113.5C79.8284 113.5 80.5 114.172 80.5 115Z" fill="#CFD4F6"/>
<path d="M103.5 115C103.5 115.828 102.828 116.5 102 116.5C101.172 116.5 100.5 115.828 100.5 115C100.5 114.172 101.172 113.5 102 113.5C102.828 113.5 103.5 114.172 103.5 115Z" fill="#CFD4F6"/>
<path d="M126.5 115C126.5 115.828 125.828 116.5 125 116.5C124.172 116.5 123.5 115.828 123.5 115C123.5 114.172 124.172 113.5 125 113.5C125.828 113.5 126.5 114.172 126.5 115Z" fill="#CFD4F6"/>
<path d="M149.5 115C149.5 115.828 148.828 116.5 148 116.5C147.172 116.5 146.5 115.828 146.5 115C146.5 114.172 147.172 113.5 148 113.5C148.828 113.5 149.5 114.172 149.5 115Z" fill="#CFD4F6"/>
<path d="M172.5 115C172.5 115.828 171.828 116.5 171 116.5C170.172 116.5 169.5 115.828 169.5 115C169.5 114.172 170.172 113.5 171 113.5C171.828 113.5 172.5 114.172 172.5 115Z" fill="#CFD4F6"/>
<path d="M195.5 115C195.5 115.828 194.828 116.5 194 116.5C193.172 116.5 192.5 115.828 192.5 115C192.5 114.172 193.172 113.5 194 113.5C194.828 113.5 195.5 114.172 195.5 115Z" fill="#CFD4F6"/>
<path d="M218.5 115C218.5 115.828 217.828 116.5 217 116.5C216.172 116.5 215.5 115.828 215.5 115C215.5 114.172 216.172 113.5 217 113.5C217.828 113.5 218.5 114.172 218.5 115Z" fill="#CFD4F6"/>
<path d="M241.5 115C241.5 115.828 240.828 116.5 240 116.5C239.172 116.5 238.5 115.828 238.5 115C238.5 114.172 239.172 113.5 240 113.5C240.828 113.5 241.5 114.172 241.5 115Z" fill="#CFD4F6"/>
<path d="M264.5 115C264.5 115.828 263.828 116.5 263 116.5C262.172 116.5 261.5 115.828 261.5 115C261.5 114.172 262.172 113.5 263 113.5C263.828 113.5 264.5 114.172 264.5 115Z" fill="#CFD4F6"/>
<path d="M287.5 115C287.5 115.828 286.828 116.5 286 116.5C285.172 116.5 284.5 115.828 284.5 115C284.5 114.172 285.172 113.5 286 113.5C286.828 113.5 287.5 114.172 287.5 115Z" fill="#CFD4F6"/>
<path d="M310.5 115C310.5 115.828 309.828 116.5 309 116.5C308.172 116.5 307.5 115.828 307.5 115C307.5 114.172 308.172 113.5 309 113.5C309.828 113.5 310.5 114.172 310.5 115Z" fill="#CFD4F6"/>
<path d="M333.5 115C333.5 115.828 332.828 116.5 332 116.5C331.172 116.5 330.5 115.828 330.5 115C330.5 114.172 331.172 113.5 332 113.5C332.828 113.5 333.5 114.172 333.5 115Z" fill="#CFD4F6"/>
<path d="M356.5 115C356.5 115.828 355.828 116.5 355 116.5C354.172 116.5 353.5 115.828 353.5 115C353.5 114.172 354.172 113.5 355 113.5C355.828 113.5 356.5 114.172 356.5 115Z" fill="#CFD4F6"/>
<path d="M379.5 115C379.5 115.828 378.828 116.5 378 116.5C377.172 116.5 376.5 115.828 376.5 115C376.5 114.172 377.172 113.5 378 113.5C378.828 113.5 379.5 114.172 379.5 115Z" fill="#CFD4F6"/>
<path d="M402.5 115C402.5 115.828 401.828 116.5 401 116.5C400.172 116.5 399.5 115.828 399.5 115C399.5 114.172 400.172 113.5 401 113.5C401.828 113.5 402.5 114.172 402.5 115Z" fill="#CFD4F6"/>
<path d="M425.5 115C425.5 115.828 424.828 116.5 424 116.5C423.172 116.5 422.5 115.828 422.5 115C422.5 114.172 423.172 113.5 424 113.5C424.828 113.5 425.5 114.172 425.5 115Z" fill="#CFD4F6"/>
<path d="M448.5 115C448.5 115.828 447.828 116.5 447 116.5C446.172 116.5 445.5 115.828 445.5 115C445.5 114.172 446.172 113.5 447 113.5C447.828 113.5 448.5 114.172 448.5 115Z" fill="#CFD4F6"/>
<path d="M471.5 115C471.5 115.828 470.828 116.5 470 116.5C469.172 116.5 468.5 115.828 468.5 115C468.5 114.172 469.172 113.5 470 113.5C470.828 113.5 471.5 114.172 471.5 115Z" fill="#CFD4F6"/>
<path d="M11.5 138C11.5 138.828 10.8284 139.5 10 139.5C9.17157 139.5 8.5 138.828 8.5 138C8.5 137.172 9.17157 136.5 10 136.5C10.8284 136.5 11.5 137.172 11.5 138Z" fill="#CFD4F6"/>
<path d="M34.5 138C34.5 138.828 33.8284 139.5 33 139.5C32.1716 139.5 31.5 138.828 31.5 138C31.5 137.172 32.1716 136.5 33 136.5C33.8284 136.5 34.5 137.172 34.5 138Z" fill="#CFD4F6"/>
<path d="M57.5 138C57.5 138.828 56.8284 139.5 56 139.5C55.1716 139.5 54.5 138.828 54.5 138C54.5 137.172 55.1716 136.5 56 136.5C56.8284 136.5 57.5 137.172 57.5 138Z" fill="#CFD4F6"/>
<path d="M80.5 138C80.5 138.828 79.8284 139.5 79 139.5C78.1716 139.5 77.5 138.828 77.5 138C77.5 137.172 78.1716 136.5 79 136.5C79.8284 136.5 80.5 137.172 80.5 138Z" fill="#CFD4F6"/>
<path d="M103.5 138C103.5 138.828 102.828 139.5 102 139.5C101.172 139.5 100.5 138.828 100.5 138C100.5 137.172 101.172 136.5 102 136.5C102.828 136.5 103.5 137.172 103.5 138Z" fill="#CFD4F6"/>
<path d="M126.5 138C126.5 138.828 125.828 139.5 125 139.5C124.172 139.5 123.5 138.828 123.5 138C123.5 137.172 124.172 136.5 125 136.5C125.828 136.5 126.5 137.172 126.5 138Z" fill="#CFD4F6"/>
<path d="M149.5 138C149.5 138.828 148.828 139.5 148 139.5C147.172 139.5 146.5 138.828 146.5 138C146.5 137.172 147.172 136.5 148 136.5C148.828 136.5 149.5 137.172 149.5 138Z" fill="#CFD4F6"/>
<path d="M172.5 138C172.5 138.828 171.828 139.5 171 139.5C170.172 139.5 169.5 138.828 169.5 138C169.5 137.172 170.172 136.5 171 136.5C171.828 136.5 172.5 137.172 172.5 138Z" fill="#CFD4F6"/>
<path d="M195.5 138C195.5 138.828 194.828 139.5 194 139.5C193.172 139.5 192.5 138.828 192.5 138C192.5 137.172 193.172 136.5 194 136.5C194.828 136.5 195.5 137.172 195.5 138Z" fill="#CFD4F6"/>
<path d="M218.5 138C218.5 138.828 217.828 139.5 217 139.5C216.172 139.5 215.5 138.828 215.5 138C215.5 137.172 216.172 136.5 217 136.5C217.828 136.5 218.5 137.172 218.5 138Z" fill="#CFD4F6"/>
<path d="M241.5 138C241.5 138.828 240.828 139.5 240 139.5C239.172 139.5 238.5 138.828 238.5 138C238.5 137.172 239.172 136.5 240 136.5C240.828 136.5 241.5 137.172 241.5 138Z" fill="#CFD4F6"/>
<path d="M264.5 138C264.5 138.828 263.828 139.5 263 139.5C262.172 139.5 261.5 138.828 261.5 138C261.5 137.172 262.172 136.5 263 136.5C263.828 136.5 264.5 137.172 264.5 138Z" fill="#CFD4F6"/>
<path d="M287.5 138C287.5 138.828 286.828 139.5 286 139.5C285.172 139.5 284.5 138.828 284.5 138C284.5 137.172 285.172 136.5 286 136.5C286.828 136.5 287.5 137.172 287.5 138Z" fill="#CFD4F6"/>
<path d="M310.5 138C310.5 138.828 309.828 139.5 309 139.5C308.172 139.5 307.5 138.828 307.5 138C307.5 137.172 308.172 136.5 309 136.5C309.828 136.5 310.5 137.172 310.5 138Z" fill="#CFD4F6"/>
<path d="M333.5 138C333.5 138.828 332.828 139.5 332 139.5C331.172 139.5 330.5 138.828 330.5 138C330.5 137.172 331.172 136.5 332 136.5C332.828 136.5 333.5 137.172 333.5 138Z" fill="#CFD4F6"/>
<path d="M356.5 138C356.5 138.828 355.828 139.5 355 139.5C354.172 139.5 353.5 138.828 353.5 138C353.5 137.172 354.172 136.5 355 136.5C355.828 136.5 356.5 137.172 356.5 138Z" fill="#CFD4F6"/>
<path d="M379.5 138C379.5 138.828 378.828 139.5 378 139.5C377.172 139.5 376.5 138.828 376.5 138C376.5 137.172 377.172 136.5 378 136.5C378.828 136.5 379.5 137.172 379.5 138Z" fill="#CFD4F6"/>
<path d="M402.5 138C402.5 138.828 401.828 139.5 401 139.5C400.172 139.5 399.5 138.828 399.5 138C399.5 137.172 400.172 136.5 401 136.5C401.828 136.5 402.5 137.172 402.5 138Z" fill="#CFD4F6"/>
<path d="M425.5 138C425.5 138.828 424.828 139.5 424 139.5C423.172 139.5 422.5 138.828 422.5 138C422.5 137.172 423.172 136.5 424 136.5C424.828 136.5 425.5 137.172 425.5 138Z" fill="#CFD4F6"/>
<path d="M448.5 138C448.5 138.828 447.828 139.5 447 139.5C446.172 139.5 445.5 138.828 445.5 138C445.5 137.172 446.172 136.5 447 136.5C447.828 136.5 448.5 137.172 448.5 138Z" fill="#CFD4F6"/>
<path d="M471.5 138C471.5 138.828 470.828 139.5 470 139.5C469.172 139.5 468.5 138.828 468.5 138C468.5 137.172 469.172 136.5 470 136.5C470.828 136.5 471.5 137.172 471.5 138Z" fill="#CFD4F6"/>
<path d="M11.5 161C11.5 161.828 10.8284 162.5 10 162.5C9.17157 162.5 8.5 161.828 8.5 161C8.5 160.172 9.17157 159.5 10 159.5C10.8284 159.5 11.5 160.172 11.5 161Z" fill="#CFD4F6"/>
<path d="M34.5 161C34.5 161.828 33.8284 162.5 33 162.5C32.1716 162.5 31.5 161.828 31.5 161C31.5 160.172 32.1716 159.5 33 159.5C33.8284 159.5 34.5 160.172 34.5 161Z" fill="#CFD4F6"/>
<path d="M57.5 161C57.5 161.828 56.8284 162.5 56 162.5C55.1716 162.5 54.5 161.828 54.5 161C54.5 160.172 55.1716 159.5 56 159.5C56.8284 159.5 57.5 160.172 57.5 161Z" fill="#CFD4F6"/>
<path d="M80.5 161C80.5 161.828 79.8284 162.5 79 162.5C78.1716 162.5 77.5 161.828 77.5 161C77.5 160.172 78.1716 159.5 79 159.5C79.8284 159.5 80.5 160.172 80.5 161Z" fill="#CFD4F6"/>
<path d="M103.5 161C103.5 161.828 102.828 162.5 102 162.5C101.172 162.5 100.5 161.828 100.5 161C100.5 160.172 101.172 159.5 102 159.5C102.828 159.5 103.5 160.172 103.5 161Z" fill="#CFD4F6"/>
<path d="M126.5 161C126.5 161.828 125.828 162.5 125 162.5C124.172 162.5 123.5 161.828 123.5 161C123.5 160.172 124.172 159.5 125 159.5C125.828 159.5 126.5 160.172 126.5 161Z" fill="#CFD4F6"/>
<path d="M149.5 161C149.5 161.828 148.828 162.5 148 162.5C147.172 162.5 146.5 161.828 146.5 161C146.5 160.172 147.172 159.5 148 159.5C148.828 159.5 149.5 160.172 149.5 161Z" fill="#CFD4F6"/>
<path d="M172.5 161C172.5 161.828 171.828 162.5 171 162.5C170.172 162.5 169.5 161.828 169.5 161C169.5 160.172 170.172 159.5 171 159.5C171.828 159.5 172.5 160.172 172.5 161Z" fill="#CFD4F6"/>
<path d="M195.5 161C195.5 161.828 194.828 162.5 194 162.5C193.172 162.5 192.5 161.828 192.5 161C192.5 160.172 193.172 159.5 194 159.5C194.828 159.5 195.5 160.172 195.5 161Z" fill="#CFD4F6"/>
<path d="M218.5 161C218.5 161.828 217.828 162.5 217 162.5C216.172 162.5 215.5 161.828 215.5 161C215.5 160.172 216.172 159.5 217 159.5C217.828 159.5 218.5 160.172 218.5 161Z" fill="#CFD4F6"/>
<path d="M241.5 161C241.5 161.828 240.828 162.5 240 162.5C239.172 162.5 238.5 161.828 238.5 161C238.5 160.172 239.172 159.5 240 159.5C240.828 159.5 241.5 160.172 241.5 161Z" fill="#CFD4F6"/>
<path d="M264.5 161C264.5 161.828 263.828 162.5 263 162.5C262.172 162.5 261.5 161.828 261.5 161C261.5 160.172 262.172 159.5 263 159.5C263.828 159.5 264.5 160.172 264.5 161Z" fill="#CFD4F6"/>
<path d="M287.5 161C287.5 161.828 286.828 162.5 286 162.5C285.172 162.5 284.5 161.828 284.5 161C284.5 160.172 285.172 159.5 286 159.5C286.828 159.5 287.5 160.172 287.5 161Z" fill="#CFD4F6"/>
<path d="M310.5 161C310.5 161.828 309.828 162.5 309 162.5C308.172 162.5 307.5 161.828 307.5 161C307.5 160.172 308.172 159.5 309 159.5C309.828 159.5 310.5 160.172 310.5 161Z" fill="#CFD4F6"/>
<path d="M333.5 161C333.5 161.828 332.828 162.5 332 162.5C331.172 162.5 330.5 161.828 330.5 161C330.5 160.172 331.172 159.5 332 159.5C332.828 159.5 333.5 160.172 333.5 161Z" fill="#CFD4F6"/>
<path d="M356.5 161C356.5 161.828 355.828 162.5 355 162.5C354.172 162.5 353.5 161.828 353.5 161C353.5 160.172 354.172 159.5 355 159.5C355.828 159.5 356.5 160.172 356.5 161Z" fill="#CFD4F6"/>
<path d="M379.5 161C379.5 161.828 378.828 162.5 378 162.5C377.172 162.5 376.5 161.828 376.5 161C376.5 160.172 377.172 159.5 378 159.5C378.828 159.5 379.5 160.172 379.5 161Z" fill="#CFD4F6"/>
<path d="M402.5 161C402.5 161.828 401.828 162.5 401 162.5C400.172 162.5 399.5 161.828 399.5 161C399.5 160.172 400.172 159.5 401 159.5C401.828 159.5 402.5 160.172 402.5 161Z" fill="#CFD4F6"/>
<path d="M425.5 161C425.5 161.828 424.828 162.5 424 162.5C423.172 162.5 422.5 161.828 422.5 161C422.5 160.172 423.172 159.5 424 159.5C424.828 159.5 425.5 160.172 425.5 161Z" fill="#CFD4F6"/>
<path d="M448.5 161C448.5 161.828 447.828 162.5 447 162.5C446.172 162.5 445.5 161.828 445.5 161C445.5 160.172 446.172 159.5 447 159.5C447.828 159.5 448.5 160.172 448.5 161Z" fill="#CFD4F6"/>
<path d="M471.5 161C471.5 161.828 470.828 162.5 470 162.5C469.172 162.5 468.5 161.828 468.5 161C468.5 160.172 469.172 159.5 470 159.5C470.828 159.5 471.5 160.172 471.5 161Z" fill="#CFD4F6"/>
<path d="M11.5 184C11.5 184.828 10.8284 185.5 10 185.5C9.17157 185.5 8.5 184.828 8.5 184C8.5 183.172 9.17157 182.5 10 182.5C10.8284 182.5 11.5 183.172 11.5 184Z" fill="#CFD4F6"/>
<path d="M34.5 184C34.5 184.828 33.8284 185.5 33 185.5C32.1716 185.5 31.5 184.828 31.5 184C31.5 183.172 32.1716 182.5 33 182.5C33.8284 182.5 34.5 183.172 34.5 184Z" fill="#CFD4F6"/>
<path d="M57.5 184C57.5 184.828 56.8284 185.5 56 185.5C55.1716 185.5 54.5 184.828 54.5 184C54.5 183.172 55.1716 182.5 56 182.5C56.8284 182.5 57.5 183.172 57.5 184Z" fill="#CFD4F6"/>
<path d="M80.5 184C80.5 184.828 79.8284 185.5 79 185.5C78.1716 185.5 77.5 184.828 77.5 184C77.5 183.172 78.1716 182.5 79 182.5C79.8284 182.5 80.5 183.172 80.5 184Z" fill="#CFD4F6"/>
<path d="M103.5 184C103.5 184.828 102.828 185.5 102 185.5C101.172 185.5 100.5 184.828 100.5 184C100.5 183.172 101.172 182.5 102 182.5C102.828 182.5 103.5 183.172 103.5 184Z" fill="#CFD4F6"/>
<path d="M126.5 184C126.5 184.828 125.828 185.5 125 185.5C124.172 185.5 123.5 184.828 123.5 184C123.5 183.172 124.172 182.5 125 182.5C125.828 182.5 126.5 183.172 126.5 184Z" fill="#CFD4F6"/>
<path d="M149.5 184C149.5 184.828 148.828 185.5 148 185.5C147.172 185.5 146.5 184.828 146.5 184C146.5 183.172 147.172 182.5 148 182.5C148.828 182.5 149.5 183.172 149.5 184Z" fill="#CFD4F6"/>
<path d="M172.5 184C172.5 184.828 171.828 185.5 171 185.5C170.172 185.5 169.5 184.828 169.5 184C169.5 183.172 170.172 182.5 171 182.5C171.828 182.5 172.5 183.172 172.5 184Z" fill="#CFD4F6"/>
<path d="M195.5 184C195.5 184.828 194.828 185.5 194 185.5C193.172 185.5 192.5 184.828 192.5 184C192.5 183.172 193.172 182.5 194 182.5C194.828 182.5 195.5 183.172 195.5 184Z" fill="#CFD4F6"/>
<path d="M218.5 184C218.5 184.828 217.828 185.5 217 185.5C216.172 185.5 215.5 184.828 215.5 184C215.5 183.172 216.172 182.5 217 182.5C217.828 182.5 218.5 183.172 218.5 184Z" fill="#CFD4F6"/>
<path d="M241.5 184C241.5 184.828 240.828 185.5 240 185.5C239.172 185.5 238.5 184.828 238.5 184C238.5 183.172 239.172 182.5 240 182.5C240.828 182.5 241.5 183.172 241.5 184Z" fill="#CFD4F6"/>
<path d="M264.5 184C264.5 184.828 263.828 185.5 263 185.5C262.172 185.5 261.5 184.828 261.5 184C261.5 183.172 262.172 182.5 263 182.5C263.828 182.5 264.5 183.172 264.5 184Z" fill="#CFD4F6"/>
<path d="M287.5 184C287.5 184.828 286.828 185.5 286 185.5C285.172 185.5 284.5 184.828 284.5 184C284.5 183.172 285.172 182.5 286 182.5C286.828 182.5 287.5 183.172 287.5 184Z" fill="#CFD4F6"/>
<path d="M310.5 184C310.5 184.828 309.828 185.5 309 185.5C308.172 185.5 307.5 184.828 307.5 184C307.5 183.172 308.172 182.5 309 182.5C309.828 182.5 310.5 183.172 310.5 184Z" fill="#CFD4F6"/>
<path d="M333.5 184C333.5 184.828 332.828 185.5 332 185.5C331.172 185.5 330.5 184.828 330.5 184C330.5 183.172 331.172 182.5 332 182.5C332.828 182.5 333.5 183.172 333.5 184Z" fill="#CFD4F6"/>
<path d="M356.5 184C356.5 184.828 355.828 185.5 355 185.5C354.172 185.5 353.5 184.828 353.5 184C353.5 183.172 354.172 182.5 355 182.5C355.828 182.5 356.5 183.172 356.5 184Z" fill="#CFD4F6"/>
<path d="M379.5 184C379.5 184.828 378.828 185.5 378 185.5C377.172 185.5 376.5 184.828 376.5 184C376.5 183.172 377.172 182.5 378 182.5C378.828 182.5 379.5 183.172 379.5 184Z" fill="#CFD4F6"/>
<path d="M402.5 184C402.5 184.828 401.828 185.5 401 185.5C400.172 185.5 399.5 184.828 399.5 184C399.5 183.172 400.172 182.5 401 182.5C401.828 182.5 402.5 183.172 402.5 184Z" fill="#CFD4F6"/>
<path d="M425.5 184C425.5 184.828 424.828 185.5 424 185.5C423.172 185.5 422.5 184.828 422.5 184C422.5 183.172 423.172 182.5 424 182.5C424.828 182.5 425.5 183.172 425.5 184Z" fill="#CFD4F6"/>
<path d="M448.5 184C448.5 184.828 447.828 185.5 447 185.5C446.172 185.5 445.5 184.828 445.5 184C445.5 183.172 446.172 182.5 447 182.5C447.828 182.5 448.5 183.172 448.5 184Z" fill="#CFD4F6"/>
<path d="M471.5 184C471.5 184.828 470.828 185.5 470 185.5C469.172 185.5 468.5 184.828 468.5 184C468.5 183.172 469.172 182.5 470 182.5C470.828 182.5 471.5 183.172 471.5 184Z" fill="#CFD4F6"/>
<path d="M11.5 207C11.5 207.828 10.8284 208.5 10 208.5C9.17157 208.5 8.5 207.828 8.5 207C8.5 206.172 9.17157 205.5 10 205.5C10.8284 205.5 11.5 206.172 11.5 207Z" fill="#CFD4F6"/>
<path d="M34.5 207C34.5 207.828 33.8284 208.5 33 208.5C32.1716 208.5 31.5 207.828 31.5 207C31.5 206.172 32.1716 205.5 33 205.5C33.8284 205.5 34.5 206.172 34.5 207Z" fill="#CFD4F6"/>
<path d="M57.5 207C57.5 207.828 56.8284 208.5 56 208.5C55.1716 208.5 54.5 207.828 54.5 207C54.5 206.172 55.1716 205.5 56 205.5C56.8284 205.5 57.5 206.172 57.5 207Z" fill="#CFD4F6"/>
<path d="M80.5 207C80.5 207.828 79.8284 208.5 79 208.5C78.1716 208.5 77.5 207.828 77.5 207C77.5 206.172 78.1716 205.5 79 205.5C79.8284 205.5 80.5 206.172 80.5 207Z" fill="#CFD4F6"/>
<path d="M103.5 207C103.5 207.828 102.828 208.5 102 208.5C101.172 208.5 100.5 207.828 100.5 207C100.5 206.172 101.172 205.5 102 205.5C102.828 205.5 103.5 206.172 103.5 207Z" fill="#CFD4F6"/>
<path d="M126.5 207C126.5 207.828 125.828 208.5 125 208.5C124.172 208.5 123.5 207.828 123.5 207C123.5 206.172 124.172 205.5 125 205.5C125.828 205.5 126.5 206.172 126.5 207Z" fill="#CFD4F6"/>
<path d="M149.5 207C149.5 207.828 148.828 208.5 148 208.5C147.172 208.5 146.5 207.828 146.5 207C146.5 206.172 147.172 205.5 148 205.5C148.828 205.5 149.5 206.172 149.5 207Z" fill="#CFD4F6"/>
<path d="M172.5 207C172.5 207.828 171.828 208.5 171 208.5C170.172 208.5 169.5 207.828 169.5 207C169.5 206.172 170.172 205.5 171 205.5C171.828 205.5 172.5 206.172 172.5 207Z" fill="#CFD4F6"/>
<path d="M195.5 207C195.5 207.828 194.828 208.5 194 208.5C193.172 208.5 192.5 207.828 192.5 207C192.5 206.172 193.172 205.5 194 205.5C194.828 205.5 195.5 206.172 195.5 207Z" fill="#CFD4F6"/>
<path d="M218.5 207C218.5 207.828 217.828 208.5 217 208.5C216.172 208.5 215.5 207.828 215.5 207C215.5 206.172 216.172 205.5 217 205.5C217.828 205.5 218.5 206.172 218.5 207Z" fill="#CFD4F6"/>
<path d="M241.5 207C241.5 207.828 240.828 208.5 240 208.5C239.172 208.5 238.5 207.828 238.5 207C238.5 206.172 239.172 205.5 240 205.5C240.828 205.5 241.5 206.172 241.5 207Z" fill="#CFD4F6"/>
<path d="M264.5 207C264.5 207.828 263.828 208.5 263 208.5C262.172 208.5 261.5 207.828 261.5 207C261.5 206.172 262.172 205.5 263 205.5C263.828 205.5 264.5 206.172 264.5 207Z" fill="#CFD4F6"/>
<path d="M287.5 207C287.5 207.828 286.828 208.5 286 208.5C285.172 208.5 284.5 207.828 284.5 207C284.5 206.172 285.172 205.5 286 205.5C286.828 205.5 287.5 206.172 287.5 207Z" fill="#CFD4F6"/>
<path d="M310.5 207C310.5 207.828 309.828 208.5 309 208.5C308.172 208.5 307.5 207.828 307.5 207C307.5 206.172 308.172 205.5 309 205.5C309.828 205.5 310.5 206.172 310.5 207Z" fill="#CFD4F6"/>
<path d="M333.5 207C333.5 207.828 332.828 208.5 332 208.5C331.172 208.5 330.5 207.828 330.5 207C330.5 206.172 331.172 205.5 332 205.5C332.828 205.5 333.5 206.172 333.5 207Z" fill="#CFD4F6"/>
<path d="M356.5 207C356.5 207.828 355.828 208.5 355 208.5C354.172 208.5 353.5 207.828 353.5 207C353.5 206.172 354.172 205.5 355 205.5C355.828 205.5 356.5 206.172 356.5 207Z" fill="#CFD4F6"/>
<path d="M379.5 207C379.5 207.828 378.828 208.5 378 208.5C377.172 208.5 376.5 207.828 376.5 207C376.5 206.172 377.172 205.5 378 205.5C378.828 205.5 379.5 206.172 379.5 207Z" fill="#CFD4F6"/>
<path d="M402.5 207C402.5 207.828 401.828 208.5 401 208.5C400.172 208.5 399.5 207.828 399.5 207C399.5 206.172 400.172 205.5 401 205.5C401.828 205.5 402.5 206.172 402.5 207Z" fill="#CFD4F6"/>
<path d="M425.5 207C425.5 207.828 424.828 208.5 424 208.5C423.172 208.5 422.5 207.828 422.5 207C422.5 206.172 423.172 205.5 424 205.5C424.828 205.5 425.5 206.172 425.5 207Z" fill="#CFD4F6"/>
<path d="M448.5 207C448.5 207.828 447.828 208.5 447 208.5C446.172 208.5 445.5 207.828 445.5 207C445.5 206.172 446.172 205.5 447 205.5C447.828 205.5 448.5 206.172 448.5 207Z" fill="#CFD4F6"/>
<path d="M471.5 207C471.5 207.828 470.828 208.5 470 208.5C469.172 208.5 468.5 207.828 468.5 207C468.5 206.172 469.172 205.5 470 205.5C470.828 205.5 471.5 206.172 471.5 207Z" fill="#CFD4F6"/>
<path d="M11.5 230C11.5 230.828 10.8284 231.5 10 231.5C9.17157 231.5 8.5 230.828 8.5 230C8.5 229.172 9.17157 228.5 10 228.5C10.8284 228.5 11.5 229.172 11.5 230Z" fill="#CFD4F6"/>
<path d="M34.5 230C34.5 230.828 33.8284 231.5 33 231.5C32.1716 231.5 31.5 230.828 31.5 230C31.5 229.172 32.1716 228.5 33 228.5C33.8284 228.5 34.5 229.172 34.5 230Z" fill="#CFD4F6"/>
<path d="M57.5 230C57.5 230.828 56.8284 231.5 56 231.5C55.1716 231.5 54.5 230.828 54.5 230C54.5 229.172 55.1716 228.5 56 228.5C56.8284 228.5 57.5 229.172 57.5 230Z" fill="#CFD4F6"/>
<path d="M80.5 230C80.5 230.828 79.8284 231.5 79 231.5C78.1716 231.5 77.5 230.828 77.5 230C77.5 229.172 78.1716 228.5 79 228.5C79.8284 228.5 80.5 229.172 80.5 230Z" fill="#CFD4F6"/>
<path d="M103.5 230C103.5 230.828 102.828 231.5 102 231.5C101.172 231.5 100.5 230.828 100.5 230C100.5 229.172 101.172 228.5 102 228.5C102.828 228.5 103.5 229.172 103.5 230Z" fill="#CFD4F6"/>
<path d="M126.5 230C126.5 230.828 125.828 231.5 125 231.5C124.172 231.5 123.5 230.828 123.5 230C123.5 229.172 124.172 228.5 125 228.5C125.828 228.5 126.5 229.172 126.5 230Z" fill="#CFD4F6"/>
<path d="M149.5 230C149.5 230.828 148.828 231.5 148 231.5C147.172 231.5 146.5 230.828 146.5 230C146.5 229.172 147.172 228.5 148 228.5C148.828 228.5 149.5 229.172 149.5 230Z" fill="#CFD4F6"/>
<path d="M172.5 230C172.5 230.828 171.828 231.5 171 231.5C170.172 231.5 169.5 230.828 169.5 230C169.5 229.172 170.172 228.5 171 228.5C171.828 228.5 172.5 229.172 172.5 230Z" fill="#CFD4F6"/>
<path d="M195.5 230C195.5 230.828 194.828 231.5 194 231.5C193.172 231.5 192.5 230.828 192.5 230C192.5 229.172 193.172 228.5 194 228.5C194.828 228.5 195.5 229.172 195.5 230Z" fill="#CFD4F6"/>
<path d="M218.5 230C218.5 230.828 217.828 231.5 217 231.5C216.172 231.5 215.5 230.828 215.5 230C215.5 229.172 216.172 228.5 217 228.5C217.828 228.5 218.5 229.172 218.5 230Z" fill="#CFD4F6"/>
<path d="M241.5 230C241.5 230.828 240.828 231.5 240 231.5C239.172 231.5 238.5 230.828 238.5 230C238.5 229.172 239.172 228.5 240 228.5C240.828 228.5 241.5 229.172 241.5 230Z" fill="#CFD4F6"/>
<path d="M264.5 230C264.5 230.828 263.828 231.5 263 231.5C262.172 231.5 261.5 230.828 261.5 230C261.5 229.172 262.172 228.5 263 228.5C263.828 228.5 264.5 229.172 264.5 230Z" fill="#CFD4F6"/>
<path d="M287.5 230C287.5 230.828 286.828 231.5 286 231.5C285.172 231.5 284.5 230.828 284.5 230C284.5 229.172 285.172 228.5 286 228.5C286.828 228.5 287.5 229.172 287.5 230Z" fill="#CFD4F6"/>
<path d="M310.5 230C310.5 230.828 309.828 231.5 309 231.5C308.172 231.5 307.5 230.828 307.5 230C307.5 229.172 308.172 228.5 309 228.5C309.828 228.5 310.5 229.172 310.5 230Z" fill="#CFD4F6"/>
<path d="M333.5 230C333.5 230.828 332.828 231.5 332 231.5C331.172 231.5 330.5 230.828 330.5 230C330.5 229.172 331.172 228.5 332 228.5C332.828 228.5 333.5 229.172 333.5 230Z" fill="#CFD4F6"/>
<path d="M356.5 230C356.5 230.828 355.828 231.5 355 231.5C354.172 231.5 353.5 230.828 353.5 230C353.5 229.172 354.172 228.5 355 228.5C355.828 228.5 356.5 229.172 356.5 230Z" fill="#CFD4F6"/>
<path d="M379.5 230C379.5 230.828 378.828 231.5 378 231.5C377.172 231.5 376.5 230.828 376.5 230C376.5 229.172 377.172 228.5 378 228.5C378.828 228.5 379.5 229.172 379.5 230Z" fill="#CFD4F6"/>
<path d="M402.5 230C402.5 230.828 401.828 231.5 401 231.5C400.172 231.5 399.5 230.828 399.5 230C399.5 229.172 400.172 228.5 401 228.5C401.828 228.5 402.5 229.172 402.5 230Z" fill="#CFD4F6"/>
<path d="M425.5 230C425.5 230.828 424.828 231.5 424 231.5C423.172 231.5 422.5 230.828 422.5 230C422.5 229.172 423.172 228.5 424 228.5C424.828 228.5 425.5 229.172 425.5 230Z" fill="#CFD4F6"/>
<path d="M448.5 230C448.5 230.828 447.828 231.5 447 231.5C446.172 231.5 445.5 230.828 445.5 230C445.5 229.172 446.172 228.5 447 228.5C447.828 228.5 448.5 229.172 448.5 230Z" fill="#CFD4F6"/>
<path d="M471.5 230C471.5 230.828 470.828 231.5 470 231.5C469.172 231.5 468.5 230.828 468.5 230C468.5 229.172 469.172 228.5 470 228.5C470.828 228.5 471.5 229.172 471.5 230Z" fill="#CFD4F6"/>
<path d="M11.5 253C11.5 253.828 10.8284 254.5 10 254.5C9.17157 254.5 8.5 253.828 8.5 253C8.5 252.172 9.17157 251.5 10 251.5C10.8284 251.5 11.5 252.172 11.5 253Z" fill="#CFD4F6"/>
<path d="M34.5 253C34.5 253.828 33.8284 254.5 33 254.5C32.1716 254.5 31.5 253.828 31.5 253C31.5 252.172 32.1716 251.5 33 251.5C33.8284 251.5 34.5 252.172 34.5 253Z" fill="#CFD4F6"/>
<path d="M57.5 253C57.5 253.828 56.8284 254.5 56 254.5C55.1716 254.5 54.5 253.828 54.5 253C54.5 252.172 55.1716 251.5 56 251.5C56.8284 251.5 57.5 252.172 57.5 253Z" fill="#CFD4F6"/>
<path d="M80.5 253C80.5 253.828 79.8284 254.5 79 254.5C78.1716 254.5 77.5 253.828 77.5 253C77.5 252.172 78.1716 251.5 79 251.5C79.8284 251.5 80.5 252.172 80.5 253Z" fill="#CFD4F6"/>
<path d="M103.5 253C103.5 253.828 102.828 254.5 102 254.5C101.172 254.5 100.5 253.828 100.5 253C100.5 252.172 101.172 251.5 102 251.5C102.828 251.5 103.5 252.172 103.5 253Z" fill="#CFD4F6"/>
<path d="M126.5 253C126.5 253.828 125.828 254.5 125 254.5C124.172 254.5 123.5 253.828 123.5 253C123.5 252.172 124.172 251.5 125 251.5C125.828 251.5 126.5 252.172 126.5 253Z" fill="#CFD4F6"/>
<path d="M149.5 253C149.5 253.828 148.828 254.5 148 254.5C147.172 254.5 146.5 253.828 146.5 253C146.5 252.172 147.172 251.5 148 251.5C148.828 251.5 149.5 252.172 149.5 253Z" fill="#CFD4F6"/>
<path d="M172.5 253C172.5 253.828 171.828 254.5 171 254.5C170.172 254.5 169.5 253.828 169.5 253C169.5 252.172 170.172 251.5 171 251.5C171.828 251.5 172.5 252.172 172.5 253Z" fill="#CFD4F6"/>
<path d="M195.5 253C195.5 253.828 194.828 254.5 194 254.5C193.172 254.5 192.5 253.828 192.5 253C192.5 252.172 193.172 251.5 194 251.5C194.828 251.5 195.5 252.172 195.5 253Z" fill="#CFD4F6"/>
<path d="M218.5 253C218.5 253.828 217.828 254.5 217 254.5C216.172 254.5 215.5 253.828 215.5 253C215.5 252.172 216.172 251.5 217 251.5C217.828 251.5 218.5 252.172 218.5 253Z" fill="#CFD4F6"/>
<path d="M241.5 253C241.5 253.828 240.828 254.5 240 254.5C239.172 254.5 238.5 253.828 238.5 253C238.5 252.172 239.172 251.5 240 251.5C240.828 251.5 241.5 252.172 241.5 253Z" fill="#CFD4F6"/>
<path d="M264.5 253C264.5 253.828 263.828 254.5 263 254.5C262.172 254.5 261.5 253.828 261.5 253C261.5 252.172 262.172 251.5 263 251.5C263.828 251.5 264.5 252.172 264.5 253Z" fill="#CFD4F6"/>
<path d="M287.5 253C287.5 253.828 286.828 254.5 286 254.5C285.172 254.5 284.5 253.828 284.5 253C284.5 252.172 285.172 251.5 286 251.5C286.828 251.5 287.5 252.172 287.5 253Z" fill="#CFD4F6"/>
<path d="M310.5 253C310.5 253.828 309.828 254.5 309 254.5C308.172 254.5 307.5 253.828 307.5 253C307.5 252.172 308.172 251.5 309 251.5C309.828 251.5 310.5 252.172 310.5 253Z" fill="#CFD4F6"/>
<path d="M333.5 253C333.5 253.828 332.828 254.5 332 254.5C331.172 254.5 330.5 253.828 330.5 253C330.5 252.172 331.172 251.5 332 251.5C332.828 251.5 333.5 252.172 333.5 253Z" fill="#CFD4F6"/>
<path d="M356.5 253C356.5 253.828 355.828 254.5 355 254.5C354.172 254.5 353.5 253.828 353.5 253C353.5 252.172 354.172 251.5 355 251.5C355.828 251.5 356.5 252.172 356.5 253Z" fill="#CFD4F6"/>
<path d="M379.5 253C379.5 253.828 378.828 254.5 378 254.5C377.172 254.5 376.5 253.828 376.5 253C376.5 252.172 377.172 251.5 378 251.5C378.828 251.5 379.5 252.172 379.5 253Z" fill="#CFD4F6"/>
<path d="M402.5 253C402.5 253.828 401.828 254.5 401 254.5C400.172 254.5 399.5 253.828 399.5 253C399.5 252.172 400.172 251.5 401 251.5C401.828 251.5 402.5 252.172 402.5 253Z" fill="#CFD4F6"/>
<path d="M425.5 253C425.5 253.828 424.828 254.5 424 254.5C423.172 254.5 422.5 253.828 422.5 253C422.5 252.172 423.172 251.5 424 251.5C424.828 251.5 425.5 252.172 425.5 253Z" fill="#CFD4F6"/>
<path d="M448.5 253C448.5 253.828 447.828 254.5 447 254.5C446.172 254.5 445.5 253.828 445.5 253C445.5 252.172 446.172 251.5 447 251.5C447.828 251.5 448.5 252.172 448.5 253Z" fill="#CFD4F6"/>
<path d="M471.5 253C471.5 253.828 470.828 254.5 470 254.5C469.172 254.5 468.5 253.828 468.5 253C468.5 252.172 469.172 251.5 470 251.5C470.828 251.5 471.5 252.172 471.5 253Z" fill="#CFD4F6"/>
<path d="M11.5 276C11.5 276.828 10.8284 277.5 10 277.5C9.17157 277.5 8.5 276.828 8.5 276C8.5 275.172 9.17157 274.5 10 274.5C10.8284 274.5 11.5 275.172 11.5 276Z" fill="#CFD4F6"/>
<path d="M34.5 276C34.5 276.828 33.8284 277.5 33 277.5C32.1716 277.5 31.5 276.828 31.5 276C31.5 275.172 32.1716 274.5 33 274.5C33.8284 274.5 34.5 275.172 34.5 276Z" fill="#CFD4F6"/>
<path d="M57.5 276C57.5 276.828 56.8284 277.5 56 277.5C55.1716 277.5 54.5 276.828 54.5 276C54.5 275.172 55.1716 274.5 56 274.5C56.8284 274.5 57.5 275.172 57.5 276Z" fill="#CFD4F6"/>
<path d="M80.5 276C80.5 276.828 79.8284 277.5 79 277.5C78.1716 277.5 77.5 276.828 77.5 276C77.5 275.172 78.1716 274.5 79 274.5C79.8284 274.5 80.5 275.172 80.5 276Z" fill="#CFD4F6"/>
<path d="M103.5 276C103.5 276.828 102.828 277.5 102 277.5C101.172 277.5 100.5 276.828 100.5 276C100.5 275.172 101.172 274.5 102 274.5C102.828 274.5 103.5 275.172 103.5 276Z" fill="#CFD4F6"/>
<path d="M126.5 276C126.5 276.828 125.828 277.5 125 277.5C124.172 277.5 123.5 276.828 123.5 276C123.5 275.172 124.172 274.5 125 274.5C125.828 274.5 126.5 275.172 126.5 276Z" fill="#CFD4F6"/>
<path d="M149.5 276C149.5 276.828 148.828 277.5 148 277.5C147.172 277.5 146.5 276.828 146.5 276C146.5 275.172 147.172 274.5 148 274.5C148.828 274.5 149.5 275.172 149.5 276Z" fill="#CFD4F6"/>
<path d="M172.5 276C172.5 276.828 171.828 277.5 171 277.5C170.172 277.5 169.5 276.828 169.5 276C169.5 275.172 170.172 274.5 171 274.5C171.828 274.5 172.5 275.172 172.5 276Z" fill="#CFD4F6"/>
<path d="M195.5 276C195.5 276.828 194.828 277.5 194 277.5C193.172 277.5 192.5 276.828 192.5 276C192.5 275.172 193.172 274.5 194 274.5C194.828 274.5 195.5 275.172 195.5 276Z" fill="#CFD4F6"/>
<path d="M218.5 276C218.5 276.828 217.828 277.5 217 277.5C216.172 277.5 215.5 276.828 215.5 276C215.5 275.172 216.172 274.5 217 274.5C217.828 274.5 218.5 275.172 218.5 276Z" fill="#CFD4F6"/>
<path d="M241.5 276C241.5 276.828 240.828 277.5 240 277.5C239.172 277.5 238.5 276.828 238.5 276C238.5 275.172 239.172 274.5 240 274.5C240.828 274.5 241.5 275.172 241.5 276Z" fill="#CFD4F6"/>
<path d="M264.5 276C264.5 276.828 263.828 277.5 263 277.5C262.172 277.5 261.5 276.828 261.5 276C261.5 275.172 262.172 274.5 263 274.5C263.828 274.5 264.5 275.172 264.5 276Z" fill="#CFD4F6"/>
<path d="M287.5 276C287.5 276.828 286.828 277.5 286 277.5C285.172 277.5 284.5 276.828 284.5 276C284.5 275.172 285.172 274.5 286 274.5C286.828 274.5 287.5 275.172 287.5 276Z" fill="#CFD4F6"/>
<path d="M310.5 276C310.5 276.828 309.828 277.5 309 277.5C308.172 277.5 307.5 276.828 307.5 276C307.5 275.172 308.172 274.5 309 274.5C309.828 274.5 310.5 275.172 310.5 276Z" fill="#CFD4F6"/>
<path d="M333.5 276C333.5 276.828 332.828 277.5 332 277.5C331.172 277.5 330.5 276.828 330.5 276C330.5 275.172 331.172 274.5 332 274.5C332.828 274.5 333.5 275.172 333.5 276Z" fill="#CFD4F6"/>
<path d="M356.5 276C356.5 276.828 355.828 277.5 355 277.5C354.172 277.5 353.5 276.828 353.5 276C353.5 275.172 354.172 274.5 355 274.5C355.828 274.5 356.5 275.172 356.5 276Z" fill="#CFD4F6"/>
<path d="M379.5 276C379.5 276.828 378.828 277.5 378 277.5C377.172 277.5 376.5 276.828 376.5 276C376.5 275.172 377.172 274.5 378 274.5C378.828 274.5 379.5 275.172 379.5 276Z" fill="#CFD4F6"/>
<path d="M402.5 276C402.5 276.828 401.828 277.5 401 277.5C400.172 277.5 399.5 276.828 399.5 276C399.5 275.172 400.172 274.5 401 274.5C401.828 274.5 402.5 275.172 402.5 276Z" fill="#CFD4F6"/>
<path d="M425.5 276C425.5 276.828 424.828 277.5 424 277.5C423.172 277.5 422.5 276.828 422.5 276C422.5 275.172 423.172 274.5 424 274.5C424.828 274.5 425.5 275.172 425.5 276Z" fill="#CFD4F6"/>
<path d="M448.5 276C448.5 276.828 447.828 277.5 447 277.5C446.172 277.5 445.5 276.828 445.5 276C445.5 275.172 446.172 274.5 447 274.5C447.828 274.5 448.5 275.172 448.5 276Z" fill="#CFD4F6"/>
<path d="M471.5 276C471.5 276.828 470.828 277.5 470 277.5C469.172 277.5 468.5 276.828 468.5 276C468.5 275.172 469.172 274.5 470 274.5C470.828 274.5 471.5 275.172 471.5 276Z" fill="#CFD4F6"/>
<path d="M11.5 299C11.5 299.828 10.8284 300.5 10 300.5C9.17157 300.5 8.5 299.828 8.5 299C8.5 298.172 9.17157 297.5 10 297.5C10.8284 297.5 11.5 298.172 11.5 299Z" fill="#CFD4F6"/>
<path d="M34.5 299C34.5 299.828 33.8284 300.5 33 300.5C32.1716 300.5 31.5 299.828 31.5 299C31.5 298.172 32.1716 297.5 33 297.5C33.8284 297.5 34.5 298.172 34.5 299Z" fill="#CFD4F6"/>
<path d="M57.5 299C57.5 299.828 56.8284 300.5 56 300.5C55.1716 300.5 54.5 299.828 54.5 299C54.5 298.172 55.1716 297.5 56 297.5C56.8284 297.5 57.5 298.172 57.5 299Z" fill="#CFD4F6"/>
<path d="M80.5 299C80.5 299.828 79.8284 300.5 79 300.5C78.1716 300.5 77.5 299.828 77.5 299C77.5 298.172 78.1716 297.5 79 297.5C79.8284 297.5 80.5 298.172 80.5 299Z" fill="#CFD4F6"/>
<path d="M103.5 299C103.5 299.828 102.828 300.5 102 300.5C101.172 300.5 100.5 299.828 100.5 299C100.5 298.172 101.172 297.5 102 297.5C102.828 297.5 103.5 298.172 103.5 299Z" fill="#CFD4F6"/>
<path d="M126.5 299C126.5 299.828 125.828 300.5 125 300.5C124.172 300.5 123.5 299.828 123.5 299C123.5 298.172 124.172 297.5 125 297.5C125.828 297.5 126.5 298.172 126.5 299Z" fill="#CFD4F6"/>
<path d="M149.5 299C149.5 299.828 148.828 300.5 148 300.5C147.172 300.5 146.5 299.828 146.5 299C146.5 298.172 147.172 297.5 148 297.5C148.828 297.5 149.5 298.172 149.5 299Z" fill="#CFD4F6"/>
<path d="M172.5 299C172.5 299.828 171.828 300.5 171 300.5C170.172 300.5 169.5 299.828 169.5 299C169.5 298.172 170.172 297.5 171 297.5C171.828 297.5 172.5 298.172 172.5 299Z" fill="#CFD4F6"/>
<path d="M195.5 299C195.5 299.828 194.828 300.5 194 300.5C193.172 300.5 192.5 299.828 192.5 299C192.5 298.172 193.172 297.5 194 297.5C194.828 297.5 195.5 298.172 195.5 299Z" fill="#CFD4F6"/>
<path d="M218.5 299C218.5 299.828 217.828 300.5 217 300.5C216.172 300.5 215.5 299.828 215.5 299C215.5 298.172 216.172 297.5 217 297.5C217.828 297.5 218.5 298.172 218.5 299Z" fill="#CFD4F6"/>
<path d="M241.5 299C241.5 299.828 240.828 300.5 240 300.5C239.172 300.5 238.5 299.828 238.5 299C238.5 298.172 239.172 297.5 240 297.5C240.828 297.5 241.5 298.172 241.5 299Z" fill="#CFD4F6"/>
<path d="M264.5 299C264.5 299.828 263.828 300.5 263 300.5C262.172 300.5 261.5 299.828 261.5 299C261.5 298.172 262.172 297.5 263 297.5C263.828 297.5 264.5 298.172 264.5 299Z" fill="#CFD4F6"/>
<path d="M287.5 299C287.5 299.828 286.828 300.5 286 300.5C285.172 300.5 284.5 299.828 284.5 299C284.5 298.172 285.172 297.5 286 297.5C286.828 297.5 287.5 298.172 287.5 299Z" fill="#CFD4F6"/>
<path d="M310.5 299C310.5 299.828 309.828 300.5 309 300.5C308.172 300.5 307.5 299.828 307.5 299C307.5 298.172 308.172 297.5 309 297.5C309.828 297.5 310.5 298.172 310.5 299Z" fill="#CFD4F6"/>
<path d="M333.5 299C333.5 299.828 332.828 300.5 332 300.5C331.172 300.5 330.5 299.828 330.5 299C330.5 298.172 331.172 297.5 332 297.5C332.828 297.5 333.5 298.172 333.5 299Z" fill="#CFD4F6"/>
<path d="M356.5 299C356.5 299.828 355.828 300.5 355 300.5C354.172 300.5 353.5 299.828 353.5 299C353.5 298.172 354.172 297.5 355 297.5C355.828 297.5 356.5 298.172 356.5 299Z" fill="#CFD4F6"/>
<path d="M379.5 299C379.5 299.828 378.828 300.5 378 300.5C377.172 300.5 376.5 299.828 376.5 299C376.5 298.172 377.172 297.5 378 297.5C378.828 297.5 379.5 298.172 379.5 299Z" fill="#CFD4F6"/>
<path d="M402.5 299C402.5 299.828 401.828 300.5 401 300.5C400.172 300.5 399.5 299.828 399.5 299C399.5 298.172 400.172 297.5 401 297.5C401.828 297.5 402.5 298.172 402.5 299Z" fill="#CFD4F6"/>
<path d="M425.5 299C425.5 299.828 424.828 300.5 424 300.5C423.172 300.5 422.5 299.828 422.5 299C422.5 298.172 423.172 297.5 424 297.5C424.828 297.5 425.5 298.172 425.5 299Z" fill="#CFD4F6"/>
<path d="M448.5 299C448.5 299.828 447.828 300.5 447 300.5C446.172 300.5 445.5 299.828 445.5 299C445.5 298.172 446.172 297.5 447 297.5C447.828 297.5 448.5 298.172 448.5 299Z" fill="#CFD4F6"/>
<path d="M471.5 299C471.5 299.828 470.828 300.5 470 300.5C469.172 300.5 468.5 299.828 468.5 299C468.5 298.172 469.172 297.5 470 297.5C470.828 297.5 471.5 298.172 471.5 299Z" fill="#CFD4F6"/>
<path d="M11.5 322C11.5 322.828 10.8284 323.5 10 323.5C9.17157 323.5 8.5 322.828 8.5 322C8.5 321.172 9.17157 320.5 10 320.5C10.8284 320.5 11.5 321.172 11.5 322Z" fill="#CFD4F6"/>
<path d="M34.5 322C34.5 322.828 33.8284 323.5 33 323.5C32.1716 323.5 31.5 322.828 31.5 322C31.5 321.172 32.1716 320.5 33 320.5C33.8284 320.5 34.5 321.172 34.5 322Z" fill="#CFD4F6"/>
<path d="M57.5 322C57.5 322.828 56.8284 323.5 56 323.5C55.1716 323.5 54.5 322.828 54.5 322C54.5 321.172 55.1716 320.5 56 320.5C56.8284 320.5 57.5 321.172 57.5 322Z" fill="#CFD4F6"/>
<path d="M80.5 322C80.5 322.828 79.8284 323.5 79 323.5C78.1716 323.5 77.5 322.828 77.5 322C77.5 321.172 78.1716 320.5 79 320.5C79.8284 320.5 80.5 321.172 80.5 322Z" fill="#CFD4F6"/>
<path d="M103.5 322C103.5 322.828 102.828 323.5 102 323.5C101.172 323.5 100.5 322.828 100.5 322C100.5 321.172 101.172 320.5 102 320.5C102.828 320.5 103.5 321.172 103.5 322Z" fill="#CFD4F6"/>
<path d="M126.5 322C126.5 322.828 125.828 323.5 125 323.5C124.172 323.5 123.5 322.828 123.5 322C123.5 321.172 124.172 320.5 125 320.5C125.828 320.5 126.5 321.172 126.5 322Z" fill="#CFD4F6"/>
<path d="M149.5 322C149.5 322.828 148.828 323.5 148 323.5C147.172 323.5 146.5 322.828 146.5 322C146.5 321.172 147.172 320.5 148 320.5C148.828 320.5 149.5 321.172 149.5 322Z" fill="#CFD4F6"/>
<path d="M172.5 322C172.5 322.828 171.828 323.5 171 323.5C170.172 323.5 169.5 322.828 169.5 322C169.5 321.172 170.172 320.5 171 320.5C171.828 320.5 172.5 321.172 172.5 322Z" fill="#CFD4F6"/>
<path d="M195.5 322C195.5 322.828 194.828 323.5 194 323.5C193.172 323.5 192.5 322.828 192.5 322C192.5 321.172 193.172 320.5 194 320.5C194.828 320.5 195.5 321.172 195.5 322Z" fill="#CFD4F6"/>
<path d="M218.5 322C218.5 322.828 217.828 323.5 217 323.5C216.172 323.5 215.5 322.828 215.5 322C215.5 321.172 216.172 320.5 217 320.5C217.828 320.5 218.5 321.172 218.5 322Z" fill="#CFD4F6"/>
<path d="M241.5 322C241.5 322.828 240.828 323.5 240 323.5C239.172 323.5 238.5 322.828 238.5 322C238.5 321.172 239.172 320.5 240 320.5C240.828 320.5 241.5 321.172 241.5 322Z" fill="#CFD4F6"/>
<path d="M264.5 322C264.5 322.828 263.828 323.5 263 323.5C262.172 323.5 261.5 322.828 261.5 322C261.5 321.172 262.172 320.5 263 320.5C263.828 320.5 264.5 321.172 264.5 322Z" fill="#CFD4F6"/>
<path d="M287.5 322C287.5 322.828 286.828 323.5 286 323.5C285.172 323.5 284.5 322.828 284.5 322C284.5 321.172 285.172 320.5 286 320.5C286.828 320.5 287.5 321.172 287.5 322Z" fill="#CFD4F6"/>
<path d="M310.5 322C310.5 322.828 309.828 323.5 309 323.5C308.172 323.5 307.5 322.828 307.5 322C307.5 321.172 308.172 320.5 309 320.5C309.828 320.5 310.5 321.172 310.5 322Z" fill="#CFD4F6"/>
<path d="M333.5 322C333.5 322.828 332.828 323.5 332 323.5C331.172 323.5 330.5 322.828 330.5 322C330.5 321.172 331.172 320.5 332 320.5C332.828 320.5 333.5 321.172 333.5 322Z" fill="#CFD4F6"/>
<path d="M356.5 322C356.5 322.828 355.828 323.5 355 323.5C354.172 323.5 353.5 322.828 353.5 322C353.5 321.172 354.172 320.5 355 320.5C355.828 320.5 356.5 321.172 356.5 322Z" fill="#CFD4F6"/>
<path d="M379.5 322C379.5 322.828 378.828 323.5 378 323.5C377.172 323.5 376.5 322.828 376.5 322C376.5 321.172 377.172 320.5 378 320.5C378.828 320.5 379.5 321.172 379.5 322Z" fill="#CFD4F6"/>
<path d="M402.5 322C402.5 322.828 401.828 323.5 401 323.5C400.172 323.5 399.5 322.828 399.5 322C399.5 321.172 400.172 320.5 401 320.5C401.828 320.5 402.5 321.172 402.5 322Z" fill="#CFD4F6"/>
<path d="M425.5 322C425.5 322.828 424.828 323.5 424 323.5C423.172 323.5 422.5 322.828 422.5 322C422.5 321.172 423.172 320.5 424 320.5C424.828 320.5 425.5 321.172 425.5 322Z" fill="#CFD4F6"/>
<path d="M448.5 322C448.5 322.828 447.828 323.5 447 323.5C446.172 323.5 445.5 322.828 445.5 322C445.5 321.172 446.172 320.5 447 320.5C447.828 320.5 448.5 321.172 448.5 322Z" fill="#CFD4F6"/>
<path d="M471.5 322C471.5 322.828 470.828 323.5 470 323.5C469.172 323.5 468.5 322.828 468.5 322C468.5 321.172 469.172 320.5 470 320.5C470.828 320.5 471.5 321.172 471.5 322Z" fill="#CFD4F6"/>
</g>
<defs>
<radialGradient id="paint0_radial_5045_64888" cx="0" cy="0" r="1" gradientUnits="userSpaceOnUse" gradientTransform="translate(240 240) rotate(90) scale(240 240)">
<stop/>
<stop offset="1" stop-opacity="0"/>
</radialGradient>
</defs>
</svg>
