<svg width="222" height="222" viewBox="0 0 222 222" fill="none" xmlns="http://www.w3.org/2000/svg">
<rect x="11" y="11" width="200" height="200" rx="100" fill="#F0F2FD"/>
<g clip-path="url(#clip0_3646_47904)">
<path d="M156.791 62.3086V174.575H65.4219V62.3086H83.0905V74.131H139.146V62.3086H156.815H156.791Z" fill="#CFD4F6"/>
<path d="M68.7042 65.6263H83.0672V62.3086H65.4219V174.575H68.7042V65.6263Z" fill="#CFD4F6"/>
<path d="M139.122 62.3085V74.1309H83.0664V56.3973H100.735C101.433 51.444 105.67 47.4253 110.861 47.4253C116.053 47.4253 120.289 51.2103 120.988 56.3973H138.656V62.3085H139.122Z" fill="white"/>
<path d="M85.441 64.9019V58.9907H103.11C103.808 54.0374 108.045 50.0188 113.236 50.0188C115.587 50.0188 117.938 50.7197 119.591 52.1449C117.705 49.3178 114.656 47.4253 110.885 47.4253C105.694 47.4253 101.457 51.2103 100.758 56.3973H83.0898V74.1309H85.441V64.9019Z" fill="white"/>
<path d="M123.572 58.9909H138.889V56.3975H122.641C123.339 57.0984 123.572 58.0563 123.572 58.9909Z" fill="white"/>
<path d="M145.011 85.9531H100.734V103.687H145.011V85.9531Z" fill="white"/>
<path d="M103.551 88.7802H145.011V85.9531H100.734V103.663H103.551V88.7802Z" fill="white"/>
<path d="M78.363 114.294C78.5958 114.528 78.8286 114.995 78.8286 115.229C78.8286 115.696 78.5958 115.93 78.363 116.164C78.1303 116.397 77.6647 116.631 77.4319 116.631C77.1991 116.631 76.7335 116.397 76.5007 116.164C76.2679 115.93 76.0352 115.463 76.0352 115.229C76.0352 114.762 76.2679 114.528 76.5007 114.294C76.7335 114.061 77.1991 113.827 77.4319 113.827C77.6647 114.061 78.1303 114.061 78.363 114.294Z" fill="#6A5ACD"/>
<path d="M78.363 126.117C78.5958 126.35 78.8286 126.818 78.8286 127.051C78.8286 127.285 78.5958 127.752 78.363 127.986C78.1303 128.22 77.6647 128.453 77.4319 128.453C77.1991 128.453 76.7335 128.22 76.5007 127.986C76.2679 127.752 76.0352 127.285 76.0352 127.051C76.0352 126.584 76.2679 126.35 76.5007 126.117C76.7335 125.883 77.1991 125.649 77.4319 125.649C77.6647 125.649 78.1303 125.883 78.363 126.117Z" fill="#6A5ACD"/>
<path d="M78.363 149.762C78.5958 149.995 78.8286 150.463 78.8286 150.696C78.8286 151.164 78.5958 151.397 78.363 151.631C78.1303 151.865 77.6647 152.098 77.4319 152.098C77.1991 152.098 76.7335 151.865 76.5007 151.631C76.2679 151.397 76.0352 150.93 76.0352 150.696C76.0352 150.229 76.2679 149.995 76.5007 149.762C76.7335 149.528 77.1991 149.294 77.4319 149.294C77.6647 149.294 78.1303 149.528 78.363 149.762Z" fill="#6A5ACD"/>
<path d="M78.363 161.584C78.5958 161.818 78.8286 162.285 78.8286 162.519C78.8286 162.986 78.5958 163.22 78.363 163.453C78.1303 163.687 77.6647 163.92 77.4319 163.92C77.1991 163.92 76.7335 163.687 76.5007 163.453C76.2679 163.22 76.0352 162.752 76.0352 162.519C76.0352 162.051 76.2679 161.818 76.5007 161.584C76.7335 161.35 77.1991 161.117 77.4319 161.117C77.6647 161.117 78.1303 161.35 78.363 161.584Z" fill="#6A5ACD"/>
<path d="M78.363 137.939C78.5958 138.173 78.8286 138.64 78.8286 138.874C78.8286 139.341 78.5958 139.575 78.363 139.809C78.1303 140.042 77.6647 140.276 77.4319 140.276C76.9663 140.276 76.7335 140.042 76.5007 139.809C76.2679 139.575 76.0352 139.108 76.0352 138.874C76.0352 138.407 76.2679 138.173 76.5007 137.939C76.7335 137.706 77.1991 137.472 77.4319 137.472C77.6647 137.472 78.1303 137.706 78.363 137.939Z" fill="#6A5ACD"/>
<path d="M156.79 176H65.42C64.7216 176 64 175.299 64 174.575V62.3085C64 61.6076 64.6984 60.8833 65.42 60.8833H83.0887C83.787 60.8833 84.5087 61.5842 84.5087 62.3085C84.5087 63.0328 83.8103 63.7338 83.0887 63.7338H66.8167V173.173H155.113V63.7338H138.865C138.166 63.7338 137.445 63.0328 137.445 62.3085C137.445 61.5842 138.143 60.8833 138.865 60.8833H156.533C157.232 60.8833 157.953 61.5842 157.953 62.3085V174.575C158.186 175.276 157.488 176 156.766 176H156.79Z" fill="#6A5ACD"/>
<path d="M139.12 75.5561H83.0645C82.3662 75.5561 81.6445 74.8551 81.6445 74.1308V56.3972C81.6445 55.6963 82.3429 54.972 83.0645 54.972H99.546C100.966 49.7617 105.668 46 110.859 46C116.051 46 120.986 49.785 122.173 54.972H138.654C139.353 54.972 140.074 55.6729 140.074 56.3972V74.1308C140.54 74.8318 139.842 75.5561 139.143 75.5561H139.12ZM84.7173 72.729H137.7V57.8458H121.451C120.753 57.8458 120.031 57.3785 120.031 56.6542C119.333 52.4019 115.562 49.0841 111.325 49.0841C107.088 49.0841 103.317 52.4019 102.619 56.6542C102.619 57.3551 101.92 57.8458 101.199 57.8458H84.9501V72.729H84.7173Z" fill="#6A5ACD"/>
<path d="M145.009 105.089H100.733C100.034 105.089 99.3125 104.388 99.3125 103.664V85.9301C99.3125 85.2292 100.011 84.5049 100.733 84.5049H145.009C145.707 84.5049 146.429 85.2058 146.429 85.9301V103.664C146.429 104.365 145.731 105.089 145.009 105.089ZM102.385 102.262H143.589V87.3787H102.385V102.262Z" fill="#6A5ACD"/>
<path d="M83.0645 102.262C82.3662 102.262 81.6445 101.561 81.6445 100.837V89.0141C81.6445 88.3132 82.3429 87.5889 83.0645 87.5889C83.7862 87.5889 84.4846 88.2898 84.4846 89.0141V100.837C84.7173 101.537 84.019 102.262 83.0645 102.262Z" fill="#6A5ACD"/>
<path d="M88.953 96.3505H77.1739C76.4755 96.3505 75.7539 95.6495 75.7539 94.9252C75.7539 94.2009 76.4523 93.5 77.1739 93.5H88.953C89.6514 93.5 90.373 94.2009 90.373 94.9252C90.6058 95.6262 89.9074 96.3505 88.953 96.3505Z" fill="#6A5ACD"/>
<path d="M145.011 116.911H88.9552C88.2568 116.911 87.5352 116.21 87.5352 115.486C87.5352 114.761 88.2335 114.061 88.9552 114.061H145.011C145.709 114.061 146.431 114.761 146.431 115.486C146.431 116.21 145.732 116.911 145.011 116.911Z" fill="#6A5ACD"/>
<path d="M145.011 128.734H88.9552C88.2568 128.734 87.5352 128.033 87.5352 127.309C87.5352 126.584 88.2335 125.883 88.9552 125.883H145.011C145.709 125.883 146.431 126.584 146.431 127.309C146.431 128.033 145.732 128.734 145.011 128.734Z" fill="#6A5ACD"/>
<path d="M145.011 140.533H88.9552C88.2568 140.533 87.5352 139.832 87.5352 139.107C87.5352 138.383 88.2335 137.682 88.9552 137.682H145.011C145.709 137.682 146.431 138.383 146.431 139.107C146.431 139.832 145.732 140.533 145.011 140.533Z" fill="#6A5ACD"/>
<path d="M145.011 152.355H88.9552C88.2568 152.355 87.5352 151.654 87.5352 150.93C87.5352 150.206 88.2335 149.505 88.9552 149.505H145.011C145.709 149.505 146.431 150.206 146.431 150.93C146.431 151.654 145.732 152.355 145.011 152.355Z" fill="#6A5ACD"/>
<path d="M145.011 164.178H88.9552C88.2568 164.178 87.5352 163.477 87.5352 162.752C87.5352 162.028 88.2335 161.327 88.9552 161.327H145.011C145.709 161.327 146.431 162.028 146.431 162.752C146.431 163.477 145.732 164.178 145.011 164.178Z" fill="#6A5ACD"/>
</g>
<circle cx="111" cy="111" r="109.5" stroke="url(#paint0_linear_3646_47904)" stroke-width="3"/>
<defs>
<linearGradient id="paint0_linear_3646_47904" x1="111" y1="0" x2="111" y2="222" gradientUnits="userSpaceOnUse">
<stop stop-color="#CFD4F6"/>
<stop offset="1" stop-color="#F0F2FD"/>
</linearGradient>
<clipPath id="clip0_3646_47904">
<rect width="94" height="130" fill="white" transform="translate(64 46)"/>
</clipPath>
</defs>
</svg>
