<svg width="222" height="222" viewBox="0 0 222 222" fill="none" xmlns="http://www.w3.org/2000/svg">
<rect x="11" y="11" width="200" height="200" rx="100" fill="#F0F2FD"/>
<g clip-path="url(#clip0_3646_47651)">
<path d="M87.7762 63.8374H80.5471H68.2539V155.65H78.015H141.453V73.5019V63.8374H87.7762Z" fill="white"/>
<path d="M92.0669 136.128C92.8401 136.901 92.8401 138.254 92.0669 139.027L84.0648 146.952L81.3394 149.658L78.4207 146.759L76.2752 144.632C75.8886 144.246 75.6953 143.666 75.6953 143.279C75.6953 142.7 75.8886 142.313 76.2752 141.926C77.0483 141.153 78.4207 141.153 79.1939 141.926L81.3394 144.053L89.3416 136.128C89.7281 135.741 90.308 135.548 90.7139 135.548C91.1198 135.548 91.6997 135.741 92.0863 136.128H92.0669Z" fill="#CFD4F6"/>
<path d="M92.0669 117.958C92.8401 118.731 92.8401 120.084 92.0669 120.858L84.0648 128.783L81.1461 131.682L78.2274 128.783L76.2752 126.463C75.8886 126.076 75.6953 125.497 75.6953 125.11C75.6953 124.723 75.8886 124.144 76.2752 123.757C77.0483 122.984 78.4207 122.984 79.1939 123.757L81.3394 125.883L89.3416 117.958C89.7281 117.572 90.308 117.378 90.7139 117.378C91.1198 117.378 91.6997 117.572 92.0863 117.958H92.0669Z" fill="#CFD4F6"/>
<path d="M92.0688 99.9824C92.842 100.756 92.842 102.109 92.0688 102.882L84.0666 110.807L81.148 113.706L78.2293 110.807L76.0838 108.68C75.6972 108.294 75.5039 107.714 75.5039 107.327C75.5039 106.941 75.6972 106.361 76.0838 105.974C76.8569 105.201 78.2293 105.201 79.0024 105.974L81.148 108.101L89.1502 100.176C89.5367 99.7892 90.1166 99.5959 90.5225 99.5959C90.9284 99.5959 91.7016 99.4026 92.0882 99.9824H92.0688Z" fill="#CFD4F6"/>
<path d="M92.0688 81.8133C92.842 82.5865 92.842 83.9395 92.0688 84.7127L84.0666 92.6376L81.148 95.5369L78.2293 92.6376L76.0838 90.5114C75.6972 90.1248 75.5039 89.5449 75.5039 89.1583C75.5039 88.7718 75.6972 88.1919 76.0838 87.8053C76.8569 87.0322 78.2293 87.0322 79.0024 87.8053L81.148 89.9315L89.1502 82.0066C89.5367 81.62 90.1166 81.4268 90.5225 81.4268C90.9284 81.4268 91.7016 81.4268 92.0882 81.8133H92.0688Z" fill="#CFD4F6"/>
<path d="M160.396 61.5176C163.527 61.5176 165.866 64.0303 165.866 66.9297C165.866 70.0223 163.334 72.3418 160.396 72.3418C157.265 72.3418 154.926 69.829 154.926 66.9297C154.926 63.8371 157.458 61.5176 160.396 61.5176Z" fill="#CFD4F6"/>
<path d="M59.8674 147.338C61.8196 147.338 63.5786 148.885 63.5786 151.011C63.5786 153.137 62.0129 154.683 59.8674 154.683C57.9152 154.683 56.1562 153.137 56.1562 151.011C56.1562 148.885 57.7219 147.338 59.8674 147.338Z" fill="#CFD4F6"/>
<path d="M151.214 73.502V165.315H78.0156V155.65H141.453V73.502H151.214Z" fill="#CFD4F6"/>
<path d="M160.396 100.176C161.362 100.176 162.155 100.949 162.155 101.915C162.155 102.882 161.381 103.655 160.396 103.655C159.41 103.655 158.637 102.882 158.637 101.915C158.637 100.949 159.41 100.176 160.396 100.176Z" fill="#6A5ACD"/>
<path d="M158.04 135.161C159.007 135.161 159.799 135.934 159.799 136.901C159.799 137.867 159.026 138.64 158.04 138.64C157.054 138.64 156.281 137.867 156.281 136.901C156.281 135.934 156.861 135.161 158.04 135.161Z" fill="#6A5ACD"/>
<path d="M148.296 57.8452C149.263 57.8452 150.055 58.6184 150.055 59.5848C150.055 60.5513 149.282 61.3244 148.296 61.3244C147.311 61.3244 146.537 60.5513 146.537 59.5848C146.344 58.6184 147.117 57.8452 148.296 57.8452Z" fill="#6A5ACD"/>
<path d="M123.305 106.168C123.305 105.588 123.885 105.008 124.484 105.008C125.083 105.008 125.663 105.588 125.663 106.168C125.663 106.747 125.083 107.327 124.484 107.327C123.711 107.327 123.305 106.747 123.305 106.168Z" fill="#6A5ACD"/>
<path d="M71.3683 161.835C72.3348 161.835 73.1272 162.608 73.1272 163.575C73.1272 164.541 72.3541 165.314 71.3683 165.314C70.3825 165.314 69.6094 164.541 69.6094 163.575C69.6094 162.608 70.3825 161.835 71.3683 161.835Z" fill="#6A5ACD"/>
<path d="M62.7863 80.8467C63.7527 80.8467 64.5452 81.6198 64.5452 82.5863C64.5452 83.5527 63.7721 84.3259 62.7863 84.3259C61.8005 84.3259 61.0273 83.5527 61.0273 82.5863C61.0273 81.6198 61.8005 80.8467 62.7863 80.8467Z" fill="#6A5ACD"/>
<path d="M60.4464 114.672C61.4129 114.672 62.2054 115.446 62.2054 116.412C62.2054 117.378 61.4322 118.152 60.4464 118.152C59.4607 118.152 58.6875 117.378 58.6875 116.412C58.6875 115.446 59.2674 114.672 60.4464 114.672Z" fill="#6A5ACD"/>
<path d="M141.456 157.003H68.2572C67.6773 157.003 67.0781 156.423 67.0781 155.843V63.8375C67.0781 63.2576 67.658 62.6777 68.2572 62.6777H141.456C142.036 62.6777 142.635 63.2576 142.635 63.8375V155.65C142.828 156.423 142.248 157.003 141.456 157.003ZM69.6102 154.49H140.277V65.1905H69.6102V154.49Z" fill="#6A5ACD"/>
<path d="M151.214 166.667H78.015C77.4351 166.667 76.8359 166.087 76.8359 165.507V155.843C76.8359 155.263 77.4158 154.683 78.015 154.683C78.6142 154.683 79.1941 155.263 79.1941 155.843V164.348H150.054V74.8546H141.472C140.892 74.8546 140.293 74.2748 140.293 73.6949C140.293 73.115 140.873 72.5352 141.472 72.5352H151.233C151.813 72.5352 152.412 73.115 152.412 73.6949V165.507C152.605 166.087 152.026 166.667 151.233 166.667H151.214Z" fill="#6A5ACD"/>
<path d="M87.7772 73.5017C87.1973 73.5017 86.5981 72.9219 86.5981 72.342V60.1648C86.5981 59.5849 86.4048 59.005 85.8249 58.4252C85.4384 58.0386 84.6459 57.652 84.066 57.652C82.6937 57.652 81.5339 58.8117 81.5339 60.1648V63.8373C81.5339 64.4171 80.954 64.997 80.3548 64.997C79.7556 64.997 79.1758 64.4171 79.1758 63.8373V60.1648C79.1758 57.4587 81.3213 55.3325 84.0467 55.3325C85.419 55.3325 86.5788 55.9124 87.5646 56.6855C88.531 57.652 88.9369 58.8117 88.9369 60.1648V72.342C89.1302 72.9219 88.5503 73.5017 87.7578 73.5017H87.7772Z" fill="#6A5ACD"/>
<path d="M81.3231 96.5033C80.9365 96.5033 80.7433 96.31 80.55 96.1167L75.4664 91.0912C74.8866 90.5113 74.5 89.7381 74.5 88.7717C74.5 87.9985 74.8866 87.0321 75.4664 86.4522C76.0463 85.8724 76.8388 85.4858 77.8053 85.4858C78.5784 85.4858 79.5642 85.8724 80.1441 86.4522L81.5164 87.8052L88.5522 80.8468C89.132 80.267 89.9245 79.8804 90.891 79.8804C91.6641 79.8804 92.6499 80.267 93.2298 80.8468C93.8096 81.4267 94.1962 82.1998 94.1962 83.1663C94.1962 83.9395 93.8096 84.9059 93.2298 85.4858L82.5022 96.1167C81.9223 96.31 81.729 96.5033 81.3231 96.5033ZM77.8053 87.9985C77.612 87.9985 77.4187 87.9985 77.2254 88.1918C77.0321 88.3851 77.0321 88.5784 77.0321 88.7717C77.0321 88.965 77.0321 89.1583 77.2254 89.3516L81.3231 93.4106L91.2775 83.5529C91.4708 83.3596 91.4708 83.1663 91.4708 82.973C91.4708 82.7797 91.4708 82.5864 91.2775 82.3931C90.891 82.0066 90.5044 82.0066 90.0985 82.3931L82.0963 90.318C81.7097 90.7046 80.9172 90.7046 80.3373 90.318L78.1918 88.1918C78.1918 88.1918 77.9985 87.9985 77.8053 87.9985Z" fill="#6A5ACD"/>
<path d="M120.771 89.3517H96.3783C95.7984 89.3517 95.1992 88.7718 95.1992 88.192C95.1992 87.6121 95.7791 87.0322 96.3783 87.0322H120.771C121.351 87.0322 121.951 87.6121 121.951 88.192C121.951 88.7718 121.371 89.3517 120.771 89.3517Z" fill="#6A5ACD"/>
<path d="M134.224 94.1837H96.3588C95.7789 94.1837 95.1797 93.6039 95.1797 93.024C95.1797 92.4441 95.7596 91.8643 96.3588 91.8643H134.224C134.804 91.8643 135.403 92.4441 135.403 93.024C135.403 93.6039 134.823 94.1837 134.224 94.1837Z" fill="#6A5ACD"/>
<path d="M81.3231 114.672C80.9365 114.672 80.7433 114.479 80.55 114.286L75.4664 109.26C74.8866 108.68 74.5 107.907 74.5 106.941C74.5 106.167 74.8866 105.201 75.4664 104.621C76.0463 104.041 76.8388 103.655 77.8053 103.655C78.5784 103.655 79.5642 104.041 80.1441 104.621L81.5164 105.974L88.5522 99.0158C89.132 98.4359 89.9245 98.0493 90.891 98.0493C91.6641 98.0493 92.6499 98.4359 93.2298 99.0158C93.8096 99.5956 94.1962 100.369 94.1962 101.335C94.1962 102.108 93.8096 103.075 93.2298 103.655L82.5022 114.286C81.9223 114.479 81.729 114.672 81.3231 114.672ZM77.8053 106.167C77.612 106.167 77.4187 106.167 77.2254 106.361C77.0321 106.554 77.0321 106.747 77.0321 106.941C77.0321 107.134 77.0321 107.327 77.2254 107.521L81.3231 111.58L91.2775 101.722C91.4708 101.722 91.4708 101.529 91.4708 101.335C91.4708 101.142 91.4708 100.949 91.2775 100.755C90.891 100.369 90.5044 100.369 90.0985 100.755L82.0963 108.68C81.7097 109.067 80.9172 109.067 80.3373 108.68L78.1918 106.554C78.1918 106.361 77.9985 106.167 77.8053 106.167Z" fill="#6A5ACD"/>
<path d="M120.771 107.327H96.3783C95.7984 107.327 95.1992 106.747 95.1992 106.168C95.1992 105.588 95.7791 105.008 96.3783 105.008H120.771C121.351 105.008 121.951 105.588 121.951 106.168C121.951 106.747 121.371 107.327 120.771 107.327Z" fill="#6A5ACD"/>
<path d="M134.224 112.16H96.3588C95.7789 112.16 95.1797 111.58 95.1797 111C95.1797 110.42 95.7596 109.84 96.3588 109.84H134.224C134.804 109.84 135.403 110.42 135.403 111C135.403 111.58 134.823 112.16 134.224 112.16Z" fill="#6A5ACD"/>
<path d="M81.3231 132.842C80.9365 132.842 80.7433 132.648 80.55 132.455L75.4664 127.43C74.8866 126.85 74.5 126.077 74.5 125.11C74.5 124.337 74.8866 123.37 75.4664 122.791C76.0463 122.211 76.8388 121.824 77.8053 121.824C78.5784 121.824 79.5642 122.211 80.1441 122.791L81.5164 124.144L88.5522 117.185C89.132 116.605 89.9245 116.219 90.891 116.219C91.6641 116.219 92.6499 116.605 93.2298 117.185C93.8096 117.765 94.1962 118.538 94.1962 119.505C94.1962 120.278 93.8096 121.244 93.2298 121.824L82.5022 132.455C81.9223 132.648 81.729 132.842 81.3231 132.842ZM77.8053 124.337C77.612 124.337 77.4187 124.337 77.2254 124.53C77.0321 124.723 77.0321 124.917 77.0321 125.11C77.0321 125.303 77.0321 125.497 77.2254 125.69L81.3231 129.749L91.2775 119.891C91.4708 119.698 91.4708 119.505 91.4708 119.311C91.4708 119.118 91.4708 118.925 91.2775 118.732C90.891 118.345 90.5044 118.345 90.0985 118.732L82.0963 126.656C81.7097 127.043 80.9172 127.043 80.3373 126.656L78.1918 124.53C78.1918 124.337 77.9985 124.337 77.8053 124.337Z" fill="#6A5ACD"/>
<path d="M120.771 125.497H96.3783C95.7984 125.497 95.1992 124.917 95.1992 124.337C95.1992 123.757 95.7791 123.177 96.3783 123.177H120.771C121.351 123.177 121.951 123.757 121.951 124.337C121.951 124.917 121.371 125.497 120.771 125.497Z" fill="#6A5ACD"/>
<path d="M134.224 130.329H96.3588C95.7789 130.329 95.1797 129.749 95.1797 129.169C95.1797 128.589 95.7596 128.009 96.3588 128.009H134.224C134.804 128.009 135.403 128.589 135.403 129.169C135.403 129.749 134.823 130.329 134.224 130.329Z" fill="#6A5ACD"/>
<path d="M81.3231 150.818C80.9365 150.818 80.7433 150.624 80.55 150.431L75.4664 145.406C74.8866 144.826 74.5 144.053 74.5 143.086C74.5 142.313 74.8866 141.347 75.4664 140.767C76.0463 140.187 76.8388 139.8 77.8053 139.8C78.5784 139.8 79.5642 140.187 80.1441 140.767L81.5164 142.12L88.5522 135.161C89.132 134.581 89.9245 134.195 90.891 134.195C91.6641 134.195 92.6499 134.581 93.2298 135.161C93.8096 135.741 94.1962 136.514 94.1962 137.481C94.1962 138.254 93.8096 139.22 93.2298 139.8L82.5022 150.431C81.9223 150.818 81.729 150.818 81.3231 150.818ZM77.8053 142.506C77.612 142.506 77.4187 142.506 77.2254 142.7C77.0321 142.893 77.0321 143.086 77.0321 143.279C77.0321 143.473 77.0321 143.666 77.2254 143.859L81.3231 147.918L91.2775 138.061C91.4708 138.061 91.4708 137.674 91.4708 137.481C91.4708 137.287 91.4708 137.094 91.2775 136.901C90.891 136.514 90.5044 136.514 90.0985 136.901L82.0963 144.826C81.7097 145.212 80.9172 145.212 80.3373 144.826L78.1918 142.7C78.1918 142.506 77.9985 142.506 77.8053 142.506Z" fill="#6A5ACD"/>
<path d="M120.771 143.666H96.3783C95.7984 143.666 95.1992 143.086 95.1992 142.506C95.1992 141.926 95.7791 141.346 96.3783 141.346H120.771C121.351 141.346 121.951 141.926 121.951 142.506C121.951 143.086 121.371 143.666 120.771 143.666Z" fill="#6A5ACD"/>
<path d="M134.224 148.498H96.3588C95.7789 148.498 95.1797 147.918 95.1797 147.338C95.1797 146.759 95.7596 146.179 96.3588 146.179H134.224C134.804 146.179 135.403 146.759 135.403 147.338C135.403 147.918 134.823 148.498 134.224 148.498Z" fill="#6A5ACD"/>
<path d="M59.8668 155.65C57.1414 155.65 54.9766 153.524 54.9766 150.818C54.9766 148.112 57.1221 145.985 59.8668 145.985C62.6115 145.985 64.7377 148.112 64.7377 150.818C64.7377 153.524 62.3989 155.65 59.8668 155.65ZM59.8668 148.498C58.4944 148.498 57.3347 149.658 57.3347 151.011C57.3347 152.364 58.5138 153.524 59.8668 153.524C61.2198 153.524 62.3989 152.364 62.3989 151.011C62.3989 149.658 61.0265 148.498 59.8668 148.498Z" fill="#6A5ACD"/>
<path d="M160.395 73.5016C156.684 73.5016 153.766 70.6023 153.766 66.9298C153.766 63.2573 156.704 60.3579 160.395 60.3579C164.087 60.3579 167.025 63.2573 167.025 66.9298C167.025 70.6023 164.087 73.5016 160.395 73.5016ZM160.395 62.6774C158.057 62.6774 156.104 64.6103 156.104 66.9298C156.104 69.2492 158.057 71.1821 160.395 71.1821C162.734 71.1821 164.686 69.2492 164.686 66.9298C164.686 64.6103 162.734 62.6774 160.395 62.6774Z" fill="#6A5ACD"/>
</g>
<circle cx="111" cy="111" r="109.5" stroke="url(#paint0_linear_3646_47651)" stroke-width="3"/>
<defs>
<linearGradient id="paint0_linear_3646_47651" x1="111" y1="0" x2="111" y2="222" gradientUnits="userSpaceOnUse">
<stop stop-color="#CFD4F6"/>
<stop offset="1" stop-color="#F0F2FD"/>
</linearGradient>
<clipPath id="clip0_3646_47651">
<rect width="112.05" height="111.335" fill="white" transform="translate(54.9766 55.3325)"/>
</clipPath>
</defs>
</svg>
