<svg width="222" height="222" viewBox="0 0 222 222" fill="none" xmlns="http://www.w3.org/2000/svg">
<rect x="11" y="11" width="200" height="200" rx="100" fill="#F0F2FD"/>
<g clip-path="url(#clip0_3646_47285)">
<path d="M156.899 91.7383V156.769H65.0781V91.7383H156.899Z" fill="#CFD4F6"/>
<path d="M67.9322 94.8005H156.899V91.7383H65.0781V156.746H67.9322V94.8005Z" fill="#CFD4F6"/>
<path d="M147.916 156.746H130.16V168.574H147.916V156.746Z" fill="white"/>
<path d="M132.523 159.13H147.916V156.746H130.16V168.574H132.523V159.13Z" fill="white"/>
<path d="M91.8418 156.746H74.0859V168.574H91.8418V156.746Z" fill="white"/>
<path d="M76.4487 159.364H91.8184V156.746H74.0859V168.574H76.4487V159.364Z" fill="white"/>
<path d="M109.574 103.31C121.084 103.31 130.395 112.636 130.395 124.114C130.395 135.591 121.061 144.918 109.574 144.918C98.088 144.918 88.7539 135.591 88.7539 124.114C88.7539 112.636 98.088 103.31 109.574 103.31Z" fill="white"/>
<path d="M90.8827 127.667C90.8827 116.306 100.1 106.862 111.703 106.862C118.324 106.862 124.242 109.948 128.032 114.904C124.71 108.054 117.622 103.543 109.574 103.543C98.205 103.543 88.7539 112.776 88.7539 124.347C88.7539 129.069 90.4149 133.581 93.0116 137.11C91.8185 134.048 90.8827 130.963 90.8827 127.643V127.667Z" fill="white"/>
<path d="M159.753 64.9971H136.078V76.8251H159.753V64.9971Z" fill="#CFD4F6"/>
<path d="M138.675 67.8489H159.753V64.9971H136.078V76.8251H138.675V67.8489Z" fill="#CFD4F6"/>
<path d="M85.9206 64.9971H62.2461V76.8251H85.9206V64.9971Z" fill="#CFD4F6"/>
<path d="M64.8428 68.0826H85.8972V64.9971H62.2461V76.8251H64.8428V68.0826Z" fill="#CFD4F6"/>
<path d="M171.589 76.1234V145.642C171.589 151.79 166.63 156.746 160.477 156.746H156.687V91.7149H65.0776V156.746H61.2878C55.1353 156.746 50.1758 151.79 50.1758 145.642V76.1234C50.1758 69.9756 55.1353 65.02 61.2878 65.02H61.9896V76.8481H85.6641V65.02H136.078V76.8481H159.752V65.02H160.454C166.606 65.02 171.566 69.9756 171.566 76.1234H171.589Z" fill="white"/>
<path d="M62.4805 79.1861H88.7516V67.3814H94.6703H136.077V64.9971H133.247H91.8162H85.8976V76.8251H62.4805V79.1861Z" fill="white"/>
<path d="M53.2408 148.004V78.4848C53.2408 73.0383 57.0306 68.5502 62.224 67.6152V65.0205H61.5222C55.3696 65.0205 50.4102 69.9761 50.4102 76.1239V145.643C50.4102 149.897 52.7729 153.45 56.0948 155.344C54.4339 153.45 53.2642 150.856 53.2642 148.004H53.2408Z" fill="white"/>
<path d="M136.077 66.6565H132.99C132.288 66.6565 131.562 65.9552 131.562 65.2306C131.562 64.506 132.264 63.8047 132.99 63.8047H136.077C136.779 63.8047 137.505 64.506 137.505 65.2306C137.738 65.9319 137.037 66.6565 136.077 66.6565Z" fill="#6A5ACD"/>
<path d="M91.8183 66.6565H85.8997C85.1979 66.6565 84.4727 65.9552 84.4727 65.2306C84.4727 64.506 85.1745 63.8047 85.8997 63.8047H91.8183C92.5201 63.8047 93.2453 64.506 93.2453 65.2306C93.2453 65.9552 92.5435 66.6565 91.8183 66.6565Z" fill="#6A5ACD"/>
<path d="M65.0788 158.172H61.289C54.4347 158.172 48.75 152.492 48.75 145.643V76.1236C48.75 69.2745 54.4347 63.5942 61.289 63.5942H61.9909C62.6927 63.5942 63.4179 64.2955 63.4179 65.0201C63.4179 65.7448 62.7161 66.4461 61.9909 66.4461H61.289C56.0722 66.4461 51.8146 70.7004 51.8146 75.9132V145.432C51.8146 150.645 56.0722 154.899 61.289 154.899H65.0788C65.7806 154.899 66.5058 155.601 66.5058 156.325C66.7398 157.517 66.038 158.219 65.0788 158.219V158.172Z" fill="#6A5ACD"/>
<path d="M160.689 158.172H156.9C156.198 158.172 155.473 157.471 155.473 156.746C155.473 156.021 156.174 155.32 156.9 155.32H160.689C165.883 155.32 170.164 151.066 170.164 145.853V76.1236C170.164 70.9109 165.906 66.6565 160.689 66.6565H159.988C159.286 66.6565 158.561 65.9552 158.561 65.2306C158.561 64.506 159.262 63.8047 159.988 63.8047H160.689C167.544 63.8047 173.229 69.485 173.229 76.334V145.853C173.229 152.468 167.544 158.149 160.689 158.149V158.172Z" fill="#6A5ACD"/>
<path d="M133.248 66.6565H91.8411C91.1393 66.6565 90.4141 65.9552 90.4141 65.2306V53.4259C90.4141 52.7246 91.1159 52 91.8411 52H133.248C133.95 52 134.675 52.7013 134.675 53.4259V65.254C134.675 65.9552 133.973 66.6799 133.248 66.6799V66.6565ZM93.2447 63.5709H131.821V54.5947H93.2447V63.5709Z" fill="#6A5ACD"/>
<path d="M85.8984 78.4846H62.2239C61.5221 78.4846 60.7969 77.7833 60.7969 77.0587V65.2306C60.7969 64.5293 61.4987 63.8047 62.2239 63.8047H85.8984C86.6002 63.8047 87.3254 64.506 87.3254 65.2306V77.0587C87.3254 77.7599 86.6236 78.4846 85.8984 78.4846ZM63.6509 75.399H84.4713V66.4228H63.6509V75.399Z" fill="#6A5ACD"/>
<path d="M159.754 78.4846H136.079C135.378 78.4846 134.652 77.7833 134.652 77.0587V65.2306C134.652 64.5293 135.354 63.8047 136.079 63.8047H159.754C160.456 63.8047 161.181 64.506 161.181 65.2306V77.0587C161.415 77.7599 160.713 78.4846 159.754 78.4846ZM137.74 75.399H158.561V66.4228H137.74V75.399Z" fill="#6A5ACD"/>
<path d="M156.9 158.172H147.917C147.215 158.172 146.49 157.471 146.49 156.746C146.49 156.021 147.191 155.32 147.917 155.32H155.262V93.1175H66.7404V155.32H74.086C74.7878 155.32 75.513 156.021 75.513 156.746C75.513 157.471 74.8112 158.172 74.086 158.172H65.1028C64.401 158.172 63.6758 157.471 63.6758 156.746V91.715C63.6758 91.0137 64.3776 90.2891 65.1028 90.2891H156.923C157.625 90.2891 158.35 90.9903 158.35 91.715V156.746C158.35 157.447 157.648 158.172 156.923 158.172H156.9Z" fill="#6A5ACD"/>
<path d="M130.16 158.172H91.8176C91.1158 158.172 90.3906 157.471 90.3906 156.746C90.3906 156.022 91.0924 155.32 91.8176 155.32H130.394C131.096 155.32 131.821 156.022 131.821 156.746C131.821 157.471 131.119 158.172 130.16 158.172Z" fill="#6A5ACD"/>
<path d="M180.573 170H147.915C147.213 170 146.488 169.299 146.488 168.574C146.488 167.849 147.19 167.148 147.915 167.148H180.573C181.275 167.148 182 167.849 182 168.574C182 169.299 181.298 170 180.573 170Z" fill="#6A5ACD"/>
<path d="M130.16 170H91.8176C91.1158 170 90.3906 169.299 90.3906 168.574C90.3906 167.849 91.0924 167.148 91.8176 167.148H130.394C131.096 167.148 131.821 167.849 131.821 168.574C131.821 169.299 131.119 170 130.16 170Z" fill="#6A5ACD"/>
<path d="M74.0847 170H41.427C40.7252 170 40 169.299 40 168.574C40 167.849 40.7018 167.148 41.427 167.148H74.0847C74.7865 167.148 75.5117 167.849 75.5117 168.574C75.5117 169.299 74.8099 170 74.0847 170Z" fill="#6A5ACD"/>
<path d="M147.917 170H130.161C129.46 170 128.734 169.299 128.734 168.574V156.746C128.734 156.045 129.436 155.32 130.161 155.32H147.917C148.619 155.32 149.344 156.022 149.344 156.746V168.574C149.578 169.276 148.876 170 147.917 170ZM131.822 167.172H146.724V158.196H131.822V167.172Z" fill="#6A5ACD"/>
<path d="M91.8157 170H74.0598C73.358 170 72.6328 169.299 72.6328 168.574V156.746C72.6328 156.045 73.3346 155.32 74.0598 155.32H91.8157C92.5175 155.32 93.2427 156.022 93.2427 156.746V168.574C93.2427 169.276 92.5409 170 91.8157 170ZM75.4868 167.172H90.3887V158.196H75.4868V167.172Z" fill="#6A5ACD"/>
<path d="M109.572 146.344C97.2666 146.344 87.3242 136.409 87.3242 124.113C87.3242 111.818 97.2666 101.883 109.572 101.883C121.877 101.883 131.819 111.818 131.819 124.113C131.819 136.409 121.643 146.344 109.572 146.344ZM109.572 104.969C98.9275 104.969 90.4122 113.478 90.4122 124.113C90.4122 134.749 98.9275 143.258 109.572 143.258C120.216 143.258 128.731 134.749 128.731 124.113C128.731 113.478 120.216 104.969 109.572 104.969Z" fill="#6A5ACD"/>
<path d="M121.41 125.773H97.7356C97.0338 125.773 96.3086 125.072 96.3086 124.347C96.3086 123.623 97.0104 122.921 97.7356 122.921H121.41C122.112 122.921 122.837 123.623 122.837 124.347C122.837 125.072 122.135 125.773 121.41 125.773Z" fill="#6A5ACD"/>
<path d="M109.572 137.602C108.87 137.602 108.145 136.9 108.145 136.176V112.52C108.145 111.818 108.846 111.094 109.572 111.094C110.297 111.094 110.999 111.795 110.999 112.52V136.176C110.999 136.877 110.297 137.602 109.572 137.602Z" fill="#6A5ACD"/>
</g>
<circle cx="111" cy="111" r="109.5" stroke="url(#paint0_linear_3646_47285)" stroke-width="3"/>
<defs>
<linearGradient id="paint0_linear_3646_47285" x1="111" y1="0" x2="111" y2="222" gradientUnits="userSpaceOnUse">
<stop stop-color="#CFD4F6"/>
<stop offset="1" stop-color="#F0F2FD"/>
</linearGradient>
<clipPath id="clip0_3646_47285">
<rect width="142" height="118" fill="white" transform="translate(40 52)"/>
</clipPath>
</defs>
</svg>
