<svg width="222" height="222" viewBox="0 0 222 222" fill="none" xmlns="http://www.w3.org/2000/svg">
<rect x="11" y="11" width="200" height="200" rx="100" fill="#F0F2FD"/>
<g clip-path="url(#clip0_3646_47718)">
<path d="M88.7399 62.2739H147.715V77.1284H88.7399V62.2739Z" fill="white"/>
<path d="M147.715 124.094V76.4287H88.7399V129.271C88.7399 134.214 92.7509 138.225 97.6946 138.225H138.76C143.704 138.225 147.715 134.214 147.715 129.271V124.07V124.094Z" fill="#CFD4F6"/>
<path d="M144.66 133.048V79.9733H88.7632V76.9185H147.715V130.227C147.715 133.538 146.059 136.127 143.471 137.782C144.403 136.127 144.66 134.704 144.66 133.072V133.048Z" fill="#CFD4F6"/>
<path d="M97.7173 140.371H138.76C144.426 140.371 149.137 135.66 149.137 129.994V62.274C149.137 61.5745 148.437 60.8516 147.714 60.8516H88.7393C88.0397 60.8516 87.3168 61.5511 87.3168 62.274V129.97C87.3168 135.637 92.0274 140.348 97.694 140.348L97.7173 140.371ZM146.315 63.6965V129.994C146.315 134.238 143.004 137.549 138.76 137.549H97.7173C93.4732 137.549 90.1618 134.238 90.1618 129.994V63.6965H146.315Z" fill="#6A5ACD"/>
<path d="M100.539 99.072H147.714C148.414 99.072 149.137 98.3724 149.137 97.6495C149.137 96.9266 148.437 96.2271 147.714 96.2271H100.539C99.8394 96.2271 99.1165 96.9266 99.1165 97.6495C99.1165 98.3724 99.8161 99.072 100.539 99.072Z" fill="#6A5ACD"/>
<path d="M130.038 108.05H147.738C148.437 108.05 149.16 107.35 149.16 106.628C149.16 105.905 148.461 105.205 147.738 105.205H130.038C129.339 105.205 128.616 105.905 128.616 106.628C128.616 107.35 129.315 108.05 130.038 108.05Z" fill="#6A5ACD"/>
<path d="M130.038 116.772H147.738C148.437 116.772 149.16 116.072 149.16 115.349C149.16 114.626 148.461 113.927 147.738 113.927H130.038C129.339 113.927 128.616 114.626 128.616 115.349C128.616 116.072 129.315 116.772 130.038 116.772Z" fill="#6A5ACD"/>
<path d="M130.038 125.749H147.738C148.437 125.749 149.16 125.05 149.16 124.327C149.16 123.604 148.461 122.904 147.738 122.904H130.038C129.339 122.904 128.616 123.604 128.616 124.327C128.616 125.05 129.315 125.749 130.038 125.749Z" fill="#6A5ACD"/>
<path d="M76.9642 178.825C77.6638 178.825 78.3867 178.125 78.3867 177.402V44.5978C78.3867 43.8982 77.6871 43.1753 76.9642 43.1753C76.2413 43.1753 75.5417 43.8749 75.5417 44.5978V177.402C75.5417 178.102 76.2413 178.825 76.9642 178.825Z" fill="#6A5ACD"/>
<path d="M65.1634 178.825C65.863 178.825 66.5859 178.125 66.5859 177.402V44.5978C66.5859 43.8982 65.8864 43.1753 65.1634 43.1753C64.4405 43.1753 63.741 43.8749 63.741 44.5978V177.402C63.741 178.102 64.4405 178.825 65.1634 178.825Z" fill="#6A5ACD"/>
<path d="M56.4416 78.551H165.413C166.113 78.551 166.836 77.8514 166.836 77.1285C166.836 76.4056 166.136 75.7061 165.413 75.7061H56.4183C55.7187 75.7061 54.9958 76.4056 54.9958 77.1285C54.7626 77.8281 55.4622 78.551 56.4183 78.551H56.4416Z" fill="#6A5ACD"/>
<path d="M125.56 169.847H128.615C133.559 169.847 137.57 165.836 137.57 160.892V160.659C137.57 158.77 138.759 157.347 140.391 156.415C142.047 155.482 144.169 155.715 145.592 156.881C145.592 156.881 145.825 156.881 145.825 157.114L164.947 166.792C165.646 167.258 166.603 166.792 166.836 166.092C167.302 165.393 166.836 164.437 166.136 164.203L147.037 154.759C144.682 153.103 141.604 152.87 138.782 154.059C136.194 155.249 134.538 157.837 134.305 160.659V161.125C134.305 164.437 131.717 167.025 128.405 167.025H125.35C122.039 167.025 119.451 164.437 119.451 161.125V138.948C119.451 138.249 118.751 137.526 118.028 137.526C117.305 137.526 116.839 137.992 116.839 138.948V161.125C116.839 165.836 120.85 169.847 125.56 169.847Z" fill="#6A5ACD"/>
</g>
<circle cx="111" cy="111" r="109.5" stroke="url(#paint0_linear_3646_47718)" stroke-width="3"/>
<defs>
<linearGradient id="paint0_linear_3646_47718" x1="111" y1="0" x2="111" y2="222" gradientUnits="userSpaceOnUse">
<stop stop-color="#CFD4F6"/>
<stop offset="1" stop-color="#F0F2FD"/>
</linearGradient>
<clipPath id="clip0_3646_47718">
<rect width="112.05" height="135.649" fill="white" transform="matrix(-1 0 0 1 167.023 43.1753)"/>
</clipPath>
</defs>
</svg>
