<svg width="222" height="222" viewBox="0 0 222 222" fill="none" xmlns="http://www.w3.org/2000/svg">
<rect x="11" y="11" width="200" height="200" rx="100" fill="#F0F2FD"/>
<g clip-path="url(#clip0_5529_58043)">
<g clip-path="url(#clip1_5529_58043)">
<path d="M134.152 103.266C136.833 90.8824 133.538 77.6819 124.02 67.9961C115.158 58.9233 102.55 55.2043 90.7815 56.8595C73.4252 59.332 60.2033 72.9412 57.7268 89.8607C56.0689 101.61 59.794 113.994 68.8815 123.066C82.7174 136.676 104.413 137.513 119.497 126.152L126.108 132.752L133.333 125.539L126.722 118.939C130.447 113.789 132.924 108.619 134.152 103.266Z" fill="#CFD4F6"/>
<path d="M96.3438 152.757C99.8641 152.757 102.75 155.639 102.75 159.153C102.75 162.668 99.8641 165.549 96.3438 165.549C92.8234 165.549 89.9375 162.668 89.9375 159.153C89.9375 155.639 92.8234 152.757 96.3438 152.757Z" fill="#CFD4F6"/>
<path d="M151.916 70.2644C156.93 70.2644 161.003 74.3308 161.003 79.3372C161.003 84.3436 156.93 88.41 151.916 88.41C146.901 88.41 142.828 84.3436 142.828 79.3372C142.828 74.3308 146.901 70.2644 151.916 70.2644Z" fill="#CFD4F6"/>
<path d="M145.097 128.624C145.097 128.624 129.398 144.297 130.422 143.276L122.992 135.858C124.241 134.612 136.009 122.862 137.667 121.207L145.097 128.624Z" fill="#CFD4F6"/>
<path d="M162.864 146.586C166.998 150.714 166.998 157.11 162.864 161.238C158.73 165.365 152.323 165.365 148.189 161.238L130.219 143.296C130.014 143.501 131.672 141.846 144.894 128.645L162.864 146.586ZM159.773 154.004C159.773 151.94 158.116 150.081 155.844 150.081C153.777 150.081 151.914 151.736 151.914 154.004C151.914 156.068 153.572 157.927 155.844 157.927C157.911 157.927 159.773 156.272 159.773 154.004Z" fill="white"/>
<path d="M161.636 98.7292C162.659 98.7292 163.498 99.5671 163.498 100.589C163.498 101.61 162.659 102.448 161.636 102.448C160.613 102.448 159.773 101.61 159.773 100.589C159.773 99.5671 160.613 98.7292 161.636 98.7292Z" fill="#6A5ACD"/>
<path d="M148.823 112.951C149.847 112.951 150.686 113.789 150.686 114.811C150.686 115.833 149.847 116.67 148.823 116.67C147.8 116.67 146.961 115.833 146.961 114.811C146.961 113.789 147.8 112.951 148.823 112.951Z" fill="#6A5ACD"/>
<path d="M135.808 57.4727C136.831 57.4727 137.67 58.3105 137.67 59.3322C137.67 60.3539 136.831 61.1917 135.808 61.1917C134.784 61.1917 133.945 60.3539 133.945 59.3322C133.945 58.3105 134.784 57.4727 135.808 57.4727Z" fill="#6A5ACD"/>
<path d="M131.878 159.358C132.902 159.358 133.741 160.195 133.741 161.217C133.741 162.239 132.902 163.077 131.878 163.077C130.855 163.077 130.016 162.239 130.016 161.217C130.016 160.195 130.855 159.358 131.878 159.358Z" fill="#6A5ACD"/>
<path d="M115.159 146.791C116.188 146.791 117.022 145.958 117.022 144.931C117.022 143.904 116.188 143.072 115.159 143.072C114.131 143.072 113.297 143.904 113.297 144.931C113.297 145.958 114.131 146.791 115.159 146.791Z" fill="#6A5ACD"/>
<path d="M80.2375 152.757C81.2609 152.757 82.1 153.595 82.1 154.617C82.1 155.639 81.2609 156.476 80.2375 156.476C79.2142 156.476 78.375 155.639 78.375 154.617C78.375 153.595 79.2142 152.757 80.2375 152.757Z" fill="#6A5ACD"/>
<path d="M61.0188 56.8596C62.0421 56.8596 62.8813 57.6974 62.8813 58.7191C62.8813 59.7408 62.0421 60.5786 61.0188 60.5786C59.9954 60.5786 59.1562 59.7408 59.1562 58.7191C59.1562 57.6974 59.9954 56.8596 61.0188 56.8596Z" fill="#6A5ACD"/>
<path d="M55.8625 145.135C56.8859 145.135 57.725 145.973 57.725 146.995C57.725 148.016 56.8859 148.854 55.8625 148.854C54.8392 148.854 54 148.016 54 146.995C54 145.973 54.8392 145.135 55.8625 145.135Z" fill="#6A5ACD"/>
<path d="M155.641 165.549C152.55 165.549 149.644 164.303 147.372 162.239L121.972 136.655C121.767 136.451 121.562 136.042 121.562 135.838C121.562 135.634 121.767 135.225 121.972 135.02L136.647 120.369C136.852 120.165 137.261 119.96 137.466 119.96C137.875 119.96 138.08 120.165 138.284 120.369L163.684 145.748C165.956 148.017 166.979 150.898 166.979 154.004C166.979 157.11 165.731 159.991 163.684 162.259C161.617 164.323 158.731 165.57 155.62 165.57L155.641 165.549ZM124.653 135.838L149.234 160.175C150.892 161.83 153.164 162.852 155.641 162.852C158.117 162.852 160.389 161.83 162.047 160.175C163.705 158.52 164.728 156.252 164.728 153.779C164.728 151.307 163.705 149.038 162.047 147.383L137.466 123.046L124.653 135.838Z" fill="#6A5ACD"/>
<path d="M119.29 118.734C118.88 118.734 118.676 118.53 118.471 118.326C118.062 117.917 118.062 117.079 118.471 116.466C130.444 104.512 130.444 84.9157 118.471 72.7369C118.062 72.3282 118.062 71.4904 118.471 70.8774C118.88 70.2644 119.72 70.4687 120.334 70.8774C133.351 83.8735 133.351 105.105 120.334 118.101C119.924 118.714 119.515 118.714 119.31 118.714L119.29 118.734Z" fill="#6A5ACD"/>
<path d="M151.914 89.6564C146.122 89.6564 141.578 85.12 141.578 79.3371C141.578 73.5542 146.122 69.0178 151.914 69.0178C157.706 69.0178 162.25 73.5542 162.25 79.3371C162.25 85.12 157.706 89.6564 151.914 89.6564ZM151.914 71.5108C147.575 71.5108 144.055 75.0255 144.055 79.1328C144.055 83.24 147.575 86.9795 151.914 86.9795C156.253 86.9795 159.774 83.4648 159.774 79.1328C159.774 74.8007 156.253 71.5108 151.914 71.5108Z" fill="#6A5ACD"/>
<path d="M96.3438 167C92.0048 167 88.4844 163.485 88.4844 159.174C88.4844 154.862 92.0048 151.327 96.3438 151.327C100.683 151.327 104.203 154.842 104.203 159.174C104.203 163.506 100.683 167 96.3438 167ZM96.3438 154.004C93.4579 154.004 91.1861 156.272 91.1861 159.153C91.1861 162.034 93.4579 164.303 96.3438 164.303C99.2297 164.303 101.502 162.034 101.502 159.153C101.502 156.272 99.2297 154.004 96.3438 154.004Z" fill="#6A5ACD"/>
<path d="M155.845 159.153C152.959 159.153 150.688 156.885 150.688 154.004C150.688 151.123 152.959 148.854 155.845 148.854C158.731 148.854 161.003 151.123 161.003 154.004C161.003 156.885 158.731 159.153 155.845 159.153ZM155.845 151.511C154.392 151.511 153.164 152.757 153.164 154.188C153.164 155.618 154.413 156.865 155.845 156.865C157.278 156.865 158.526 155.618 158.526 154.188C158.322 152.533 157.278 151.511 155.845 151.511Z" fill="#6A5ACD"/>
<path d="M130.649 144.318C130.24 144.318 130.035 144.114 129.83 143.909C129.421 143.501 129.421 142.663 129.83 142.05L143.462 128.441C143.871 128.032 144.71 128.032 145.324 128.441C145.734 128.849 145.734 129.687 145.324 130.3L131.693 143.909C131.284 144.318 131.079 144.318 130.67 144.318H130.649Z" fill="#6A5ACD"/>
<path d="M133.945 126.152C133.536 126.152 133.331 125.948 133.127 125.743L126.311 119.143C126.106 118.939 125.902 118.53 125.902 118.326C125.902 118.121 125.902 117.713 126.106 117.508C137.261 102.857 136.012 81.8301 123.22 68.834C116.2 61.4163 106.478 57.2886 96.1625 57.493C85.8266 57.493 76.3297 61.825 69.3094 69.2427C63.947 74.8008 60.6313 81.8301 59.4033 89.6564C59.4033 90.2695 58.7892 90.9029 58.1548 90.9029C57.5203 90.9029 56.9062 90.2899 56.9062 89.6564V89.4521C58.1548 81.1967 61.6547 73.5747 67.4469 67.5875C74.8561 59.5364 85.1921 55.2043 96.1421 55C107.092 55 117.428 59.1277 125.062 66.954C131.878 73.7586 135.808 83.0358 136.422 92.5377C137.036 101.61 134.355 110.683 128.992 118.121L134.784 123.904C135.194 124.313 135.194 125.151 134.784 125.764C134.58 125.968 134.17 126.172 133.966 126.172L133.945 126.152Z" fill="#6A5ACD"/>
<path d="M104.824 133.794C104.21 133.794 103.801 133.386 103.576 132.773C103.371 132.16 103.78 131.322 104.599 131.322C109.961 130.075 114.935 127.807 119.274 124.517C119.683 124.109 120.523 124.109 120.932 124.722L127.543 131.322C127.952 131.731 127.952 132.568 127.543 133.181C127.133 133.59 126.294 133.59 125.68 133.181L119.888 127.398C115.549 130.484 110.596 132.752 105.213 133.999C105.008 133.794 104.804 133.794 104.804 133.794H104.824Z" fill="#6A5ACD"/>
<path d="M104.819 133.794C104.205 133.794 103.57 133.181 103.57 132.548C103.57 131.915 104.184 131.302 104.819 131.302C105.433 131.302 106.067 131.915 106.067 132.548C106.067 133.181 105.453 133.794 104.819 133.794Z" fill="#6A5ACD"/>
</g>
</g>
<circle cx="111" cy="111" r="109.5" stroke="url(#paint0_linear_5529_58043)" stroke-width="3"/>
<defs>
<linearGradient id="paint0_linear_5529_58043" x1="111" y1="0" x2="111" y2="222" gradientUnits="userSpaceOnUse">
<stop stop-color="#CFD4F6"/>
<stop offset="1" stop-color="#F0F2FD"/>
</linearGradient>
<clipPath id="clip0_5529_58043">
<rect width="112.05" height="111.335" fill="white" transform="translate(54.9766 55.3325)"/>
</clipPath>
<clipPath id="clip1_5529_58043">
<rect width="113" height="112" fill="white" transform="translate(54 55)"/>
</clipPath>
</defs>
</svg>
